<?xml version="1.0" encoding="UTF-8" standalone="no"?>
<!-- Created with Inkscape (http://www.inkscape.org/) -->

<svg
   width="3.3471985mm"
   height="4.4627638mm"
   viewBox="0 0 3.3471985 4.4627638"
   version="1.1"
   id="svg3731"
   xml:space="preserve"
   inkscape:version="1.2.2 (732a01da63, 2022-12-09)"
   sodipodi:docname="audiopausebutton.svg"
   xmlns:inkscape="http://www.inkscape.org/namespaces/inkscape"
   xmlns:sodipodi="http://sodipodi.sourceforge.net/DTD/sodipodi-0.dtd"
   xmlns="http://www.w3.org/2000/svg"
   xmlns:svg="http://www.w3.org/2000/svg"><sodipodi:namedview
     id="namedview3733"
     pagecolor="#ffffff"
     bordercolor="#000000"
     borderopacity="0.25"
     inkscape:showpageshadow="2"
     inkscape:pageopacity="0.0"
     inkscape:pagecheckerboard="0"
     inkscape:deskcolor="#d1d1d1"
     inkscape:document-units="mm"
     showgrid="false"
     inkscape:zoom="11.816274"
     inkscape:cx="-11.213349"
     inkscape:cy="15.741003"
     inkscape:window-width="1920"
     inkscape:window-height="1009"
     inkscape:window-x="-8"
     inkscape:window-y="-8"
     inkscape:window-maximized="1"
     inkscape:current-layer="layer1" /><defs
     id="defs3728" /><g
     inkscape:label="Layer 1"
     inkscape:groupmode="layer"
     id="layer1"
     transform="translate(-72.115191,-131.99743)"><path
       id="rect3967"
       style="fill:#ffffff;stroke-width:0.0140058"
       d="m 72.564701,131.99773 c -0.05997,0.002 -0.120201,0.0156 -0.177698,0.0412 -0.104221,0.0466 -0.172049,0.11031 -0.223919,0.21049 l -0.04334,0.0837 -0.0036,1.85652 c -0.0026,1.38806 -8.5e-5,1.87191 0.01012,1.91747 0.03336,0.1495 0.145524,0.27338 0.292906,0.32346 0.08945,0.0304 0.283483,0.0236 0.356319,-0.0124 0.121929,-0.0604 0.208271,-0.15522 0.245759,-0.26997 0.02182,-0.0668 0.02245,-0.1207 0.02242,-1.92599 -1.1e-5,-1.0215 -0.0037,-1.87164 -0.0081,-1.88919 -0.01398,-0.0553 -0.06251,-0.13742 -0.110813,-0.18744 -0.09743,-0.10089 -0.228122,-0.15231 -0.36007,-0.14789 z m 2.445658,0.004 c -0.125061,0 -0.196581,0.0206 -0.287754,0.083 -0.06776,0.0463 -0.134913,0.1305 -0.168094,0.2107 -0.01943,0.0469 -0.02082,0.15719 -0.02388,1.89472 -0.0036,2.06224 -0.0086,1.93072 0.07794,2.05834 0.08928,0.13165 0.196806,0.19007 0.38958,0.21163 0.0064,7.1e-4 0.04484,-0.004 0.08544,-0.0105 0.04061,-0.006 0.09839,-0.0233 0.128394,-0.0378 0.07722,-0.0373 0.189645,-0.15582 0.223165,-0.23513 l 0.02724,-0.0644 v -1.88919 -1.88915 l -0.02694,-0.0637 c -0.03935,-0.0931 -0.124501,-0.17647 -0.231759,-0.22708 -0.08239,-0.0389 -0.09529,-0.0416 -0.193349,-0.0416 z" /></g></svg>
