<?xml version="1.0" encoding="UTF-8" standalone="no"?>
<!-- Created with Inkscape (http://www.inkscape.org/) -->

<svg
   width="12.497478"
   height="16.715418"
   viewBox="0 0 3.3066245 4.4226209"
   version="1.1"
   id="svg5"
   xml:space="preserve"
   sodipodi:docname="audioplaybutton.svg"
   inkscape:export-filename="..\..\..\..\Downloads\ref.png"
   inkscape:export-xdpi="95.62574"
   inkscape:export-ydpi="95.62574"
   inkscape:version="1.2.2 (732a01da63, 2022-12-09)"
   xmlns:inkscape="http://www.inkscape.org/namespaces/inkscape"
   xmlns:sodipodi="http://sodipodi.sourceforge.net/DTD/sodipodi-0.dtd"
   xmlns="http://www.w3.org/2000/svg"
   xmlns:svg="http://www.w3.org/2000/svg"><sodipodi:namedview
     id="namedview7"
     pagecolor="#ffffff"
     bordercolor="#000000"
     borderopacity="0.25"
     inkscape:showpageshadow="2"
     inkscape:pageopacity="0.0"
     inkscape:pagecheckerboard="0"
     inkscape:deskcolor="#d1d1d1"
     inkscape:document-units="mm"
     showgrid="false"
     inkscape:zoom="8.3553674"
     inkscape:cx="-42.547501"
     inkscape:cy="11.48962"
     inkscape:window-width="1920"
     inkscape:window-height="1009"
     inkscape:window-x="-8"
     inkscape:window-y="-8"
     inkscape:window-maximized="1"
     inkscape:current-layer="layer1" /><defs
     id="defs2" /><g
     inkscape:label="Layer 1"
     inkscape:groupmode="layer"
     id="layer1"
     transform="translate(-21.594554,-46.837705)"><path
       style="fill:#ffffff;stroke-width:0.0239254"
       d="m 21.723668,51.241749 c -0.02869,-0.01236 -0.07124,-0.0525 -0.09458,-0.08912 -0.03993,-0.06267 -0.04134,-0.184455 -0.02388,-2.077266 0.01014,-1.105885 0.02433,-2.033002 0.03137,-2.060271 0.0071,-0.02725 0.03985,-0.07798 0.07287,-0.112731 0.08668,-0.09119 0.229822,-0.08563 0.384036,0.01484 0.06368,0.04153 0.521899,0.373816 1.018279,0.738443 0.496372,0.36463 1.062581,0.775408 1.258216,0.912839 0.475586,0.334033 0.563681,0.433813 0.522049,0.591261 -0.02312,0.08742 -0.108727,0.157002 -0.554042,0.450346 -0.420965,0.277314 -0.827686,0.548926 -1.090943,0.728534 -0.245041,0.167164 -0.879096,0.606499 -1.010259,0.699964 -0.296456,0.211232 -0.399721,0.252112 -0.513116,0.203064 z"
       id="path1472" /></g></svg>
