<?xml version="1.0" encoding="UTF-8" standalone="no"?>
<!-- Created with Inkscape (http://www.inkscape.org/) -->

<svg
   width="13.855276mm"
   height="13.353846mm"
   viewBox="0 0 13.855276 13.353846"
   version="1.1"
   id="svg5"
   xml:space="preserve"
   inkscape:version="1.2.2 (732a01da63, 2022-12-09)"
   sodipodi:docname="homeico.svg"
   xmlns:inkscape="http://www.inkscape.org/namespaces/inkscape"
   xmlns:sodipodi="http://sodipodi.sourceforge.net/DTD/sodipodi-0.dtd"
   xmlns="http://www.w3.org/2000/svg"
   xmlns:svg="http://www.w3.org/2000/svg"><sodipodi:namedview
     id="namedview7"
     pagecolor="#ffffff"
     bordercolor="#000000"
     borderopacity="0.25"
     inkscape:showpageshadow="2"
     inkscape:pageopacity="0.0"
     inkscape:pagecheckerboard="0"
     inkscape:deskcolor="#d1d1d1"
     inkscape:document-units="mm"
     showgrid="false"
     inkscape:zoom="4"
     inkscape:cx="95"
     inkscape:cy="19"
     inkscape:window-width="1920"
     inkscape:window-height="1009"
     inkscape:window-x="-8"
     inkscape:window-y="-8"
     inkscape:window-maximized="1"
     inkscape:current-layer="layer1" /><defs
     id="defs2"><rect
       x="1.8618391"
       y="43.668591"
       width="58.055527"
       height="16.587294"
       id="rect7910" /><inkscape:path-effect
       effect="perspective-envelope"
       up_left_point="22.271185,70.606369"
       up_right_point="30.647841,70.606369"
       down_left_point="22.271185,74.457922"
       down_right_point="30.647841,75.868582"
       id="path-effect1207"
       is_visible="true"
       lpeversion="1"
       deform_type="perspective"
       horizontal_mirror="false"
       vertical_mirror="false"
       overflow_perspective="false" /><inkscape:path-effect
       effect="perspective-envelope"
       up_left_point="3.1624695,-21.137187"
       up_right_point="21.157263,-21.137187"
       down_left_point="-4.7863722,-4.0819225"
       down_right_point="29.97987,-3.631689"
       id="path-effect589"
       is_visible="true"
       lpeversion="1"
       deform_type="perspective"
       horizontal_mirror="false"
       vertical_mirror="false"
       overflow_perspective="false" /></defs><g
     inkscape:label="Layer 1"
     inkscape:groupmode="layer"
     id="layer1"
     transform="translate(-20.335508,-65.532842)"
     style="display:inline"><path
       id="rect1261"
       style="display:inline;fill:#ff6600;stroke-width:0.318088"
       transform="matrix(0.99465477,0.10325637,-0.12752906,0.99183484,0,1.0416667e-6)"
       d="m 34.855683,62.443771 c -0.09703,0.0074 -0.179444,0.05301 -0.284305,0.116608 -0.151521,0.09189 -0.129702,0.06538 -1.908195,2.273872 -0.776683,0.964461 -1.837438,2.276759 -2.357336,2.916155 -1.099065,1.351681 -1.143539,1.451103 -0.787638,1.754468 0.320418,0.273118 0.652532,0.194408 1.000448,-0.236492 0.182537,-0.226075 0.18299,-0.226036 0.362846,1.176719 0.09581,0.747254 0.09612,0.979861 0.118486,1.276665 l 6.6e-5,5.14e-4 c 0.01226,0.08925 0.01184,0.180295 0.01223,0.269656 -2.95e-4,0.09074 -0.0059,0.181164 -0.01405,0.27135 0.58889,-0.241962 1.260602,-0.374709 1.994576,-0.39261 l 1.332519,0.08427 c 0.363274,0.05259 0.736139,0.128914 1.117427,0.230145 1.543232,0.409751 2.225108,0.519017 3.2509,0.519679 1.00264,6.43e-4 2.111089,0.02972 2.820233,-0.466154 -0.02852,-0.04819 -0.292616,-0.425713 -0.318806,-0.475232 -0.04379,-0.0876 -0.09189,-0.177815 -0.113477,-0.273184 -0.152152,-0.418052 -0.22782,-1.306832 -0.340895,-2.188738 -0.167087,-1.303245 -0.167236,-1.303134 0.04901,-1.121124 0.473649,0.398719 0.953223,0.368622 1.114833,-0.06969 0.13368,-0.362558 0.16768,-0.326171 -1.575417,-1.662679 -0.789796,-0.605579 -2.2364,-1.727615 -3.214578,-2.493431 -1.546323,-1.210618 -1.967788,-1.532833 -2.25888,-1.510769 z"
       sodipodi:nodetypes="cccccsscccccccccccccscscc" /><path
       style="display:none;fill:#aa4400;stroke-width:0.0365899"
       d="m 18.430158,77.809035 c -0.35501,-0.206775 0.917863,-1.431736 2.028463,-1.952111 1.713375,-0.802807 3.399966,-0.762823 5.855557,0.138817 1.861617,0.683546 2.69133,0.852154 3.874554,0.787362 2.708487,-0.148317 4.9373,-2.696925 4.682306,-5.354136 -0.0516,-0.537683 -0.04589,-0.569086 0.103399,-0.569086 0.638861,0 0.284448,2.466463 -0.536286,3.732172 -1.721135,2.654273 -4.319494,3.226348 -8.138729,1.791886 -3.275677,-1.230309 -5.865699,-0.825803 -7.445,1.16275 -0.23638,0.297633 -0.298126,0.335814 -0.424264,0.262346 z"
       id="path419" /><path
       style="display:none;fill:#d45500;stroke-width:0.0365899"
       d="m 29.434571,78.302824 c -0.06037,-0.0086 -0.241493,-0.03317 -0.40249,-0.05456 -0.718278,-0.09543 -1.382551,-0.298331 -2.597883,-0.793521 -2.349239,-0.957207 -4.154407,-1.093907 -5.387311,-0.407966 -0.227154,0.12638 -0.304296,0.132393 -0.396159,0.03089 -0.258075,-0.285169 0.738171,-0.70105 1.926562,-0.804239 1.132731,-0.09836 2.285165,0.139626 3.971677,0.820166 1.629121,0.657383 2.334053,0.833031 3.361273,0.837536 2.173007,0.0095 4.047657,-1.244999 4.848094,-3.244373 0.141739,-0.354047 0.193851,-0.411004 0.34201,-0.373819 0.336349,0.08442 -0.339747,1.454377 -1.128623,2.286907 -1.085342,1.145401 -3.112596,1.906313 -4.53715,1.70298 z"
       id="path417" /><path
       style="display:inline;fill:#ff6600;stroke-width:0.0365899"
       d="m 29.584693,76.490722 c -1.209346,-0.101483 -2.147431,-0.38011 -3.672741,-1.090864 -2.426271,-1.130578 -4.807531,-0.790108 -5.055374,0.722815 -0.05432,0.331587 -0.382774,0.378594 -0.382774,0.05478 0,-0.643601 0.670429,-1.391827 1.483166,-1.655274 1.170139,-0.379298 2.41439,-0.201612 4.261451,0.60856 1.640749,0.719679 2.240309,0.895927 3.346491,0.983741 1.703492,0.13523 3.356388,-0.470539 4.149228,-1.520649 0.194139,-0.257135 0.272695,-0.30203 0.391862,-0.223948 0.142993,0.09369 0.11167,0.202122 -0.144227,0.499284 -1.000935,1.162338 -2.635086,1.767733 -4.377082,1.621553 z"
       id="path415-0-1" /><path
       style="display:none;fill:#000000;stroke-width:0.0365899"
       d="M 27.842915,80.188333 C 26.868172,80.067446 26.15193,79.832301 24.915721,79.227325 24.203954,78.879 23.735891,78.709573 23.378945,78.67105 c -0.268469,-0.02897 -0.32931,-0.06297 -0.32931,-0.184038 0,-0.366574 0.72043,-0.218964 2.049036,0.419831 1.546954,0.743778 2.219852,0.925833 3.461105,0.936415 0.803765,0.0069 0.819915,0.0101 0.819915,0.164974 0,0.189797 -0.749933,0.277685 -1.536776,0.180101 z"
       id="path310" /><text
       xml:space="preserve"
       style="font-size:4.23333px;font-family:Comfortaa;-inkscape-font-specification:Comfortaa;text-align:center;text-anchor:middle;fill:#000000;stroke-width:0.231869"
       x="26.829653"
       y="78.886688"
       id="text1665"><tspan
         sodipodi:role="line"
         id="tspan1663"
         style="font-size:4.23333px;fill:#000000;stroke-width:0.231869"
         x="26.829653"
         y="78.886688">home</tspan></text><text
       xml:space="preserve"
       transform="matrix(0.26458333,0,0,0.26458333,18.369534,65.53298)"
       id="text7908"
       style="font-size:16px;font-family:Comfortaa;-inkscape-font-specification:Comfortaa;text-align:center;white-space:pre;shape-inside:url(#rect7910);display:inline;fill:#ffe6d5;stroke:#000000;stroke-width:0.498898;stroke-dasharray:none;stroke-opacity:1" /></g></svg>
