<?xml version="1.0" encoding="UTF-8" standalone="no"?>
<!-- Created with Inkscape (http://www.inkscape.org/) -->

<svg
   width="16.189499mm"
   height="19.49634mm"
   viewBox="0 0 16.189499 19.49634"
   version="1.1"
   id="svg10065"
   xml:space="preserve"
   inkscape:version="1.2.2 (732a01da63, 2022-12-09)"
   sodipodi:docname="house.svg"
   xmlns:inkscape="http://www.inkscape.org/namespaces/inkscape"
   xmlns:sodipodi="http://sodipodi.sourceforge.net/DTD/sodipodi-0.dtd"
   xmlns="http://www.w3.org/2000/svg"
   xmlns:svg="http://www.w3.org/2000/svg"><sodipodi:namedview
     id="namedview10067"
     pagecolor="#ffffff"
     bordercolor="#000000"
     borderopacity="0.25"
     inkscape:showpageshadow="2"
     inkscape:pageopacity="0.0"
     inkscape:pagecheckerboard="0"
     inkscape:deskcolor="#d1d1d1"
     inkscape:document-units="mm"
     showgrid="false"
     inkscape:zoom="8.3553674"
     inkscape:cx="7.0613293"
     inkscape:cy="35.42633"
     inkscape:window-width="1920"
     inkscape:window-height="1009"
     inkscape:window-x="-8"
     inkscape:window-y="-8"
     inkscape:window-maximized="1"
     inkscape:current-layer="layer1" /><defs
     id="defs10062"><rect
       x="-22.500507"
       y="39.73494"
       width="112.7419"
       height="29.442154"
       id="rect9975" /></defs><g
     inkscape:label="Layer 1"
     inkscape:groupmode="layer"
     id="layer1"
     transform="translate(-44.501796,-86.591819)"><path
       style="display:inline;fill:#000000;stroke-width:0.0234294"
       d="m 54.475383,88.999176 c -0.145608,-8.42e-4 -0.204058,0.0058 -0.227938,0.02448 -0.03575,0.02706 -0.04344,0.08791 -0.05625,0.444206 l -0.01502,0.412953 0.337442,0.326647 c 0.185605,0.179649 0.384905,0.370468 0.442895,0.42407 0.05801,0.05359 0.113346,0.0977 0.123056,0.09807 0.01015,3.53e-4 0.01756,-0.377867 0.01756,-0.840402 0,-0.778567 -0.0026,-0.842269 -0.04099,-0.858622 -0.02252,-0.01015 -0.204421,-0.02222 -0.404158,-0.02793 -0.06989,-0.0015 -0.128126,-0.0028 -0.176628,-0.0028 z"
       id="path10908" /><path
       style="display:inline;fill:#000000;stroke-width:0.0234294"
       d="m 52.593778,86.59182 c -0.368013,-1.71e-4 -0.733814,0.01502 -0.905922,0.04531 -1.203251,0.212117 -2.113557,0.592028 -2.974524,1.241408 -0.650417,0.490569 -1.275692,1.181658 -1.682794,1.859933 -0.684615,1.140601 -0.975502,2.313193 -0.906202,3.653099 0.02996,0.580222 0.08104,0.883848 0.245298,1.460055 0.197844,0.693935 0.57745,1.43408 1.090302,2.125685 0.572885,0.77257 1.478709,1.478142 2.446907,1.906037 0.707581,0.31273 1.323388,0.47193 2.214466,0.5725 v 5e-5 c 0.224037,0.0253 1.081918,-0.009 1.386368,-0.0553 0.514896,-0.0784 0.994212,-0.19359 1.343217,-0.32273 0.925656,-0.34253 1.673848,-0.820004 2.356548,-1.5038 0.899503,-0.900954 1.48321,-1.991101 1.731874,-3.23458 0.34824,-1.741395 0.0446,-3.336071 -0.916913,-4.815903 -0.32793,-0.50472 -0.856686,-1.084907 -1.349495,-1.480741 -0.932889,-0.749325 -1.948884,-1.201066 -3.159902,-1.404957 -0.180981,-0.03053 -0.551217,-0.04583 -0.919228,-0.046 z m 0.0081,0.659485 c 0.58777,4.43e-4 0.686501,0.0056 0.9489,0.05533 1.232854,0.231018 2.367699,0.837271 3.234446,1.727961 0.807778,0.830083 1.37012,1.910707 1.568921,3.014752 0.02567,0.142355 0.04663,0.270369 0.04663,0.284535 0,0.01418 -0.07646,0.03805 -0.169886,0.0531 -0.36747,0.05914 -0.858479,0.275776 -1.187729,0.524097 -0.09733,0.07345 -0.372099,0.330476 -0.610497,0.571215 -0.238401,0.240736 -0.517796,0.501932 -0.620888,0.580422 -0.194332,0.147954 -0.475794,0.29363 -0.609038,0.31525 l -0.07671,0.01262 -0.01599,-0.547378 c -0.0089,-0.301051 -0.01277,-0.758256 -0.0087,-1.015978 l 0.0078,-0.468593 0.312742,-0.01193 0.3127,-0.01192 -0.793003,-0.772819 c -0.436165,-0.425052 -0.99338,-0.968346 -1.238219,-1.20732 -0.838102,-0.81804 -1.089131,-1.053718 -1.122521,-1.053896 -0.01204,-5.7e-5 -0.08553,0.06007 -0.164006,0.13364 -0.243872,0.228617 -2.279055,2.202328 -2.646416,2.566486 l -0.348609,0.345604 h 0.306867 0.306915 l 0.0058,0.439336 0.0058,0.439292 0.21085,0.0057 c 0.652554,0.01933 1.19479,0.183191 1.686943,0.509927 0.24392,0.16193 0.370857,0.271487 0.801163,0.691429 0.38761,0.378272 0.584248,0.5292 0.880453,0.675753 0.323328,0.159962 0.524261,0.200482 0.989366,0.199776 0.35536,-5.32e-4 0.42287,-0.0078 0.626127,-0.06221 0.518627,-0.140111 0.829398,-0.370687 1.444833,-1.072029 0.552725,-0.62987 0.957911,-0.881807 1.675554,-1.041865 l 0.06798,-0.01516 -0.0173,0.300077 c -0.01004,0.165039 -0.02967,0.382204 -0.0446,0.482585 l -0.02725,0.182507 -0.18761,0.07556 c -0.420548,0.169399 -0.643297,0.351754 -1.119147,0.91614 -0.207456,0.246048 -0.46459,0.532457 -0.571401,0.636468 -0.428594,0.41736 -0.899129,0.675539 -1.409928,0.773639 -0.215492,0.04141 -0.706345,0.03945 -0.944843,-0.0038 -0.508731,-0.09205 -0.907417,-0.334592 -1.425373,-0.867099 -0.101518,-0.104347 -0.168699,-0.172686 -0.245166,-0.250768 -2.4e-5,-3.5e-5 -6.4e-5,-6e-5 -8.7e-5,-9.1e-5 -0.01874,-0.02641 -0.04046,-0.05245 -0.06608,-0.07782 -0.542242,-0.537124 -0.560177,-0.552655 -0.811548,-0.703737 -0.374439,-0.225043 -0.983326,-0.233264 -1.403502,-0.23555 -0.02804,-1.76e-4 -0.056,1.77e-4 -0.08413,0.0011 -0.348888,0.01118 -0.83839,0.109319 -1.167676,0.274827 -0.214031,0.107586 -0.353896,0.201118 -0.477343,0.31917 -0.05553,0.03971 -0.09384,0.07484 -0.118362,0.106275 -0.03545,0.03266 -0.07402,0.06978 -0.115211,0.111566 -0.1277,0.13005 -0.339648,0.331131 -0.471007,0.446809 L 47.48406,95.814595 47.42688,95.714537 C 47.39544,95.659447 47.30682,95.49035 47.230114,95.338725 L 47.090579,95.063026 47.245013,94.9361 c 0.0849,-0.06985 0.205611,-0.179172 0.268183,-0.24307 l 0.113802,-0.116183 -0.160637,-0.133209 c -0.08829,-0.07332 -0.258166,-0.180897 -0.377408,-0.239197 -0.11924,-0.0583 -0.222501,-0.115222 -0.22944,-0.12641 -0.02533,-0.04097 -0.104175,-0.646932 -0.104244,-0.801208 l -8.7e-5,-0.158582 0.06443,0.0143 c 0.518888,0.115902 0.857916,0.300411 1.197345,0.65165 0.09472,0.09807 0.18029,0.178313 0.19007,0.178313 0.01027,0 0.05876,-0.03317 0.108875,-0.07363 0.05012,-0.04039 0.178457,-0.13042 0.285263,-0.19987 l 0.194218,-0.126261 -0.264485,-0.262936 c -0.145462,-0.144616 -0.344145,-0.322521 -0.441477,-0.395411 -0.338569,-0.253538 -0.763859,-0.44724 -1.12922,-0.514254 -0.136834,-0.02507 -0.158172,-0.0358 -0.158172,-0.07903 0,-0.06894 0.08303,-0.514701 0.128729,-0.690969 0.262984,-1.014892 0.909721,-2.090454 1.677824,-2.79019 0.827618,-0.753943 1.612565,-1.181815 2.633387,-1.435538 0.525348,-0.130579 0.657632,-0.144632 1.358939,-0.144085 z m 0.0098,4.024447 c 0.09869,0.0017 0.194261,0.02627 0.295611,0.07267 0.48509,0.222083 0.593236,0.830693 0.215137,1.21088 -0.05438,0.0546 -0.155861,0.125651 -0.225525,0.15772 -0.312231,0.143769 -0.657185,0.06733 -0.890067,-0.197275 -0.117506,-0.133477 -0.166465,-0.277376 -0.166465,-0.489239 0,-0.241237 0.05187,-0.37161 0.211349,-0.531248 0.112809,-0.112901 0.15832,-0.140745 0.302676,-0.184557 0.07562,-0.02297 0.146251,-0.03588 0.214721,-0.03864 0.01418,-5.29e-4 0.02847,-7.01e-4 0.04262,-3.56e-4 z m -2.254379,4.361797 c 0.208923,-0.0014 0.416312,0.01328 0.569299,0.04601 0.40783,0.08709 0.716015,0.217338 1.084382,0.486687 l 0.05438,0.05574 c 0.0047,-0.0028 0.0056,-0.0042 0.01118,-0.0078 0.188498,0.143406 0.39433,0.322879 0.638204,0.551758 0.3118,0.29263 0.448801,0.390563 0.731712,0.523139 0.340179,0.159415 0.503307,0.192078 0.960062,0.192078 0.33196,0 0.428267,-0.0084 0.578144,-0.04923 0.442015,-0.120961 0.714711,-0.282101 1.239817,-0.732533 0.451574,-0.387356 0.576756,-0.476002 0.876443,-0.620431 0.234766,-0.113164 0.569111,-0.234783 0.589445,-0.214452 0.01418,0.01418 -0.17651,0.29726 -0.413592,0.613324 -0.297132,0.396115 -0.560671,0.673371 -0.938462,0.987269 -0.406446,0.337699 -0.710151,0.537309 -1.135187,0.74611 -0.377041,0.185227 -0.632895,0.27901 -0.863231,0.316392 -0.312479,0.05067 -0.691495,0.0048 -0.990549,-0.119433 -0.31566,-0.131392 -0.505754,-0.277428 -1.004629,-0.77159 -0.542244,-0.537121 -0.560179,-0.552651 -0.811552,-0.703733 -0.710044,-0.426749 -1.570312,-0.455254 -2.322961,-0.07693 -0.21403,0.107586 -0.353895,0.201116 -0.477345,0.319172 -0.05352,0.05124 -0.107267,0.08928 -0.119361,0.08449 -0.0383,-0.01478 -0.544695,-0.552478 -0.544695,-0.578279 0,-0.02807 0.386523,-0.356878 0.597465,-0.508286 0.320437,-0.229993 0.6832,-0.387528 1.113225,-0.483495 0.159068,-0.03547 0.369492,-0.05445 0.578416,-0.05631 z m -0.124857,1.686496 c 0.316324,-0.008 0.63124,0.06275 0.923519,0.209981 0.251631,0.126747 0.408923,0.260519 0.910162,0.774278 l 0.471692,0.483493 -0.253638,-0.003 c -0.139562,-0.001 -0.25694,-0.006 -0.26089,-0.0103 -0.004,-0.003 -0.06081,-0.0129 -0.126247,-0.0206 -0.194529,-0.0231 -0.304616,-0.07443 -0.58457,-0.273049 -0.434851,-0.308491 -0.745557,-0.420953 -1.170733,-0.423852 -0.128841,-8.42e-4 -0.263368,0.0054 -0.298891,0.01482 -0.05136,0.013 -0.09942,-0.004 -0.234272,-0.08278 -0.259387,-0.151529 -0.462579,-0.284575 -0.462579,-0.302904 0,-0.03259 0.343521,-0.209273 0.520182,-0.26745 0.186184,-0.06127 0.376499,-0.09415 0.566291,-0.09869 z"
       id="path10839" /><text
       xml:space="preserve"
       transform="matrix(0.4108358,0,0,0.4108358,38.778982,83.84286)"
       id="text9973"
       style="font-size:16px;font-family:Comfortaa;-inkscape-font-specification:Comfortaa;text-align:center;white-space:pre;shape-inside:url(#rect9975);display:inline;fill:#000000;stroke-width:0.498898"><tspan
         x="13.570312"
         y="54.146446"
         id="tspan10968">Home</tspan></text></g></svg>
