<?xml version="1.0" encoding="UTF-8" standalone="no"?>
<!-- Created with Inkscape (http://www.inkscape.org/) -->

<svg
   width="83.149612"
   height="110.84863"
   viewBox="0 0 22.000003 29.328688"
   version="1.1"
   id="svg1563"
   xml:space="preserve"
   inkscape:version="1.2.2 (732a01da63, 2022-12-09)"
   sodipodi:docname="logo.svg"
   xmlns:inkscape="http://www.inkscape.org/namespaces/inkscape"
   xmlns:sodipodi="http://sodipodi.sourceforge.net/DTD/sodipodi-0.dtd"
   xmlns="http://www.w3.org/2000/svg"
   xmlns:svg="http://www.w3.org/2000/svg"><sodipodi:namedview
     id="namedview1565"
     pagecolor="#ffffff"
     bordercolor="#000000"
     borderopacity="0.25"
     inkscape:showpageshadow="2"
     inkscape:pageopacity="0.0"
     inkscape:pagecheckerboard="0"
     inkscape:deskcolor="#d1d1d1"
     inkscape:document-units="mm"
     showgrid="false"
     inkscape:zoom="4.1776837"
     inkscape:cx="-56.490634"
     inkscape:cy="34.229494"
     inkscape:window-width="1920"
     inkscape:window-height="1009"
     inkscape:window-x="-8"
     inkscape:window-y="-8"
     inkscape:window-maximized="1"
     inkscape:current-layer="layer1" /><defs
     id="defs1560" /><g
     inkscape:label="Layer 1"
     inkscape:groupmode="layer"
     id="layer1"
     transform="translate(-75.613082,-77.644799)"><path
       style="fill:#d45500;stroke-width:0.0496842"
       d="m 86.021715,106.95208 c -0.816679,-0.04 -1.964523,-0.2358 -2.250841,-0.38385 -0.308419,-0.15949 -0.391076,-0.65221 -0.152091,-0.9066 0.190649,-0.20293 0.342965,-0.20976 1.359557,-0.061 0.519204,0.076 1.070369,0.13919 1.224813,0.14044 0.26083,0.002 0.287722,-0.009 0.378062,-0.15134 l 0.09726,-0.1536 -0.2398,-0.22431 c -0.319252,-0.29862 -0.481869,-0.58917 -0.572184,-1.02232 -0.237061,-1.13695 0.545211,-2.12702 1.862673,-2.35748 0.458651,-0.0802 0.668483,-0.0775 3.200372,0.0421 l 1.330536,0.0628 0.03025,0.12056 c 0.01666,0.0663 0.01758,0.33584 0.0021,0.59896 -0.03108,0.52806 -0.149876,0.93526 -0.382684,1.31161 -0.183456,0.29657 -0.136245,0.27253 0.553641,-0.28184 0.521822,-0.41932 1.390206,-1.33481 1.771872,-1.86798 0.451658,-0.63096 1.193619,-1.888262 1.11403,-1.887805 -0.02014,1.05e-4 -0.137201,0.06844 -0.260172,0.151825 -1.112096,0.7541 -2.380092,1.00307 -4.521282,0.88773 -1.31869,-0.071 -2.789875,-0.059 -3.3537,0.0274 -2.117882,0.32465 -3.744196,1.25685 -4.751428,2.72351 -0.265419,0.38648 -0.68902,1.19208 -0.68902,1.31036 0,0.0239 -0.0687,0.12682 -0.152669,0.22868 -0.128089,0.15539 -0.183507,0.18522 -0.344185,0.18522 -0.39218,0 -0.505199,-0.4071 -0.279493,-1.00674 0.879024,-2.33535 3.141818,-3.95805 6.047508,-4.3368 0.463691,-0.0604 1.078761,-0.0724 3.154962,-0.0611 l 2.578978,0.0139 0.447162,-0.139383 c 0.870157,-0.271231 1.36,-0.564504 1.971663,-1.180441 0.315561,-0.317762 0.425185,-0.473606 0.632132,-0.898628 0.395787,-0.812868 0.473951,-1.211257 0.471304,-2.4022 -0.0025,-1.088114 -0.09005,-1.734384 -0.371218,-2.737582 -0.566023,-2.01935 -1.980141,-4.024656 -3.78618,-5.368906 -0.572728,-0.426282 -0.902251,-0.627102 -1.675216,-1.020918 -0.314252,-0.160106 -0.632056,-0.347373 -0.706227,-0.416149 -0.260494,-0.241545 -0.226667,-0.660883 0.07038,-0.872397 0.257537,-0.18338 0.572128,-0.11654 1.394014,0.296179 1.286778,0.646172 2.290605,1.377476 3.207395,2.336646 2.173539,2.274013 3.302425,5.240872 3.168394,8.326968 -0.07809,1.798195 -0.437901,3.221259 -1.219237,4.822171 -0.555424,1.13802 -1.259507,2.11945 -2.173049,3.02903 -1.870202,1.86208 -4.119535,2.88252 -6.846943,3.1062 -0.575794,0.0472 -0.695329,0.0487 -1.341477,0.017 z"
       id="path1710" /><path
       style="fill:#d45500;stroke-width:0.0496842"
       d="m 92.627736,97.903234 c -0.368923,-0.178238 -0.676531,-0.514304 -0.821056,-0.897022 -0.268547,-0.711137 0.07257,-1.56867 0.770227,-1.936197 0.221391,-0.116643 0.308199,-0.132537 0.723577,-0.132537 0.415374,0 0.502183,0.0159 0.723574,0.132537 0.301053,0.158601 0.590181,0.465642 0.73455,0.78007 0.07976,0.17372 0.105314,0.326469 0.104924,0.627131 -8.39e-4,0.49119 -0.135015,0.826722 -0.445845,1.113234 -0.346224,0.319138 -0.584858,0.417241 -1.067529,0.438862 -0.3857,0.01728 -0.448336,0.0064 -0.722428,-0.126075 z"
       id="path1720" /><path
       style="fill:#000000;stroke-width:0.0496842"
       d="m 85.776109,99.173964 c -0.06924,-0.09885 -0.07734,-0.965593 -0.07734,-8.272455 V 82.739476 H 85.36895 c -0.314858,0 -0.339437,0.0088 -0.542068,0.195651 -0.354586,0.326847 -0.785974,0.316978 -1.045995,-0.02394 -0.182131,-0.238785 -0.201974,-0.491999 -0.06018,-0.767937 0.229647,-0.446898 0.749037,-0.521323 1.120632,-0.16058 0.17521,0.170101 0.206533,0.181368 0.509633,0.18333 l 0.322951,0.0021 V 81.646414 81.12473 l -0.313601,-0.01485 c -0.290283,-0.01376 -0.32671,-0.0034 -0.489942,0.13996 -0.29359,0.257777 -0.583596,0.316412 -0.859437,0.173767 -0.456245,-0.235933 -0.471852,-0.955485 -0.02705,-1.246936 0.269913,-0.176854 0.748856,-0.05559 0.911822,0.230858 0.07928,0.139356 0.09708,0.145236 0.440352,0.145534 l 0.357735,3.03e-4 0.0149,-0.285689 0.0149,-0.285686 0.187932,0.0058 c 0.184244,0.0057 0.185707,0.0045 0.07452,-0.06972 -0.524126,-0.349102 -0.745531,-0.906341 -0.567596,-1.428551 0.112473,-0.330094 0.275495,-0.523665 0.584847,-0.694441 0.805399,-0.44462 1.841815,0.15306 1.841815,1.062139 0,0.156411 -0.03296,0.363304 -0.07328,0.459763 -0.09705,0.232275 -0.370223,0.538461 -0.556786,0.624086 l -0.149978,0.06883 0.163508,-0.03079 c 0.230905,-0.04346 0.308492,0.04002 0.308492,0.331909 v 0.242338 h 0.369285 c 0.322888,0 0.373164,-0.01221 0.400133,-0.09719 0.06007,-0.18931 0.314179,-0.349974 0.553502,-0.349974 0.367186,0 0.649282,0.213692 0.731468,0.554098 0.157186,0.651052 -0.748081,1.097014 -1.221726,0.601862 -0.123243,-0.128843 -0.153478,-0.136391 -0.483753,-0.120866 l -0.352293,0.01656 0.01413,0.505123 0.0141,0.505122 0.351329,0.01443 c 0.334384,0.01372 0.354101,0.0083 0.408882,-0.111901 0.07578,-0.166334 0.341644,-0.324415 0.545986,-0.32465 0.267972,-2.94e-4 0.532838,0.167018 0.651102,0.411315 0.130956,0.270522 0.130692,0.34788 -0.0021,0.622241 -0.08247,0.170357 -0.156639,0.242548 -0.326294,0.317594 -0.312822,0.138376 -0.564399,0.08729 -0.80841,-0.16414 -0.180964,-0.186467 -0.199745,-0.193504 -0.516556,-0.193504 h -0.328759 v 8.046536 c 0,5.791329 -0.01547,8.08047 -0.05517,8.167608 -0.106016,0.232692 -0.415684,0.2677 -0.552714,0.06249 -0.02009,-0.03008 -0.03682,-3.481032 -0.03725,-7.668802 -8.38e-4,-7.547379 -0.0017,-7.615011 -0.10013,-7.713508 -0.05466,-0.05466 -0.132907,-0.09936 -0.173893,-0.09936 -0.04098,0 -0.119242,0.04471 -0.173896,0.09936 -0.09851,0.09851 -0.09936,0.165617 -0.09936,7.728393 0,8.481504 0.0227,7.922201 -0.321407,7.922201 -0.119151,0 -0.192877,-0.03292 -0.247148,-0.11042 z"
       id="path1718" /><path
       style="fill:#000000;stroke-width:0.0496842"
       d="m 90.010033,99.396467 -0.433598,-0.01656 -0.22567,-0.316245 C 89.090758,98.699298 88.890136,98.277713 88.709613,97.716371 88.425991,96.83444 88.43141,96.936049 88.43141,92.499202 c 0,-4.729068 -0.07734,-4.23225 0.604768,-3.885197 0.837824,0.426293 1.600345,1.369169 1.80319,2.229685 0.102885,0.436467 0.0944,1.120623 -0.02059,1.658762 -0.05255,0.245936 -0.130541,0.607993 -0.173318,0.804568 -0.109277,0.502157 -0.04552,0.789172 0.223305,1.005208 0.217386,0.174693 0.250818,0.325727 0.108965,0.492228 -0.105015,0.12327 -0.169493,0.135562 -0.459582,0.08765 -0.273127,-0.04511 -0.424803,0.0081 -0.634535,0.222622 -0.633612,0.648073 -0.408626,2.370545 0.428968,3.28413 0.404444,0.44114 0.881914,0.62225 1.21889,0.462345 0.328579,-0.15592 0.639248,0.05314 0.525107,0.353355 -0.02978,0.07828 -0.08067,0.159208 -0.113109,0.17984 -0.05653,0.0359 -1.018465,0.03699 -1.933442,0.0021 z"
       id="path1716" /><path
       style="fill:#000000;stroke-width:0.0496842"
       d="m 79.612422,104.30449 c -0.123893,-0.0512 -1.011174,-0.95012 -1.405361,-1.4238 -0.995377,-1.19612 -1.828197,-2.86599 -2.241942,-4.495264 -0.720821,-2.83852 -0.325906,-5.834986 1.103958,-8.376434 0.933758,-1.659665 2.220414,-3.040001 3.845094,-4.125062 0.763271,-0.509757 1.580076,-0.916092 1.904102,-0.94723 0.462486,-0.04446 0.733417,0.192842 0.679465,0.595085 -0.04163,0.310321 -0.150057,0.415822 -0.734751,0.714904 -1.631293,0.83442 -2.911289,1.954872 -3.985594,3.48881 -0.523094,0.746894 -0.846205,1.340514 -1.148494,2.110023 -0.413544,1.052715 -0.64871,2.177352 -0.707282,3.382443 -0.09653,1.986104 0.532469,4.224856 1.677818,5.971705 0.324022,0.49418 0.938825,1.26165 1.227365,1.53213 l 0.152968,0.14339 0.03019,-0.14339 c 0.151388,-0.71885 0.538297,-1.66058 1.038238,-2.52705 0.243739,-0.422432 0.287534,-0.664434 0.15254,-0.84291 -0.07716,-0.102015 -0.09382,-0.263351 -0.04133,-0.400145 0.05376,-0.140092 0.251935,-0.183032 0.48287,-0.104626 0.588779,0.199893 1.253171,-0.264625 1.698345,-1.187424 0.55441,-1.149232 0.470495,-2.338607 -0.191239,-2.710525 -0.163727,-0.09202 -0.236214,-0.10256 -0.506548,-0.0736 -0.278925,0.02991 -0.327404,0.02185 -0.418417,-0.06916 -0.161477,-0.161476 -0.131323,-0.323873 0.09373,-0.504719 0.157199,-0.126336 0.207807,-0.209053 0.252199,-0.412237 0.04957,-0.226844 0.03868,-0.326381 -0.101131,-0.924938 -0.20018,-0.857009 -0.242802,-1.535759 -0.128661,-2.04882 0.162267,-0.729353 0.570429,-1.37539 1.187131,-1.878993 0.308349,-0.251795 1.035485,-0.643153 1.194968,-0.643153 0.07949,0 0.08367,0.264662 0.0663,4.185912 -0.01631,3.679834 -0.02849,4.227909 -0.100806,4.533281 -0.197112,0.832292 -0.515495,1.600077 -0.911086,2.197099 -0.248885,0.375617 -0.665548,0.792128 -1.307782,1.307298 -1.077266,0.86414 -1.811583,1.79109 -2.291746,2.89296 -0.382162,0.87697 -0.372761,0.86392 -0.565108,0.78444 z"
       id="path1714" /></g></svg>
