<?xml version="1.0" encoding="UTF-8" standalone="no"?>
<!-- Created with Inkscape (http://www.inkscape.org/) -->

<svg
   width="15.642187mm"
   height="3.704932mm"
   viewBox="0 0 15.642187 3.704932"
   version="1.1"
   id="svg5894"
   inkscape:version="1.2.2 (732a01da63, 2022-12-09)"
   sodipodi:docname="logo-text.svg"
   xmlns:inkscape="http://www.inkscape.org/namespaces/inkscape"
   xmlns:sodipodi="http://sodipodi.sourceforge.net/DTD/sodipodi-0.dtd"
   xmlns="http://www.w3.org/2000/svg"
   xmlns:svg="http://www.w3.org/2000/svg">
  <sodipodi:namedview
     id="namedview5896"
     pagecolor="#ffffff"
     bordercolor="#000000"
     borderopacity="0.25"
     inkscape:showpageshadow="2"
     inkscape:pageopacity="0.0"
     inkscape:pagecheckerboard="0"
     inkscape:deskcolor="#d1d1d1"
     inkscape:document-units="mm"
     showgrid="false"
     inkscape:zoom="4.1776837"
     inkscape:cx="-39.13652"
     inkscape:cy="30.399621"
     inkscape:window-width="1920"
     inkscape:window-height="1009"
     inkscape:window-x="-8"
     inkscape:window-y="-8"
     inkscape:window-maximized="1"
     inkscape:current-layer="layer1" />
  <defs
     id="defs5891">
    <rect
       x="-26.912037"
       y="12.186583"
       width="89.199013"
       height="30.466457"
       id="rect272" />
    <rect
       x="-14.556196"
       y="10.832518"
       width="60.594398"
       height="33.85162"
       id="rect6111" />
  </defs>
  <g
     inkscape:label="Layer 1"
     inkscape:groupmode="layer"
     id="layer1"
     transform="translate(-143.8175,-190.19678)">
    <g
       aria-label="Classicus"
       id="text278"
       style="font-size:3.87951px;line-height:0;font-family:BPreplay;-inkscape-font-specification:BPreplay;text-align:center;text-anchor:middle;display:inline;stroke-width:0.223818;fill:#000000">
      <path
         d="m 145.97451,193.38962 q 0,0.22113 -0.1513,0.36467 -0.14742,0.14742 -0.36467,0.14742 -0.69056,0 -1.16774,-0.47718 -0.4733,-0.4733 -0.4733,-1.16385 0,-0.097 0.0116,-0.19398 -0.0116,-0.097 -0.0116,-0.19397 0,-0.69055 0.4733,-1.16386 0.47718,-0.47717 1.16774,-0.47717 0.22113,0 0.36855,0.14742 0.14742,0.14354 0.14742,0.36467 0,0.10087 -0.0349,0.19398 0.0349,0.0931 0.0349,0.19397 0,0.22113 -0.14742,0.36855 -0.14742,0.14743 -0.36468,0.14743 -0.21337,0 -0.37243,0.11638 -0.15518,0.11251 -0.21725,0.3026 0.0621,0.1901 0.21725,0.30648 0.15906,0.11251 0.37243,0.11251 0.21726,0 0.36468,0.14742 0.14742,0.14742 0.14742,0.36856 0,0.10474 -0.0349,0.19397 0.0349,0.0931 0.0349,0.19398 z m -0.25217,-0.38795 q 0,-0.11639 -0.0737,-0.1901 -0.0737,-0.0737 -0.19009,-0.0737 -0.36856,0 -0.61685,-0.24829 -0.24829,-0.24829 -0.24829,-0.61684 0,-0.36856 0.24829,-0.61684 0.24829,-0.24829 0.61685,-0.24829 0.11638,0 0.19009,-0.0737 0.0737,-0.0737 0.0737,-0.1901 0,-0.11638 -0.0737,-0.18622 -0.0737,-0.0737 -0.19009,-0.0737 -0.58581,0 -0.98928,0.40347 -0.39959,0.39959 -0.39959,0.9854 0,0.5858 0.39959,0.98927 0.40347,0.39959 0.98928,0.39959 0.11638,0 0.19009,-0.0698 0.0737,-0.0737 0.0737,-0.19009 z"
         style="font-family:'Alba Super';-inkscape-font-specification:'Alba Super';fill:#000000"
         id="path45771" />
      <path
         d="m 146.88231,193.38186 q 0,0.22113 -0.1513,0.36467 -0.14742,0.14742 -0.36467,0.14742 -0.22113,0 -0.36855,-0.14742 -0.14355,-0.14354 -0.14355,-0.36467 v -2.63031 q 0,-0.22113 0.14355,-0.36467 0.14742,-0.14743 0.36855,-0.14743 0.23665,0 0.37631,0.13967 0.13966,0.13578 0.13966,0.37243 z m -0.25216,-0.38795 v -2.24236 q 0,-0.25993 -0.26381,-0.25993 -0.11639,0 -0.1901,0.0737 -0.0698,0.0698 -0.0698,0.18622 v 2.24236 q 0,0.11638 0.0698,0.19009 0.0737,0.0698 0.1901,0.0698 0.11638,0 0.1901,-0.0698 0.0737,-0.0737 0.0737,-0.19009 z"
         style="font-family:'Alba Super';-inkscape-font-specification:'Alba Super';fill:#000000"
         id="path45773" />
      <path
         d="m 149.23718,193.38186 q 0,0.22113 -0.1513,0.36467 -0.14742,0.14742 -0.36468,0.14742 -0.21725,0 -0.36079,-0.13966 -0.14742,0.14742 -0.36855,0.14742 -0.52762,0 -0.88453,-0.36079 -0.35692,-0.35692 -0.35692,-0.88453 0,-0.097 0.0155,-0.19398 -0.0155,-0.097 -0.0155,-0.19397 0,-0.52762 0.35692,-0.88453 0.35691,-0.35692 0.88453,-0.35692 0.52761,0 0.88453,0.3608 0.36079,0.35691 0.36079,0.88065 z m -0.25217,-0.38795 v -0.72547 q 0,-0.42287 -0.28708,-0.70607 -0.28321,-0.28321 -0.70607,-0.28321 -0.42287,0 -0.70607,0.28321 -0.28321,0.2832 -0.28321,0.70607 0,0.42286 0.28321,0.70995 0.2832,0.2832 0.70607,0.2832 0.11638,0 0.19009,-0.0737 0.0737,-0.0737 0.0737,-0.19009 0,-0.11639 -0.0737,-0.18622 -0.0737,-0.0737 -0.19009,-0.0737 -0.19398,0 -0.32976,-0.13578 -0.13578,-0.13967 -0.13578,-0.33364 0,-0.19398 0.13578,-0.32976 0.13578,-0.13578 0.32976,-0.13578 0.19397,0 0.32976,0.13578 0.13966,0.13578 0.13966,0.32976 v 0.72547 q 0,0.11638 0.0698,0.19009 0.0737,0.0698 0.19009,0.0698 0.11639,0 0.1901,-0.0698 0.0737,-0.0737 0.0737,-0.19009 z m -0.83409,-0.48494 q -0.066,-0.066 -0.15906,-0.066 -0.0504,0 -0.0931,0.0194 0.0388,0.0194 0.12026,0.0272 0.097,0.008 0.13191,0.0194 z"
         style="font-family:'Alba Super';-inkscape-font-specification:'Alba Super';fill:#000000"
         id="path45775" />
      <path
         d="m 151.14202,191.92704 q 0,0.20949 -0.13967,0.35304 -0.13578,0.14354 -0.34527,0.15906 0,-0.004 -0.008,-0.0155 -0.008,-0.0116 -0.008,-0.0155 -0.004,0.097 -0.004,0.24441 v 0.0737 q 0,0.29096 -0.0427,0.44614 -0.0621,0.22889 -0.25217,0.42287 -0.29485,0.29484 -0.71771,0.29484 -0.22113,0 -0.36856,-0.14742 -0.14354,-0.14354 -0.14354,-0.36467 0,-0.10087 0.0349,-0.19398 -0.0349,-0.0931 -0.0349,-0.19397 0,-0.21726 0.13967,-0.36468 0.14354,-0.14742 0.36079,-0.1513 v -0.0465 q 0,-0.0427 0.004,-0.0892 -0.004,-0.0504 -0.004,-0.0854 v -0.21337 q 0,-0.42675 0.29096,-0.71771 0.29485,-0.29485 0.72159,-0.29485 0.22113,0 0.36856,0.14743 0.14742,0.14354 0.14742,0.36467 0,0.10475 -0.0349,0.19398 0.0349,0.0892 0.0349,0.19397 z m -0.25217,-0.38795 q 0,-0.11639 -0.0737,-0.18622 -0.0737,-0.0737 -0.1901,-0.0737 -0.322,0 -0.54313,0.22113 -0.21725,0.21726 -0.21725,0.53926 v 0.21337 q 0,0.0272 -0.004,0.15906 0,0 0,0.0776 0,0.10087 -0.0698,0.1707 -0.066,0.066 -0.16682,0.066 -0.11639,0 -0.1901,0.0737 -0.0698,0.0737 -0.0698,0.1901 0,0.11638 0.0698,0.19009 0.0737,0.0698 0.1901,0.0698 0.31812,0 0.53537,-0.22113 0.22113,-0.22113 0.22501,-0.53925 l 0.004,-0.45002 q 0,-0.0582 0.008,-0.0854 0.0116,-0.031 0.0621,-0.0815 0.0504,-0.0504 0.17458,-0.0698 0.12802,-0.0233 0.1901,-0.0854 0.0659,-0.0659 0.0659,-0.17846 z"
         style="font-family:'Alba Super';-inkscape-font-specification:'Alba Super';fill:#000000"
         id="path45777" />
      <path
         d="m 153.01194,191.92704 q 0,0.20949 -0.13966,0.35304 -0.13578,0.14354 -0.34528,0.15906 0,-0.004 -0.008,-0.0155 -0.008,-0.0116 -0.008,-0.0155 -0.004,0.097 -0.004,0.24441 v 0.0737 q 0,0.29096 -0.0427,0.44614 -0.0621,0.22889 -0.25217,0.42287 -0.29484,0.29484 -0.71771,0.29484 -0.22113,0 -0.36855,-0.14742 -0.14354,-0.14354 -0.14354,-0.36467 0,-0.10087 0.0349,-0.19398 -0.0349,-0.0931 -0.0349,-0.19397 0,-0.21726 0.13966,-0.36468 0.14354,-0.14742 0.36079,-0.1513 v -0.0465 q 0,-0.0427 0.004,-0.0892 -0.004,-0.0504 -0.004,-0.0854 v -0.21337 q 0,-0.42675 0.29097,-0.71771 0.29484,-0.29485 0.72159,-0.29485 0.22113,0 0.36855,0.14743 0.14742,0.14354 0.14742,0.36467 0,0.10475 -0.0349,0.19398 0.0349,0.0892 0.0349,0.19397 z m -0.25217,-0.38795 q 0,-0.11639 -0.0737,-0.18622 -0.0737,-0.0737 -0.19009,-0.0737 -0.322,0 -0.54313,0.22113 -0.21726,0.21726 -0.21726,0.53926 v 0.21337 q 0,0.0272 -0.004,0.15906 0,0 0,0.0776 0,0.10087 -0.0698,0.1707 -0.0659,0.066 -0.16682,0.066 -0.11638,0 -0.19009,0.0737 -0.0698,0.0737 -0.0698,0.1901 0,0.11638 0.0698,0.19009 0.0737,0.0698 0.19009,0.0698 0.31812,0 0.53538,-0.22113 0.22113,-0.22113 0.22501,-0.53925 l 0.004,-0.45002 q 0,-0.0582 0.008,-0.0854 0.0116,-0.031 0.0621,-0.0815 0.0504,-0.0504 0.17458,-0.0698 0.12802,-0.0233 0.19009,-0.0854 0.066,-0.0659 0.066,-0.17846 z"
         style="font-family:'Alba Super';-inkscape-font-specification:'Alba Super';fill:#000000"
         id="path45779" />
      <path
         d="m 153.93915,191.1589 q 0,0.14742 -0.066,0.27156 0.008,0.0504 0.008,0.10863 v 1.84277 q 0,0.22113 -0.1513,0.36467 -0.14742,0.14742 -0.36467,0.14742 -0.22113,0 -0.36856,-0.14742 -0.14354,-0.14354 -0.14354,-0.36467 v -1.84277 q 0,-0.0543 0.008,-0.10475 -0.0698,-0.12802 -0.0698,-0.27544 0,-0.10087 0.0349,-0.19398 -0.0349,-0.0931 -0.0349,-0.19397 0,-0.23665 0.16682,-0.40347 0.1707,-0.1707 0.40735,-0.1707 0.23665,0 0.40347,0.1707 0.1707,0.16682 0.1707,0.40347 0,0.10086 -0.0349,0.19397 0.0349,0.0931 0.0349,0.19398 z m -0.25217,-0.38795 q 0,-0.13191 -0.097,-0.22501 -0.0931,-0.097 -0.22501,-0.097 -0.13191,0 -0.22889,0.097 -0.0931,0.0931 -0.0931,0.22501 0,0.1319 0.0931,0.22889 0.097,0.0931 0.22889,0.0931 0.1319,0 0.22501,-0.0931 0.097,-0.097 0.097,-0.22889 z m -0.0582,2.22296 v -1.45482 q 0,-0.25993 -0.2638,-0.25993 -0.11639,0 -0.1901,0.0737 -0.0698,0.0698 -0.0698,0.18622 v 1.45482 q 0,0.11638 0.0698,0.19009 0.0737,0.0698 0.1901,0.0698 0.11638,0 0.19009,-0.0698 0.0737,-0.0737 0.0737,-0.19009 z"
         style="font-family:'Alba Super';-inkscape-font-specification:'Alba Super';fill:#000000"
         id="path45781" />
      <path
         d="m 155.51035,193.38186 q 0,0.22113 -0.1513,0.36467 -0.14742,0.14742 -0.36468,0.14742 -0.52373,0 -0.88452,-0.36079 -0.35692,-0.35692 -0.35692,-0.88065 0,-0.097 0.0155,-0.19398 -0.0155,-0.097 -0.0155,-0.19397 0,-0.52761 0.35692,-0.88453 0.35691,-0.36079 0.88452,-0.36079 0.22114,0 0.36856,0.14742 0.14742,0.14742 0.14742,0.36855 0,0.10087 -0.0349,0.19398 0.0349,0.0931 0.0349,0.19397 0,0.22113 -0.14742,0.36855 -0.14742,0.14355 -0.36856,0.14355 -0.0504,0 -0.0931,0.0233 0.0427,0.0194 0.0931,0.0194 0.22114,0 0.36856,0.14742 0.14742,0.14742 0.14742,0.36856 0,0.10474 -0.0349,0.19397 0.0349,0.0931 0.0349,0.19398 z m -0.25217,-0.38795 q 0,-0.11639 -0.0737,-0.1901 -0.0737,-0.0737 -0.1901,-0.0737 -0.19397,0 -0.32975,-0.13578 -0.13579,-0.13579 -0.13579,-0.32976 0,-0.19398 0.13579,-0.32976 0.13578,-0.13966 0.32975,-0.13966 0.11639,0 0.1901,-0.0698 0.0737,-0.0737 0.0737,-0.1901 0,-0.11638 -0.0737,-0.1901 -0.0737,-0.0737 -0.1901,-0.0737 -0.42286,0 -0.70607,0.28709 -0.2832,0.2832 -0.2832,0.70607 0,0.41899 0.2832,0.70607 0.28709,0.2832 0.70607,0.2832 0.11639,0 0.1901,-0.0698 0.0737,-0.0737 0.0737,-0.19009 z"
         style="font-family:'Alba Super';-inkscape-font-specification:'Alba Super';fill:#000000"
         id="path45783" />
      <path
         d="m 157.55485,192.80381 q 0,0.45778 -0.31424,0.77202 -0.31424,0.31812 -0.77202,0.31812 -0.46166,0 -0.7759,-0.31424 -0.31424,-0.31424 -0.31424,-0.7759 v -1.25696 q 0,-0.22113 0.14354,-0.36855 0.14742,-0.14743 0.36855,-0.14743 0.22114,0 0.36856,0.14743 0.14742,0.14742 0.14742,0.36855 v 0.86901 q 0,0.0621 0.0621,0.0621 0.0582,0 0.0582,-0.0621 v -0.87677 q 0,-0.22113 0.14742,-0.36467 0.14743,-0.14743 0.36856,-0.14743 0.22113,0 0.36467,0.14743 0.14742,0.14354 0.14742,0.36467 z m -0.25217,-0.38795 v -0.87677 q 0,-0.11639 -0.0737,-0.18622 -0.0698,-0.0737 -0.18621,-0.0737 -0.11639,0 -0.1901,0.0737 -0.0737,0.0698 -0.0737,0.18622 v 0.87677 q 0,0.1319 -0.0892,0.22501 -0.0892,0.0892 -0.22113,0.0892 -0.1319,0 -0.22501,-0.0892 -0.0892,-0.0931 -0.0892,-0.22501 v -0.86901 q 0,-0.11639 -0.0737,-0.1901 -0.0737,-0.0737 -0.1901,-0.0737 -0.11638,0 -0.19009,0.0737 -0.0698,0.0737 -0.0698,0.1901 v 0.86901 q 0,0.36079 0.23665,0.60132 0.24053,0.23665 0.60132,0.23665 0.35692,0 0.59357,-0.24053 0.24052,-0.24053 0.24052,-0.59744 z"
         style="font-family:'Alba Super';-inkscape-font-specification:'Alba Super';fill:#000000"
         id="path45785" />
      <path
         d="m 159.45969,191.92704 q 0,0.20949 -0.13966,0.35304 -0.13579,0.14354 -0.34528,0.15906 0,-0.004 -0.008,-0.0155 -0.008,-0.0116 -0.008,-0.0155 -0.004,0.097 -0.004,0.24441 v 0.0737 q 0,0.29096 -0.0427,0.44614 -0.0621,0.22889 -0.25217,0.42287 -0.29484,0.29484 -0.71771,0.29484 -0.22113,0 -0.36855,-0.14742 -0.14354,-0.14354 -0.14354,-0.36467 0,-0.10087 0.0349,-0.19398 -0.0349,-0.0931 -0.0349,-0.19397 0,-0.21726 0.13966,-0.36468 0.14354,-0.14742 0.36079,-0.1513 v -0.0465 q 0,-0.0427 0.004,-0.0892 -0.004,-0.0504 -0.004,-0.0854 v -0.21337 q 0,-0.42675 0.29097,-0.71771 0.29484,-0.29485 0.72158,-0.29485 0.22114,0 0.36856,0.14743 0.14742,0.14354 0.14742,0.36467 0,0.10475 -0.0349,0.19398 0.0349,0.0892 0.0349,0.19397 z m -0.25217,-0.38795 q 0,-0.11639 -0.0737,-0.18622 -0.0737,-0.0737 -0.1901,-0.0737 -0.32199,0 -0.54313,0.22113 -0.21725,0.21726 -0.21725,0.53926 v 0.21337 q 0,0.0272 -0.004,0.15906 0,0 0,0.0776 0,0.10087 -0.0698,0.1707 -0.066,0.066 -0.16682,0.066 -0.11638,0 -0.1901,0.0737 -0.0698,0.0737 -0.0698,0.1901 0,0.11638 0.0698,0.19009 0.0737,0.0698 0.1901,0.0698 0.31812,0 0.53537,-0.22113 0.22114,-0.22113 0.22501,-0.53925 l 0.004,-0.45002 q 0,-0.0582 0.008,-0.0854 0.0116,-0.031 0.0621,-0.0815 0.0504,-0.0504 0.17457,-0.0698 0.12803,-0.0233 0.1901,-0.0854 0.0659,-0.0659 0.0659,-0.17846 z"
         style="font-family:'Alba Super';-inkscape-font-specification:'Alba Super';fill:#000000"
         id="path45787" />
    </g>
  </g>
</svg>
