<?xml version="1.0" encoding="UTF-8" standalone="no"?>
<!-- Created with Inkscape (http://www.inkscape.org/) -->

<svg
   width="64"
   height="64.37175"
   viewBox="0 0 16.933333 17.031692"
   version="1.1"
   id="svg5"
   xml:space="preserve"
   sodipodi:docname="playbutton.svg"
   inkscape:export-filename="playbutton.png"
   inkscape:export-xdpi="95.62574"
   inkscape:export-ydpi="95.62574"
   inkscape:version="1.2.2 (732a01da63, 2022-12-09)"
   xmlns:inkscape="http://www.inkscape.org/namespaces/inkscape"
   xmlns:sodipodi="http://sodipodi.sourceforge.net/DTD/sodipodi-0.dtd"
   xmlns="http://www.w3.org/2000/svg"
   xmlns:svg="http://www.w3.org/2000/svg"><sodipodi:namedview
     id="namedview7"
     pagecolor="#ffffff"
     bordercolor="#000000"
     borderopacity="0.25"
     inkscape:showpageshadow="2"
     inkscape:pageopacity="0.0"
     inkscape:pagecheckerboard="0"
     inkscape:deskcolor="#d1d1d1"
     inkscape:document-units="mm"
     showgrid="false"
     inkscape:zoom="8.3553674"
     inkscape:cx="23.876867"
     inkscape:cy="37.341266"
     inkscape:window-width="1920"
     inkscape:window-height="1009"
     inkscape:window-x="-8"
     inkscape:window-y="-8"
     inkscape:window-maximized="1"
     inkscape:current-layer="layer1" /><defs
     id="defs2" /><g
     inkscape:label="Layer 1"
     inkscape:groupmode="layer"
     id="layer1"
     transform="translate(-14.593998,-38.364632)"
     style="fill:#ffaaaa"><path
       style="fill:#ffffff;stroke-width:0.024;stroke:none;stroke-dasharray:none"
       d="m 24.431336,42.084904 c -0.18132,-0.07624 -0.1184,-0.370758 0.0792,-0.370758 0.13694,0 0.223998,0.17682 0.15268,0.310086 -0.03644,0.06806 -0.14606,0.09676 -0.231866,0.06068 z"
       id="path1488" /><path
       style="fill:#ffffff;stroke-width:0.024;stroke:none;stroke-dasharray:none"
       d="m 18.607786,43.366828 c -0.03846,-0.03846 -0.06994,-0.09278 -0.06994,-0.12072 0,-0.06978 0.10438,-0.16822 0.17836,-0.16822 0.15022,0 0.214904,0.213844 0.09356,0.309292 -0.0841,0.06616 -0.11898,0.06266 -0.20198,-0.02034 z"
       id="path1486" /><path
       style="fill:#ffffff;stroke-width:0.024;stroke:none;stroke-dasharray:none"
       d="m 17.461218,44.244708 c -0.0679,-0.07288 -0.08216,-0.1458 -0.04402,-0.225126 0.04574,-0.09516 0.13516,-0.13892 0.242728,-0.11872 0.1483,0.02782 0.208484,0.20971 0.11058,0.33417 -0.0667,0.0848 -0.234414,0.09006 -0.309286,0.0096 z"
       id="path1484" /><path
       style="fill:#ffffff;stroke-width:0.024;stroke:none;stroke-dasharray:none"
       d="m 16.027536,46.34155 c -0.13202,-0.11108 -0.07332,-0.308388 0.1001,-0.336538 0.11472,-0.0186 0.233016,0.08206 0.233016,0.19832 0,0.1794 -0.19032,0.258366 -0.333116,0.138218 z"
       id="path1482" /><path
       style="fill:#ffffff;stroke-width:0.024;stroke:none;stroke-dasharray:none"
       d="m 15.422932,47.359538 c -0.06082,-0.06082 -0.07032,-0.08532 -0.058,-0.14954 0.02812,-0.14658 0.18204,-0.224488 0.309444,-0.15664 0.1082,0.05762 0.14074,0.16074 0.08424,0.266826 -0.07174,0.1347 -0.222638,0.1524 -0.335684,0.03934 z"
       id="path1480" /><path
       style="fill:#ffffff;stroke-width:0.024;stroke:none;stroke-dasharray:none"
       d="m 30.079575,48.473061 c -0.0447,-0.06822 -0.0412,-0.09962 0.04668,-0.418989 0.201128,-0.730976 0.17278,-1.498278 -0.08484,-2.296564 -0.06168,-0.19114 -0.25319,-0.579138 -0.392146,-0.794502 -0.17728,-0.274738 -0.18136,-0.286306 -0.13448,-0.380214 0.03308,-0.0663 0.0562,-0.08268 0.12478,-0.08846 0.10996,-0.0092 0.17124,0.0548 0.343176,0.3588 0.305296,0.539734 0.446338,0.949128 0.567096,1.646046 0.08814,0.508768 0.04524,1.168978 -0.11272,1.734578 -0.07174,0.256831 -0.10378,0.299057 -0.226934,0.299057 -0.07112,0 -0.10014,-0.0132 -0.1306,-0.05976 z"
       id="path1478" /><path
       style="fill:#ffffff;stroke-width:0.024;stroke:none;stroke-dasharray:none"
       d="m 15.003716,48.563601 c -0.07128,-0.0134 -0.17428,-0.13982 -0.17428,-0.213888 0,-0.07984 0.12168,-0.199679 0.20271,-0.199679 0.07962,0 0.1937,0.0582 0.21308,0.10872 0.06428,0.167499 -0.07008,0.337073 -0.241516,0.304847 z"
       id="path1476" /><path
       style="fill:#ffffff;stroke-width:0.024;stroke:none;stroke-dasharray:none"
       d="m 14.718356,49.729795 c -0.12502,-0.0517 -0.16422,-0.2116 -0.07858,-0.320474 0.10986,-0.13966 0.35714,-0.04616 0.35714,0.13506 0,0.13366 -0.15472,0.23664 -0.27856,0.18542 z"
       id="path1474" /><path
       style="fill:#d45500;stroke-width:0.024;stroke:none;stroke-dasharray:none;fill-opacity:1"
       d="m 21.751202,51.260847 c -0.02884,-0.012 -0.0719,-0.0516 -0.0957,-0.08792 -0.04072,-0.06216 -0.04366,-0.18392 -0.05006,-2.0768 -0.0038,-1.105925 -0.0013,-2.033147 0.0054,-2.060503 0.0068,-0.02734 0.03886,-0.07848 0.07144,-0.11364 0.08552,-0.09228 0.228724,-0.08852 0.384192,0.01 0.0642,0.04072 0.52657,0.367208 1.027506,0.72555 0.500928,0.358344 1.07227,0.761953 1.269622,0.896907 0.479758,0.328012 0.569104,0.426674 0.52946,0.584634 -0.02202,0.0877 -0.10674,0.15836 -0.548322,0.457294 -0.417436,0.282598 -0.820702,0.559314 -1.081674,0.742226 -0.242914,0.17024 -0.871382,0.617532 -1.001356,0.712642 -0.29377,0.214952 -0.396512,0.25713 -0.510516,0.209516 z"
       id="path1472" /><path
       style="fill:#ffffff;stroke-width:0.024;stroke:none;stroke-dasharray:none"
       d="m 26.971478,55.359259 c -0.16834,-0.07006 -0.292056,-0.17066 -0.389692,-0.3169 -0.15782,-0.236322 -0.18026,-0.541638 -0.04668,-0.635194 0.11866,-0.0831 0.225176,-0.0118 0.25355,0.16954 0.03864,0.247054 0.20218,0.416636 0.41915,0.434624 0.16142,0.0134 0.268132,-0.02104 0.390814,-0.12602 0.352226,-0.301492 0.210548,-0.890558 -0.272282,-1.132144 -0.19972,-0.09994 -0.363968,-0.13274 -0.5914,-0.11814 -0.342156,0.02198 -0.575078,0.12398 -1.378414,0.603648 -0.55957,0.334124 -0.737384,0.427092 -1.096308,0.573178 -0.848704,0.345444 -1.491608,0.475628 -2.348922,0.475628 -0.85326,0 -1.554708,-0.13974 -2.33815,-0.465802 l -0.223096,-0.09284 -0.10106,0.04584 c -0.270224,0.12256 -0.446884,0.15816 -0.782922,0.15776 -0.344996,-4.44e-4 -0.482764,-0.02622 -0.785398,-0.14706 -0.262408,-0.10478 -0.47575,-0.246614 -0.72187,-0.479926 -0.40242,-0.381476 -0.619824,-0.687882 -0.848708,-1.196152 -0.338988,-0.752764 -0.521012,-1.568658 -0.521932,-2.339454 -10e-4,-0.828356 0.15276,-1.430824 0.567798,-2.225044 0.14604,-0.279479 0.18762,-0.386085 0.251,-0.643711 0.16282,-0.661762 0.402112,-1.179616 0.86388,-1.86943 0.698688,-1.04375 1.59218,-1.712562 2.827384,-2.116426 0.18918,-0.06186 0.361104,-0.1362 0.45442,-0.19652 0.214232,-0.13846 0.52796,-0.31765 1.042302,-0.59531 0.591082,-0.319096 0.814654,-0.469448 1.04955,-0.705864 0.14294,-0.14384 0.217884,-0.243034 0.281108,-0.372002 0.248098,-0.506076 0.10706,-1.102186 -0.310026,-1.310502 -0.292458,-0.14606 -0.591922,-0.06274 -0.76746,0.213522 -0.05756,0.0906 -0.06828,0.13232 -0.0676,0.263176 9.5e-4,0.18286 0.04324,0.27629 0.18374,0.406042 0.11828,0.10922 0.12854,0.19782 0.03242,0.28047 -0.11546,0.09932 -0.256028,0.0592 -0.40579,-0.11576 -0.12966,-0.1515 -0.18792,-0.327914 -0.18842,-0.57075 -3.38e-4,-0.16116 0.0108,-0.228192 0.05398,-0.32299 0.11802,-0.259472 0.307964,-0.448446 0.531432,-0.528704 0.392754,-0.14106 0.787024,-0.05254 1.084032,0.24335 0.246778,0.245854 0.346188,0.501456 0.34648,0.890834 2.66e-4,0.310224 -0.02382,0.411152 -0.1712,0.718482 -0.10314,0.215054 -0.14576,0.27437 -0.326626,0.454578 -0.25255,0.25163 -0.49507,0.414974 -1.051732,0.708348 -0.513528,0.270654 -0.706278,0.381374 -0.716316,0.411476 -0.0044,0.0134 0.10682,0.009 0.273916,-0.0108 0.429652,-0.05126 1.49382,-0.0485 1.88448,0.0048 0.71692,0.09796 1.341878,0.269474 1.851798,0.508188 0.1237,0.0579 0.229274,0.10088 0.234634,0.09554 0.0054,-0.0054 0.009,-1.33548 0.008,-2.955832 l -0.0018,-2.946094 0.05916,-0.05914 c 0.03254,-0.03254 0.0692,-0.05914 0.0815,-0.05914 0.06154,0 0.1258,0.1062 0.19546,0.32299 0.04228,0.13158 0.13382,0.357682 0.203406,0.502428 0.259416,0.53951 0.596242,0.95945 1.155696,1.4409 0.682942,0.587712 0.935836,0.888796 1.173736,1.397422 0.229091,0.489792 0.299355,0.841494 0.300491,1.504096 0.0015,0.843458 -0.173719,1.58663 -0.454835,1.929692 -0.09512,0.11608 -0.18132,0.13578 -0.271434,0.06208 -0.08682,-0.07098 -0.06914,-0.18022 0.07644,-0.472532 0.0721,-0.14474 0.1444,-0.304776 0.16068,-0.355634 0.04194,-0.13094 0.03564,-0.593018 -0.0104,-0.768836 -0.13616,-0.519288 -0.518378,-0.920966 -1.329304,-1.396996 -0.32794,-0.1925 -0.541434,-0.354062 -0.753148,-0.569936 l -0.1721,-0.17548 -0.0158,0.664478 c -0.0088,0.365464 -0.0158,0.99601 -0.0158,1.401218 l -4.4e-5,0.736728 0.14656,0.08868 c 1.082914,0.655238 1.8379,1.6954 2.119442,2.91997 0.05932,0.258044 0.06424,0.320314 0.06542,0.829263 0.0016,0.675954 -0.03222,0.861448 -0.272394,1.495324 l -0.04986,0.1316 0.309476,-0.316798 c 0.730007,-0.747334 1.068283,-1.399038 1.154999,-2.225247 0.06588,-0.627644 -0.08156,-1.24781 -0.447252,-1.881192 -0.0723,-0.12522 -0.13144,-0.253276 -0.13144,-0.284584 0,-0.07086 0.09258,-0.16094 0.1654,-0.16094 0.089,0 0.1775,0.12152 0.370004,0.508088 0.300736,0.603904 0.383874,0.940306 0.382954,1.549466 -9e-4,0.60109 -0.09616,0.992818 -0.38105,1.567105 -0.208086,0.419452 -0.40543,0.685758 -0.844139,1.13914 -0.20317,0.209968 -0.36477,0.386394 -0.359118,0.392042 0.0056,0.0056 0.07974,-0.03526 0.16464,-0.09088 0.345803,-0.226584 0.633509,-0.35542 1.003723,-0.449492 0.293594,-0.07458 0.851436,-0.08244 1.100562,-0.0156 0.455902,0.12248 0.866304,0.44006 1.075244,0.832078 0.1892,0.354982 0.22155,0.899912 0.07654,1.289568 -0.18912,0.50821 -0.518106,0.865644 -1.015562,1.103428 -0.278358,0.13306 -0.522944,0.18994 -0.815944,0.18974 -0.496998,-3.56e-4 -0.924312,-0.16824 -1.226857,-0.482048 -0.32488,-0.336984 -0.456936,-0.861744 -0.308004,-1.223938 0.11478,-0.27915 0.213302,-0.371012 0.347656,-0.324178 0.08822,0.03076 0.116779,0.1174 0.0732,0.222218 -0.150199,0.36129 -0.156799,0.550296 -0.02832,0.811254 0.19102,0.388008 0.637588,0.63671 1.14498,0.637614 0.267728,4.44e-4 0.412282,-0.03336 0.665098,-0.15578 0.384272,-0.18604 0.648826,-0.4558 0.806318,-0.822202 0.07548,-0.1756 0.07826,-0.19344 0.0784,-0.505034 2.66e-4,-0.311914 -0.0024,-0.328314 -0.074,-0.47849 -0.10566,-0.221654 -0.26806,-0.408294 -0.476612,-0.54778 -0.323968,-0.216686 -0.719052,-0.298078 -1.130512,-0.232912 -0.249762,0.03956 -0.68635,0.1668 -0.711404,0.207316 -0.0084,0.0134 0.02902,0.0231 0.08978,0.0231 0.14542,0 0.358618,0.05884 0.563776,0.1556 0.19528,0.0921 0.428174,0.29691 0.524552,0.461316 0.078,0.13308 0.15026,0.36703 0.15026,0.486532 0,0.20702 -0.11898,0.342838 -0.25765,0.294064 -0.08762,-0.0308 -0.12434,-0.11452 -0.12502,-0.284994 -0.001,-0.271482 -0.17532,-0.509526 -0.472426,-0.645538 -0.478836,-0.219234 -1.047103,-0.07958 -1.771105,0.435208 -0.222264,0.15804 -0.385004,0.299998 -1.026288,0.895264 -0.428658,0.397906 -0.609982,0.554114 -0.886142,0.763502 -1.063218,0.80608 -1.9466,1.20969 -3.09349,1.413386 -0.252292,0.0448 -0.38701,0.05316 -0.861312,0.05336 -0.49841,1.78e-4 -0.606048,-0.007 -0.94816,-0.06382 -0.212254,-0.03524 -0.409504,-0.06408 -0.43833,-0.06408 -0.07718,0 -0.390538,0.28626 -0.357254,0.326352 0.03036,0.03658 0.54829,0.20347 0.83459,0.26895 1.05607,0.2415 2.217492,0.14842 3.266788,-0.261844 0.31671,-0.12384 0.798828,-0.371954 1.25656,-0.646704 0.758642,-0.455364 1.132582,-0.611162 1.528448,-0.636804 0.58701,-0.03804 1.105714,0.24425 1.33465,0.726318 0.10784,0.227072 0.13434,0.520492 0.06582,0.728558 -0.08678,0.263416 -0.274518,0.483824 -0.510712,0.599506 -0.14808,0.07254 -0.516616,0.08808 -0.6612,0.0279 z m -8.216926,-0.800792 c 0.09752,-0.0162 0.1661,-0.03924 0.1661,-0.05602 0,-0.0158 -0.11196,-0.09446 -0.24881,-0.17496 -0.510352,-0.30027 -1.025934,-0.803166 -1.405106,-1.370536 -0.425496,-0.636704 -0.613638,-1.029728 -0.810812,-1.693814 -0.15004,-0.505338 -0.260642,-1.164856 -0.264124,-1.57499 -7.5e-4,-0.08934 -0.0092,-0.205496 -0.0188,-0.258136 l -0.0174,-0.0957 -0.03994,0.14356 c -0.12466,0.448144 -0.14994,0.668522 -0.14958,1.303922 3.02e-4,0.538238 0.0068,0.64249 0.055,0.885224 0.266886,1.34371 0.890564,2.34083 1.715126,2.742112 0.33838,0.16468 0.649236,0.210268 1.018194,0.14934 z m 0.889794,-0.36221 c 0.06248,-0.0423 0.11362,-0.08776 0.11364,-0.10104 2.4e-5,-0.0132 -0.07262,-0.04964 -0.16144,-0.08082 -0.631312,-0.221562 -1.329764,-0.6662 -1.877002,-1.19491 -0.14208,-0.13726 -0.258318,-0.239734 -0.258318,-0.227742 0,0.012 0.10094,0.15626 0.224326,0.32059 0.437688,0.58293 0.913076,1.002832 1.510248,1.33398 0.16086,0.08922 0.17078,0.09156 0.251214,0.05984 0.04606,-0.0182 0.13486,-0.06762 0.19734,-0.1099 z m 2.542126,-0.207524 c 1.071218,-0.12348 2.06434,-0.548148 3.093488,-1.32277 0.42266,-0.318144 1.057502,-0.877864 1.057502,-0.932396 0,-0.03978 -0.04746,-0.01 -0.398928,0.250534 -0.901128,0.667928 -1.166832,0.818404 -2.208916,1.251026 -0.348854,0.14484 -0.50431,0.200406 -0.8015,0.286544 -0.894488,0.259242 -2.149504,0.228582 -3.0466,-0.07444 -0.86715,-0.292898 -1.425024,-0.664328 -2.04814,-1.363642 -0.460096,-0.516366 -0.806464,-1.185716 -0.97277,-1.879878 -0.0656,-0.273784 -0.12186,-0.833176 -0.10428,-1.03688 0.03894,-0.451298 0.12652,-0.910751 0.213112,-1.117725 0.09148,-0.21868 2.84e-4,-0.14988 -0.201818,0.15228 -0.19216,0.287273 -0.227604,0.475181 -0.22728,1.204713 1.86e-4,0.452706 0.0078,0.56429 0.05494,0.797512 0.14676,0.727446 0.483884,1.418738 0.949796,1.947592 0.319086,0.362172 0.866768,0.841158 1.23392,1.079142 0.676668,0.438608 1.343286,0.659758 2.378674,0.789138 0.200068,0.025 0.666046,0.011 1.028812,-0.03074 z m -0.27517,-0.647338 c 0.244948,-0.03776 0.280204,-0.04812 0.238912,-0.0703 -0.0196,-0.0106 -0.13782,-0.03758 -0.262836,-0.06016 -0.594146,-0.10734 -1.264526,-0.42211 -1.782428,-0.836958 -0.606332,-0.48567 -1.11613,-1.211484 -1.370412,-1.951078 -0.13952,-0.405774 -0.18652,-0.626214 -0.258798,-1.213712 -0.009,-0.07274 -0.04196,-0.13744 -0.11738,-0.230028 -0.19668,-0.24145 -0.376962,-0.630506 -0.454704,-0.981293 -0.03244,-0.14642 -0.03932,-0.261754 -0.03106,-0.520884 l 0.0106,-0.332838 -0.07932,0.07688 c -0.258188,0.250244 -0.5189,0.819136 -0.646404,1.410489 -0.03416,0.15846 -0.04314,0.307956 -0.04294,0.714754 2.48e-4,0.48001 0.0046,0.531542 0.0652,0.771064 0.17484,0.691078 0.452876,1.22846 0.912054,1.762764 0.576652,0.671006 1.33443,1.126242 2.235628,1.343056 0.523916,0.12606 1.203756,0.1768 1.58384,0.11824 z m 1.268036,-0.430508 c 1.069566,-0.13524 2.101498,-0.762718 2.761602,-1.679212 0.464162,-0.644464 0.7355,-1.562008 0.69906,-2.36389 -0.02772,-0.609685 -0.15028,-1.110415 -0.386666,-1.579849 -0.304402,-0.604458 -0.853406,-1.22378 -1.387978,-1.565742 -0.675472,-0.43209 -1.622444,-0.676016 -2.370044,-0.610476 -1.466926,0.1286 -2.649398,0.939922 -3.289212,2.256798 -0.217026,0.446692 -0.35722,1.058187 -0.35722,1.558109 0,0.251128 0.06348,0.724688 0.13646,1.017784 0.266166,1.069174 1.017446,2.031714 1.992886,2.553284 0.362632,0.1939 0.875394,0.360882 1.259904,0.41029 0.224462,0.02884 0.723944,0.03038 0.941212,0.003 z m 3.54305,-1.940706 c 0.431516,-0.396194 0.591632,-0.623864 0.788748,-1.121468 0.228274,-0.576306 0.292658,-0.885964 0.293484,-1.411594 5.5e-4,-0.336345 -0.0086,-0.437707 -0.0616,-0.685037 -0.1806,-0.842572 -0.535292,-1.499826 -1.133232,-2.100032 -0.24813,-0.249058 -0.725856,-0.636228 -0.785044,-0.636228 -0.0076,0 -0.0136,0.229466 -0.0136,0.509914 v 0.509918 l 0.07458,0.07026 c 0.227816,0.214686 0.541058,0.67975 0.740272,1.099056 0.274616,0.578034 0.381312,1.084222 0.380754,1.806349 -5.5e-4,0.714174 -0.13728,1.306234 -0.444076,1.923116 -0.07122,0.14318 -0.12946,0.264294 -0.12946,0.26916 0,0.02664 0.04936,-0.0132 0.289226,-0.233422 z m -8.19765,-2.646376 c 0.05798,-0.487313 0.287434,-1.097513 0.572596,-1.522747 0.06074,-0.09056 0.11042,-0.16862 0.11042,-0.17346 0,-0.02782 -0.3763,-0.0014 -0.540262,0.0379 -0.282996,0.06786 -0.313852,0.08642 -0.355366,0.213996 -0.15212,0.467448 -0.09344,1.219504 0.12064,1.546231 0.05302,0.08092 0.07284,0.05896 0.09198,-0.10192 z M 17.17602,47.209778 c 0.25592,-0.252638 0.510724,-0.45055 0.744296,-0.578124 0.14902,-0.08138 0.16282,-0.09596 0.20049,-0.21162 0.0468,-0.1437 0.19128,-0.421072 0.325102,-0.624138 0.05112,-0.07758 0.0888,-0.14522 0.08372,-0.1503 -0.0178,-0.0178 -0.435588,0.16252 -0.59268,0.255644 -0.1282,0.076 -0.1923,0.13836 -0.337204,0.327944 -0.281112,0.367846 -0.737228,1.20308 -0.65699,1.20308 0.0044,0 0.10932,-0.10012 0.233272,-0.22249 z m 1.96936,-0.93678 0.284542,-0.0088 0.22985,-0.226624 c 0.19388,-0.19114 0.496486,-0.440544 0.75485,-0.622108 0.03364,-0.02364 0.06116,-0.0529 0.06116,-0.06504 0,-0.04182 -0.668198,0.0182 -1.124484,0.1011 -0.252752,0.0459 -0.281468,0.05662 -0.352896,0.13182 -0.04276,0.04504 -0.07776,0.09234 -0.07776,0.10514 0,0.0128 -0.04162,0.07932 -0.0925,0.14782 -0.10188,0.13722 -0.290314,0.455178 -0.290314,0.489862 0,0.0122 0.07146,0.0074 0.1615,-0.0112 0.08882,-0.0182 0.28954,-0.03712 0.446034,-0.04198 z m 6.282916,-0.834764 c 0,-0.08348 -0.007,-0.267996 -0.0158,-0.410026 l -0.0158,-0.258248 -0.241386,-0.1147 c -1.146508,-0.544846 -2.65663,-0.72576 -4.057468,-0.48608 -0.443524,0.07588 -0.70024,0.15468 -0.876468,0.26899 -0.1554,0.1008 -0.55481,0.432696 -0.666706,0.554006 l -0.07178,0.0778 0.16748,-0.0166 c 0.507196,-0.05034 0.758628,-0.0632 1.136448,-0.05816 0.409116,0.0056 0.42416,0.004 0.657942,-0.06894 0.596546,-0.18586 1.163198,-0.237614 1.782422,-0.1628 0.741846,0.08962 1.302548,0.291568 1.949904,0.702278 0.10528,0.0668 0.204858,0.12208 0.22131,0.12286 0.02094,10e-4 0.0299,-0.04412 0.0299,-0.15036 z m -6.986144,-0.11182 c 0.08554,-0.02636 0.224994,-0.0643 0.30992,-0.08434 0.15198,-0.03584 0.15944,-0.04148 0.475722,-0.359412 0.17672,-0.17764 0.314334,-0.329974 0.305804,-0.338504 -0.02404,-0.02402 -0.45108,0.19798 -0.696578,0.362126 -0.29245,0.19552 -0.618744,0.470142 -0.556364,0.468238 0.0032,-8.2e-5 0.07596,-0.02174 0.1615,-0.0481 z m 9.478354,-2.625354 c -0.14734,-0.18408 -0.36675,-0.366586 -0.748456,-0.622596 -0.439526,-0.29479 -0.92541,-0.740434 -1.199052,-1.099736 -0.0928,-0.12188 -0.17696,-0.221588 -0.187,-0.221588 -0.02804,0 0.04172,0.242456 0.11998,0.416858 0.10312,0.229858 0.234586,0.410512 0.44212,0.607602 0.220928,0.209816 0.40261,0.330242 0.842676,0.558598 0.18204,0.09446 0.42788,0.233602 0.5463,0.309216 0.11844,0.07562 0.224308,0.13836 0.23529,0.13942 0.011,10e-4 -0.0124,-0.03844 -0.05186,-0.08778 z m -0.14754,-0.672656 c 0,-0.03786 -0.18112,-0.288246 -0.355066,-0.490876 -0.09444,-0.11002 -0.292736,-0.31142 -0.44066,-0.447564 -0.533628,-0.491144 -0.76513,-0.749054 -1.126622,-1.255122 -0.02432,-0.03404 -0.04924,-0.05688 -0.0554,-0.05072 -0.04332,0.04332 0.1662,0.52016 0.344342,0.78361 0.280116,0.414304 0.66165,0.785458 1.218702,1.185574 0.17326,0.12444 0.327986,0.241912 0.343862,0.261034 0.03194,0.03848 0.07084,0.0462 0.07084,0.014 z"
       id="path863" /></g></svg>
