<?xml version="1.0" encoding="UTF-8" standalone="no"?>
<!-- Created with Inkscape (http://www.inkscape.org/) -->

<svg
   width="17.461632mm"
   height="17.270952mm"
   viewBox="0 0 17.461632 17.270952"
   version="1.1"
   id="svg9427"
   inkscape:version="1.2.2 (732a01da63, 2022-12-09)"
   sodipodi:docname="playbuttonshadow.svg"
   xmlns:inkscape="http://www.inkscape.org/namespaces/inkscape"
   xmlns:sodipodi="http://sodipodi.sourceforge.net/DTD/sodipodi-0.dtd"
   xmlns="http://www.w3.org/2000/svg"
   xmlns:svg="http://www.w3.org/2000/svg">
  <sodipodi:namedview
     id="namedview9429"
     pagecolor="#ffffff"
     bordercolor="#000000"
     borderopacity="0.25"
     inkscape:showpageshadow="2"
     inkscape:pageopacity="0.0"
     inkscape:pagecheckerboard="0"
     inkscape:deskcolor="#d1d1d1"
     inkscape:document-units="mm"
     showgrid="false"
     inkscape:zoom="6.2502245"
     inkscape:cx="55.598003"
     inkscape:cy="26.879035"
     inkscape:window-width="1920"
     inkscape:window-height="1009"
     inkscape:window-x="-8"
     inkscape:window-y="-8"
     inkscape:window-maximized="1"
     inkscape:current-layer="layer1-3" />
  <defs
     id="defs9424" />
  <g
     inkscape:label="Layer 1"
     inkscape:groupmode="layer"
     id="layer1-3"
     transform="translate(-20.909998,-45.728261)"
     style="fill:#000000">
    <g
       id="g9832"
       transform="translate(6.465584,7.3635327)">
      <g
         id="g9828"
         transform="matrix(1.0312125,0,0,1.0140602,-23.261887,-24.094087)"
         style="opacity:1;fill:#ff7f2a">
        <path
           id="path1488-7-4"
           style="fill:#ff7f2a;stroke:none;stroke-width:0.024;stroke-dasharray:none"
           d="m 47.515045,61.592887 c -0.0123,0 -0.04911,0.02637 -0.08165,0.05891 l -0.05891,0.05943 0.0016,2.946074 c 10e-4,1.62035 -0.0024,2.950492 -0.0078,2.955891 -0.0054,0.0053 -0.110911,-0.0377 -0.234611,-0.0956 -0.509919,-0.238714 -1.135164,-0.410536 -1.852083,-0.508496 -0.39066,-0.0533 -1.454471,-0.05591 -1.884123,-0.0047 -0.167096,0.0198 -0.278285,0.02425 -0.273885,0.01085 0.01004,-0.0301 0.202708,-0.14069 0.716235,-0.411344 0.556662,-0.293374 0.799066,-0.456854 1.051616,-0.708484 0.180866,-0.180208 0.223455,-0.239699 0.326595,-0.454753 0.14738,-0.307329 0.171315,-0.408078 0.171049,-0.718302 -2.92e-4,-0.389378 -0.09945,-0.645048 -0.346232,-0.890902 -0.297008,-0.29589 -0.691418,-0.384456 -1.084172,-0.243396 -0.223468,0.08026 -0.413214,0.269178 -0.531234,0.52865 -0.04318,0.0948 -0.0546,0.161818 -0.05426,0.322978 5e-4,0.242836 0.05896,0.419525 0.188619,0.571024 0.149762,0.17496 0.2902,0.215075 0.40566,0.115756 0.09612,-0.08265 0.08624,-0.171384 -0.03204,-0.280603 -0.1405,-0.129752 -0.183018,-0.223317 -0.183968,-0.406177 -6.8e-4,-0.130856 0.01014,-0.172433 0.0677,-0.263033 0.175538,-0.276262 0.474937,-0.359484 0.767395,-0.213424 0.417085,0.208316 0.558156,0.804439 0.310058,1.310514 -0.06322,0.128968 -0.13818,0.228231 -0.281119,0.372071 -0.234896,0.236415 -0.458467,0.386804 -1.049549,0.7059 -0.514341,0.27766 -0.828082,0.456852 -1.042313,0.595312 -0.09332,0.06032 -0.265056,0.134511 -0.454236,0.196371 -1.235203,0.403863 -2.129047,1.072401 -2.827735,2.11615 -0.461767,0.689813 -0.700693,1.207892 -0.863513,1.869653 -0.06338,0.257626 -0.105107,0.36441 -0.251147,0.643888 -0.415038,0.79422 -0.568924,1.396316 -0.567924,2.224671 9.2e-4,0.770795 0.182944,1.586629 0.521932,2.339392 0.228884,0.508269 0.446107,0.814834 0.848527,1.196309 0.24612,0.233312 0.459512,0.375294 0.72192,0.480074 0.302633,0.12084 0.440486,0.146317 0.785481,0.146761 0.336038,4e-4 0.512675,-0.03505 0.782898,-0.157613 l 0.101286,-0.04599 0.222725,0.09302 c 0.783442,0.326061 1.4851,0.465604 2.338359,0.465604 0.857313,0 1.500508,-0.129979 2.349211,-0.475423 0.358923,-0.146086 0.536487,-0.238968 1.096057,-0.573091 0.803335,-0.479668 1.036055,-0.581601 1.37821,-0.603581 0.227432,-0.0146 0.391976,0.01788 0.591695,0.117822 0.48283,0.241586 0.624561,0.830739 0.272335,1.132231 -0.122682,0.10498 -0.229771,0.13949 -0.39119,0.12609 -0.21697,-0.01799 -0.380456,-0.187545 -0.419096,-0.434599 -0.02837,-0.181339 -0.134555,-0.252598 -0.253215,-0.169498 -0.13358,0.09356 -0.111311,0.398781 0.04651,0.635103 0.09764,0.14624 0.2213,0.246717 0.38964,0.316777 0.144584,0.06018 0.513379,0.04463 0.661459,-0.02791 0.236193,-0.115681 0.423783,-0.33603 0.510563,-0.599446 0.06852,-0.208066 0.04221,-0.501566 -0.06563,-0.728638 -0.228936,-0.482067 -0.747793,-0.764094 -1.334803,-0.726054 -0.395865,0.02564 -0.769947,0.18129 -1.528588,0.636654 -0.457732,0.27475 -0.939545,0.522632 -1.256254,0.646472 -1.049295,0.410264 -2.210916,0.503499 -3.266985,0.262 -0.286299,-0.06548 -0.804214,-0.232138 -0.834574,-0.268718 -0.03328,-0.04009 0.279904,-0.326595 0.357084,-0.326595 0.02883,0 0.226479,0.02884 0.438733,0.06408 0.342112,0.05682 0.449336,0.06426 0.947746,0.06408 0.474301,-2e-4 0.609154,-0.0089 0.861446,-0.05374 1.146889,-0.203696 2.030134,-0.607271 3.093351,-1.41335 0.27616,-0.209388 0.457594,-0.365356 0.886251,-0.763261 0.641283,-0.595266 0.80403,-0.737513 1.026294,-0.895553 0.724001,-0.514787 1.292116,-0.654349 1.770951,-0.435115 0.297106,0.136011 0.47184,0.373957 0.47284,0.645438 6.8e-4,0.170474 0.03744,0.254454 0.125057,0.285254 0.13867,0.04877 0.257348,-0.08702 0.257348,-0.294039 0,-0.119502 -0.07238,-0.353712 -0.150378,-0.486792 -0.09638,-0.164406 -0.329236,-0.368854 -0.524516,-0.460953 -0.205158,-0.09676 -0.41837,-0.155547 -0.56379,-0.155547 -0.06076,0 -0.0978,-0.0099 -0.0894,-0.02325 0.02505,-0.04052 0.461306,-0.167662 0.711068,-0.207222 0.411459,-0.06517 0.806712,0.01586 1.13068,0.232544 0.208552,0.139485 0.370797,0.326116 0.476457,0.54777 0.0716,0.150176 0.07416,0.16661 0.0739,0.478523 -1.4e-4,0.311594 -0.0026,0.329796 -0.07803,0.505396 -0.157492,0.366402 -0.422398,0.636132 -0.806669,0.822172 -0.252816,0.12242 -0.397348,0.15599 -0.665076,0.155546 -0.507392,-9.04e-4 -0.953613,-0.24968 -1.144633,-0.637687 -0.128479,-0.260958 -0.122294,-0.45003 0.02791,-0.81132 0.04358,-0.104818 0.01536,-0.191449 -0.07286,-0.222209 -0.134353,-0.04683 -0.233002,0.04538 -0.347782,0.324528 -0.148932,0.362194 -0.01689,0.886714 0.307992,1.223698 0.302544,0.313808 0.729801,0.481785 1.226798,0.482141 0.293,2e-4 0.537613,-0.05659 0.815971,-0.189652 0.497455,-0.237784 0.826322,-0.595083 1.015442,-1.103292 0.14501,-0.389656 0.112719,-0.934862 -0.07648,-1.289844 -0.20894,-0.392017 -0.618969,-0.709511 -1.07487,-0.83199 -0.249126,-0.06684 -0.807114,-0.05908 -1.100708,0.0155 -0.370214,0.09407 -0.658271,0.223001 -1.004073,0.449585 -0.0849,0.05562 -0.158731,0.09655 -0.164331,0.09095 -0.0057,-0.0056 0.155981,-0.182256 0.359151,-0.392224 0.438709,-0.453382 0.63579,-0.719497 0.843876,-1.138949 0.28489,-0.574286 0.380472,-0.966256 0.381372,-1.567346 9.2e-4,-0.609159 -0.08219,-0.945356 -0.382922,-1.549259 -0.192504,-0.386568 -0.281004,-0.50798 -0.370003,-0.50798 -0.07282,0 -0.165365,0.08985 -0.165365,0.160714 0,0.03131 0.05896,0.159517 0.131258,0.284737 0.365692,0.633382 0.512881,1.253379 0.447001,1.881022 -0.08672,0.826209 -0.424962,1.477854 -1.154968,2.225188 l -0.309542,0.316776 0.05013,-0.131258 c 0.240174,-0.633875 0.273935,-0.819563 0.272335,-1.495516 -0.0012,-0.508949 -0.0063,-0.571363 -0.06563,-0.829407 -0.281542,-1.224569 -1.036338,-2.264481 -2.11925,-2.919718 l -0.146762,-0.08888 5.17e-4,-0.736389 c 0,-0.405207 0.0067,-1.036001 0.0155,-1.401465 l 0.01602,-0.664559 0.172082,0.1757 c 0.211714,0.215874 0.424986,0.377492 0.752926,0.569991 0.810925,0.47603 1.193475,0.877527 1.329635,1.396814 0.04604,0.175818 0.05227,0.638006 0.01033,0.768946 -0.01628,0.05086 -0.08861,0.210794 -0.160714,0.355533 -0.14558,0.292312 -0.163301,0.401343 -0.07648,0.472323 0.09011,0.0737 0.176181,0.05407 0.271301,-0.06201 0.281116,-0.343061 0.456253,-1.08614 0.454753,-1.929598 -0.0011,-0.662601 -0.07115,-1.013992 -0.30024,-1.503784 -0.2379,-0.508625 -0.491147,-0.810136 -1.174089,-1.397847 -0.559453,-0.48145 -0.896069,-0.90123 -1.155485,-1.440739 -0.06959,-0.144746 -0.161325,-0.370715 -0.203605,-0.502295 -0.06966,-0.21679 -0.133797,-0.322978 -0.195337,-0.322978 z m 0.251148,1.419552 c 0.0062,-0.0062 0.03097,0.0166 0.05529,0.05064 0.361492,0.506067 0.592919,0.764077 1.126547,1.25522 0.147924,0.136144 0.34636,0.337498 0.4408,0.447518 0.173524,0.202139 0.354142,0.452132 0.355017,0.490926 -4.71e-4,0.03152 -0.03905,0.02378 -0.0708,-0.01447 -0.01588,-0.01912 -0.170388,-0.136526 -0.343648,-0.260966 C 48.772347,64.581191 48.390467,64.210153 48.110352,63.795849 47.93221,63.5324 47.722867,63.055755 47.766187,63.012435 Z m -0.0093,0.973067 c 0.01004,0 0.09427,0.0993 0.187069,0.221175 0.273641,0.359302 0.759367,0.804885 1.198893,1.099675 0.381705,0.256009 0.601452,0.438621 0.748791,0.622701 0.03946,0.04934 0.06268,0.08885 0.05168,0.08785 -0.01098,-0.0011 -0.116688,-0.06391 -0.235128,-0.139527 -0.11842,-0.07561 -0.364697,-0.214565 -0.546737,-0.309025 -0.440065,-0.228356 -0.621398,-0.348806 -0.842325,-0.558622 -0.207534,-0.19709 -0.339231,-0.377857 -0.442351,-0.607715 -0.07826,-0.174402 -0.147929,-0.416512 -0.119889,-0.416512 z m -1.275374,0.956531 c -0.1976,0 -0.260385,0.294797 -0.07906,0.371036 0.08581,0.03608 0.19507,0.0076 0.23151,-0.06046 0.07132,-0.133266 -0.01551,-0.310575 -0.152445,-0.310575 z m -5.794479,1.363741 c -0.07398,0 -0.178283,0.09869 -0.178283,0.168465 0,0.02794 0.0313,0.08246 0.06976,0.120923 0.083,0.083 0.117955,0.08631 0.202055,0.02015 0.121343,-0.09545 0.05669,-0.309542 -0.09353,-0.309542 z m -1.119311,0.818554 c -0.079,0.0042 -0.143385,0.04768 -0.179834,0.123507 -0.03814,0.07933 -0.02346,0.151913 0.04444,0.224793 0.07487,0.08046 0.242326,0.0755 0.309026,-0.0093 0.0979,-0.12446 0.03771,-0.306527 -0.110588,-0.334347 -0.02185,-0.0041 -0.04291,-0.0057 -0.06304,-0.0047 z m 4.831746,0.170016 c 0.978284,0.01214 1.938742,0.21453 2.726965,0.589111 l 0.241329,0.114722 0.0155,0.258382 c 0.0088,0.14203 0.01602,0.326314 0.01602,0.409794 0,0.10624 -0.009,0.151379 -0.02997,0.150379 -0.01645,-7.8e-4 -0.115896,-0.05619 -0.221175,-0.12299 -0.647356,-0.41071 -1.208424,-0.612663 -1.950269,-0.702283 -0.619223,-0.07481 -1.185775,-0.02308 -1.78232,0.162781 -0.233782,0.07294 -0.248726,0.07485 -0.657841,0.06925 -0.37782,-0.005 -0.629169,0.0075 -1.136365,0.05788 l -0.167432,0.01654 0.07183,-0.07751 c 0.111896,-0.12131 0.511226,-0.453172 0.666626,-0.553972 0.176228,-0.11431 0.432908,-0.193354 0.876432,-0.269234 0.437761,-0.0749 0.885994,-0.108354 1.330668,-0.102836 z m 7.231083,0.427364 c -0.0065,-3.8e-5 -0.01328,-5.8e-5 -0.02015,5.17e-4 -0.06858,0.0058 -0.09146,0.02258 -0.12454,0.08888 -0.04688,0.09391 -0.04292,0.105084 0.134359,0.379822 0.138956,0.215364 0.330544,0.603644 0.392224,0.794784 0.25762,0.798285 0.285877,1.565525 0.08475,2.2965 -0.08788,0.319369 -0.09121,0.350876 -0.04651,0.419096 0.03046,0.04656 0.0591,0.05943 0.130224,0.05943 0.123154,0 0.155637,-0.04186 0.227377,-0.29869 0.157959,-0.565599 0.200794,-1.22601 0.112654,-1.734778 -0.120758,-0.696917 -0.262111,-1.106161 -0.567407,-1.645894 -0.16119,-0.285 -0.225011,-0.359104 -0.322978,-0.359668 z m -10.135298,0.04909 c 0.0045,-3.47e-4 0.0078,4.9e-5 0.0093,0.0016 0.0085,0.0085 -0.129204,0.160841 -0.305924,0.338481 -0.316282,0.317931 -0.323443,0.323311 -0.475423,0.359151 -0.08493,0.02004 -0.224519,0.05839 -0.310059,0.08475 -0.08554,0.02636 -0.158547,0.04798 -0.161747,0.04806 -0.06238,0.0019 0.264105,-0.272668 0.556555,-0.468188 0.230154,-0.153887 0.619673,-0.358603 0.687297,-0.363802 z m 6.30039,0.473356 c 0.05919,0 0.536836,0.387079 0.784965,0.636137 0.59794,0.600205 0.952665,1.257559 1.133264,2.10013 0.053,0.24733 0.06205,0.348368 0.0615,0.684713 -8.26e-4,0.525629 -0.06525,0.835494 -0.293522,1.4118 -0.197116,0.497603 -0.357067,0.725185 -0.788582,1.121378 -0.239866,0.220222 -0.288871,0.260218 -0.288871,0.233578 0,-0.0049 0.05797,-0.126055 0.129191,-0.269234 0.306795,-0.616882 0.44335,-1.209224 0.4439,-1.923397 5.58e-4,-0.722127 -0.105723,-1.228058 -0.380338,-1.806092 -0.199221,-0.419302 -0.512715,-0.884469 -0.740531,-1.099154 l -0.07441,-0.07028 V 68.75369 c 0,-0.280447 0.0058,-0.509529 0.01344,-0.509529 z m -3.040641,0.08527 c 0.691324,0.0087 1.490489,0.242555 2.081527,0.620634 0.534571,0.341961 1.08311,0.961338 1.387512,1.565796 0.236386,0.469433 0.359336,0.970581 0.387056,1.580265 0.03644,0.801881 -0.23502,1.719217 -0.699182,2.36368 -0.660103,0.916493 -1.692023,1.543727 -2.761588,1.678967 v 5.17e-4 c -0.217268,0.02738 -0.716566,0.02574 -0.941028,-0.0031 -0.38451,-0.04941 -0.897757,-0.216411 -1.260388,-0.41031 -0.975439,-0.52157 -1.726478,-1.48416 -1.992644,-2.553333 -0.07298,-0.293096 -0.136425,-0.766898 -0.136425,-1.018026 0,-0.499921 0.140058,-1.111353 0.357084,-1.558044 0.639813,-1.316875 1.82228,-2.12811 3.289205,-2.25671 0.09345,-0.0082 0.19011,-0.01158 0.288871,-0.01033 z m -2.420007,0.235644 c 0.06977,-0.001 0.111621,0.003 0.111621,0.01344 0,0.01214 -0.02734,0.04147 -0.06098,0.06511 -0.258364,0.181563 -0.561113,0.431044 -0.754993,0.622184 l -0.22996,0.226343 -0.284221,0.0088 c -0.156493,0.0049 -0.357147,0.02417 -0.445967,0.04237 -0.09004,0.0186 -0.161747,0.02305 -0.161747,0.01085 0,-0.03468 0.188541,-0.352672 0.290421,-0.489892 0.05088,-0.0685 0.0925,-0.134995 0.0925,-0.147795 0,-0.0128 0.03476,-0.05986 0.07752,-0.104903 0.07143,-0.0752 0.100198,-0.08587 0.35295,-0.131775 0.342214,-0.06218 0.803539,-0.111598 1.012858,-0.114722 z m -1.842265,0.307475 c 0.0041,-3.66e-4 0.0066,-7.9e-5 0.0078,0.001 0.0051,0.0051 -0.0326,0.0728 -0.08372,0.150378 -0.133821,0.203066 -0.278244,0.480552 -0.325044,0.624251 -0.03767,0.11566 -0.05148,0.129977 -0.200505,0.211357 -0.233572,0.127574 -0.488221,0.325622 -0.74414,0.578259 -0.123952,0.12237 -0.229178,0.222726 -0.233578,0.222726 -0.08024,0 0.376213,-0.835182 0.657324,-1.203028 0.144904,-0.189583 0.208731,-0.252145 0.336931,-0.328145 0.147273,-0.0873 0.523835,-0.251347 0.584977,-0.256832 z m -2.367298,0.358118 c -0.0089,4.7e-5 -0.01791,0.0011 -0.02687,0.0026 -0.17342,0.02815 -0.232272,0.225333 -0.100253,0.336413 0.142796,0.120148 0.333313,0.04142 0.333313,-0.137976 0,-0.107177 -0.100602,-0.201573 -0.206189,-0.201021 z m 2.992066,0.613916 c 0.03784,8.21e-4 0.06098,0.0044 0.06098,0.01137 0,0.0048 -0.04933,0.08256 -0.110071,0.173116 -0.285161,0.425233 -0.514595,1.035592 -0.572575,1.522904 -0.01914,0.16088 -0.03896,0.182723 -0.09198,0.101803 -0.214079,-0.326727 -0.273042,-1.078712 -0.120922,-1.546159 0.04151,-0.127576 0.07254,-0.146081 0.355533,-0.213941 0.122972,-0.02947 0.365521,-0.05156 0.479041,-0.04909 z m -3.582727,0.412378 c -0.09363,0.0058 -0.178743,0.07603 -0.198954,0.181384 -0.01232,0.06422 -0.0029,0.08852 0.05788,0.149345 0.113046,0.11306 0.264157,0.09543 0.335897,-0.03927 0.0565,-0.106086 0.02397,-0.209547 -0.08423,-0.267167 -0.03583,-0.01908 -0.07395,-0.02655 -0.110587,-0.02429 z m 2.319238,0.115238 -0.01034,0.332796 c -0.0083,0.25913 -0.0014,0.374479 0.03101,0.520899 0.07774,0.350787 0.258073,0.739886 0.454752,0.981335 0.07542,0.09259 0.108306,0.157221 0.117306,0.22996 0.07228,0.587498 0.119379,0.808106 0.258899,1.21388 0.254282,0.739593 0.764127,1.465116 1.370459,1.950785 0.517901,0.414848 1.188174,0.729818 1.78232,0.837158 0.125016,0.02258 0.242916,0.04986 0.262516,0.06046 0.04129,0.02218 0.0062,0.03252 -0.238745,0.07028 -0.380084,0.05856 -1.059967,0.0077 -1.583883,-0.118339 -0.901197,-0.216814 -1.658871,-0.672065 -2.235522,-1.343071 -0.459178,-0.534303 -0.737249,-1.071606 -0.912089,-1.762683 -0.0606,-0.239522 -0.06486,-0.291003 -0.06511,-0.771012 -2e-4,-0.406798 0.0087,-0.556742 0.04289,-0.715202 0.127504,-0.591352 0.388284,-1.160006 0.646472,-1.41025 z m -0.884184,0.777214 c 0.01329,0.004 0.0049,0.04564 -0.02945,0.127641 -0.08659,0.206973 -0.173967,0.666463 -0.212907,1.117761 -0.01758,0.203704 0.03827,0.763362 0.10387,1.037146 0.166305,0.694161 0.512971,1.363623 0.973067,1.879988 0.623115,0.699314 1.180788,1.070327 2.047937,1.363225 0.897095,0.303021 2.152355,0.333655 3.046842,0.07441 0.29719,-0.08614 0.452648,-0.141448 0.801502,-0.286288 1.042083,-0.432621 1.307523,-0.583159 2.20865,-1.251086 0.351468,-0.260534 0.398942,-0.290411 0.398942,-0.250631 0,0.05453 -0.63464,0.614616 -1.057299,0.93276 -1.029147,0.774621 -2.022135,1.19892 -3.093352,1.3224 -0.362765,0.04174 -0.82881,0.05601 -1.028877,0.03101 -1.035387,-0.12938 -1.701999,-0.350492 -2.378667,-0.7891 -0.367151,-0.237983 -0.914947,-0.717349 -1.234033,-1.07952 -0.465911,-0.528854 -0.803053,-1.219723 -0.949813,-1.947168 -0.04714,-0.233222 -0.05459,-0.345179 -0.05478,-0.797884 -3.24e-4,-0.729532 0.0347,-0.917305 0.22686,-1.204578 0.126314,-0.18885 0.209364,-0.286762 0.23151,-0.280086 z m -1.974556,0.228926 c -0.0808,0.0071 -0.19482,0.122126 -0.19482,0.199471 0,0.07407 0.102869,0.200541 0.174149,0.213941 0.171436,0.03223 0.305609,-0.137392 0.241329,-0.304891 -0.01938,-0.05052 -0.133287,-0.108521 -0.212907,-0.108521 -0.0025,0 -0.0051,-2.29e-4 -0.0078,0 z m 1.131197,1.183907 0.01757,0.09612 c 0.0096,0.05264 0.01785,0.168525 0.0186,0.257865 0.0035,0.410134 0.114026,1.06976 0.264066,1.575098 0.197174,0.664085 0.385308,1.05725 0.810803,1.693953 0.379172,0.56737 0.894731,1.070189 1.405083,1.370459 0.136849,0.0805 0.24908,0.158866 0.24908,0.174666 0,0.01678 -0.06888,0.04013 -0.166398,0.05633 -0.368958,0.06093 -0.679646,0.01534 -1.018026,-0.149345 -0.824561,-0.401282 -1.448255,-1.39876 -1.715141,-2.742468 -0.0482,-0.242734 -0.05499,-0.34698 -0.05529,-0.885218 -3.6e-4,-0.635399 0.0252,-0.855653 0.149861,-1.303796 z m -1.37666,0.0078 c -0.05205,7.57e-4 -0.102962,0.02187 -0.13901,0.0677 -0.08564,0.108874 -0.04647,0.268694 0.07855,0.320394 0.12384,0.05122 0.278536,-0.05186 0.278536,-0.185519 0,-0.121757 -0.1115,-0.204122 -0.218074,-0.202571 z m 2.682523,3.249931 c 0,-0.01199 0.116303,0.09063 0.258383,0.227893 0.547237,0.528709 1.245576,0.973197 1.876888,1.194759 0.08882,0.03118 0.161254,0.06742 0.16123,0.08062 -2e-5,0.01328 -0.05121,0.05899 -0.113688,0.101286 -0.06248,0.04228 -0.151344,0.09135 -0.197404,0.109554 -0.08043,0.03172 -0.09029,0.02979 -0.251147,-0.05943 -0.597172,-0.331148 -1.072298,-0.751356 -1.509986,-1.334285 -0.123386,-0.16433 -0.224276,-0.308394 -0.224276,-0.320394 z" />
        <path
           style="display:inline;fill:#ff7f2a;fill-opacity:1;stroke:none;stroke-width:0.024;stroke-dasharray:none"
           d="m 43.722138,74.48897 c -0.02884,-0.012 -0.0719,-0.0516 -0.0957,-0.08792 -0.04072,-0.06216 -0.04366,-0.18392 -0.05006,-2.0768 -0.0038,-1.105925 -0.0013,-2.033147 0.0054,-2.060503 0.0068,-0.02734 0.03886,-0.07848 0.07144,-0.11364 0.08552,-0.09228 0.228724,-0.08852 0.384192,0.01 0.0642,0.04072 0.52657,0.367208 1.027506,0.72555 0.500928,0.358344 1.07227,0.761953 1.269622,0.896907 0.479758,0.328012 0.569104,0.426674 0.52946,0.584634 -0.02202,0.0877 -0.10674,0.15836 -0.548322,0.457294 -0.417436,0.282598 -0.820702,0.559314 -1.081674,0.742226 -0.242914,0.17024 -0.871382,0.617532 -1.001356,0.712642 -0.29377,0.214952 -0.396512,0.25713 -0.510516,0.209516 z"
           id="path1472-9-8" />
      </g>
      <path
         id="path1488-7"
         style="fill:#ffffff;stroke:none;stroke-width:0.024;stroke-dasharray:none"
         d="m 25.544109,38.364764 c -0.0123,0 -0.04911,0.02637 -0.08165,0.05891 l -0.05891,0.05943 0.0016,2.946074 c 10e-4,1.62035 -0.0024,2.950492 -0.0078,2.955891 -0.0054,0.0053 -0.110911,-0.0377 -0.234611,-0.0956 -0.509919,-0.238714 -1.135164,-0.410536 -1.852083,-0.508496 -0.39066,-0.0533 -1.454471,-0.05591 -1.884123,-0.0047 -0.167096,0.0198 -0.278285,0.02425 -0.273885,0.01085 0.01004,-0.0301 0.202708,-0.14069 0.716235,-0.411344 0.556662,-0.293374 0.799066,-0.456854 1.051616,-0.708484 0.180866,-0.180208 0.223455,-0.239699 0.326595,-0.454753 0.14738,-0.307329 0.171315,-0.408078 0.171049,-0.718302 -2.92e-4,-0.389378 -0.09945,-0.645048 -0.346232,-0.890902 -0.297008,-0.29589 -0.691418,-0.384456 -1.084172,-0.243396 -0.223468,0.08026 -0.413214,0.269178 -0.531234,0.52865 -0.04318,0.0948 -0.0546,0.161818 -0.05426,0.322978 5e-4,0.242836 0.05896,0.419525 0.188619,0.571024 0.149762,0.17496 0.2902,0.215075 0.40566,0.115756 0.09612,-0.08265 0.08624,-0.171384 -0.03204,-0.280603 -0.1405,-0.129752 -0.183018,-0.223317 -0.183968,-0.406177 -6.8e-4,-0.130856 0.01014,-0.172433 0.0677,-0.263033 0.175538,-0.276262 0.474937,-0.359484 0.767395,-0.213424 0.417085,0.208316 0.558156,0.804439 0.310058,1.310514 -0.06322,0.128968 -0.13818,0.228231 -0.281119,0.372071 -0.234896,0.236415 -0.458467,0.386804 -1.049549,0.7059 -0.514341,0.27766 -0.828082,0.456852 -1.042313,0.595312 -0.09332,0.06032 -0.265056,0.134511 -0.454236,0.196371 -1.235203,0.403863 -2.129047,1.072401 -2.827735,2.11615 -0.461767,0.689813 -0.700693,1.207892 -0.863513,1.869653 -0.06338,0.257626 -0.105107,0.36441 -0.251147,0.643888 -0.415038,0.79422 -0.568924,1.396316 -0.567924,2.224671 9.2e-4,0.770795 0.182944,1.586629 0.521932,2.339392 0.228884,0.508269 0.446107,0.814834 0.848527,1.196309 0.24612,0.233312 0.459512,0.375294 0.72192,0.480074 0.302633,0.12084 0.440486,0.146317 0.785481,0.146761 0.336038,4e-4 0.512675,-0.03505 0.782898,-0.157613 l 0.101286,-0.04599 0.222725,0.09302 c 0.783442,0.326061 1.4851,0.465604 2.338359,0.465604 0.857313,0 1.500508,-0.129979 2.349211,-0.475423 0.358923,-0.146086 0.536487,-0.238968 1.096057,-0.573091 0.803335,-0.479668 1.036055,-0.581601 1.37821,-0.603581 0.227432,-0.0146 0.391976,0.01788 0.591695,0.117822 0.48283,0.241586 0.624561,0.830739 0.272335,1.132231 -0.122682,0.10498 -0.229771,0.13949 -0.39119,0.12609 -0.21697,-0.01799 -0.380456,-0.187545 -0.419096,-0.434599 -0.02837,-0.181339 -0.134555,-0.252598 -0.253215,-0.169498 -0.13358,0.09356 -0.111311,0.398781 0.04651,0.635103 0.09764,0.14624 0.2213,0.246717 0.38964,0.316777 0.144584,0.06018 0.513379,0.04463 0.661459,-0.02791 0.236193,-0.115681 0.423783,-0.33603 0.510563,-0.599446 0.06852,-0.208066 0.04221,-0.501566 -0.06563,-0.728638 -0.228936,-0.482067 -0.747793,-0.764094 -1.334803,-0.726054 -0.395865,0.02564 -0.769947,0.18129 -1.528588,0.636654 -0.457732,0.27475 -0.939545,0.522632 -1.256254,0.646472 -1.049295,0.410264 -2.210916,0.503499 -3.266985,0.262 -0.286299,-0.06548 -0.804214,-0.232138 -0.834574,-0.268718 -0.03328,-0.04009 0.279904,-0.326595 0.357084,-0.326595 0.02883,0 0.226479,0.02884 0.438733,0.06408 0.342112,0.05682 0.449336,0.06426 0.947746,0.06408 0.474301,-2e-4 0.609154,-0.0089 0.861446,-0.05374 1.146889,-0.203696 2.030134,-0.607271 3.093351,-1.41335 0.27616,-0.209388 0.457594,-0.365356 0.886251,-0.763261 0.641283,-0.595266 0.80403,-0.737513 1.026294,-0.895553 0.724001,-0.514787 1.292116,-0.654349 1.770951,-0.435115 0.297106,0.136011 0.47184,0.373957 0.47284,0.645438 6.8e-4,0.170474 0.03744,0.254454 0.125057,0.285254 0.13867,0.04877 0.257348,-0.08702 0.257348,-0.294039 0,-0.119502 -0.07238,-0.353712 -0.150378,-0.486792 -0.09638,-0.164406 -0.329236,-0.368854 -0.524516,-0.460953 -0.205158,-0.09676 -0.41837,-0.155547 -0.56379,-0.155547 -0.06076,0 -0.0978,-0.0099 -0.0894,-0.02325 0.02505,-0.04052 0.461306,-0.167662 0.711068,-0.207222 0.411459,-0.06517 0.806712,0.01586 1.13068,0.232544 0.208552,0.139485 0.370797,0.326116 0.476457,0.54777 0.0716,0.150176 0.07416,0.16661 0.0739,0.478523 -1.4e-4,0.311594 -0.0026,0.329796 -0.07803,0.505396 -0.157492,0.366402 -0.422398,0.636132 -0.806669,0.822172 -0.252816,0.12242 -0.397348,0.15599 -0.665076,0.155546 -0.507392,-9.04e-4 -0.953613,-0.24968 -1.144633,-0.637687 -0.128479,-0.260958 -0.122294,-0.45003 0.02791,-0.81132 0.04358,-0.104818 0.01536,-0.191449 -0.07286,-0.222209 -0.134353,-0.04683 -0.233002,0.04538 -0.347782,0.324528 -0.148932,0.362194 -0.01689,0.886714 0.307992,1.223698 0.302544,0.313808 0.729801,0.481785 1.226798,0.482141 0.293,2e-4 0.537613,-0.05659 0.815971,-0.189652 0.497455,-0.237784 0.826322,-0.595083 1.015442,-1.103292 0.14501,-0.389656 0.112719,-0.934862 -0.07648,-1.289844 -0.20894,-0.392017 -0.618969,-0.709511 -1.07487,-0.83199 -0.249126,-0.06684 -0.807114,-0.05908 -1.100708,0.0155 -0.370214,0.09407 -0.658271,0.223001 -1.004073,0.449585 -0.0849,0.05562 -0.158731,0.09655 -0.164331,0.09095 -0.0057,-0.0056 0.155981,-0.182256 0.359151,-0.392224 0.438709,-0.453382 0.63579,-0.719497 0.843876,-1.138949 0.28489,-0.574286 0.380472,-0.966256 0.381372,-1.567346 9.2e-4,-0.609159 -0.08219,-0.945356 -0.382922,-1.549259 -0.192504,-0.386568 -0.281004,-0.50798 -0.370003,-0.50798 -0.07282,0 -0.165365,0.08985 -0.165365,0.160714 0,0.03131 0.05896,0.159517 0.131258,0.284737 0.365692,0.633382 0.512881,1.253379 0.447001,1.881022 -0.08672,0.826209 -0.424962,1.477854 -1.154968,2.225188 l -0.309542,0.316776 0.05013,-0.131258 c 0.240174,-0.633875 0.273935,-0.819563 0.272335,-1.495516 -0.0012,-0.508949 -0.0063,-0.571363 -0.06563,-0.829407 -0.281542,-1.224569 -1.036338,-2.264481 -2.11925,-2.919718 l -0.146762,-0.08888 5.17e-4,-0.736389 c 0,-0.405207 0.0067,-1.036001 0.0155,-1.401465 l 0.01602,-0.664559 0.172082,0.1757 c 0.211714,0.215874 0.424986,0.377492 0.752926,0.569991 0.810925,0.47603 1.193475,0.877527 1.329635,1.396814 0.04604,0.175818 0.05227,0.638006 0.01033,0.768946 -0.01628,0.05086 -0.08861,0.210794 -0.160714,0.355533 -0.14558,0.292312 -0.163301,0.401343 -0.07648,0.472323 0.09011,0.0737 0.176181,0.05407 0.271301,-0.06201 0.281116,-0.343061 0.456253,-1.08614 0.454753,-1.929598 -0.0011,-0.662601 -0.07115,-1.013992 -0.30024,-1.503784 -0.2379,-0.508625 -0.491147,-0.810136 -1.174089,-1.397847 -0.559453,-0.48145 -0.896069,-0.90123 -1.155485,-1.440739 -0.06959,-0.144746 -0.161325,-0.370715 -0.203605,-0.502295 -0.06966,-0.21679 -0.133797,-0.322978 -0.195337,-0.322978 z m 0.251148,1.419552 c 0.0062,-0.0062 0.03097,0.0166 0.05529,0.05064 0.361492,0.506067 0.592919,0.764077 1.126547,1.25522 0.147924,0.136144 0.34636,0.337498 0.4408,0.447518 0.173524,0.202139 0.354142,0.452132 0.355017,0.490926 -4.71e-4,0.03152 -0.03905,0.02378 -0.0708,-0.01447 -0.01588,-0.01912 -0.170388,-0.136526 -0.343648,-0.260966 -0.557052,-0.400116 -0.938932,-0.771154 -1.219047,-1.185458 -0.178142,-0.263449 -0.387485,-0.740094 -0.344165,-0.783414 z m -0.0093,0.973067 c 0.01004,0 0.09427,0.0993 0.187069,0.221175 0.273641,0.359302 0.759367,0.804885 1.198893,1.099675 0.381705,0.256009 0.601452,0.438621 0.748791,0.622701 0.03946,0.04934 0.06268,0.08885 0.05168,0.08785 -0.01098,-0.0011 -0.116688,-0.06391 -0.235128,-0.139527 -0.11842,-0.07561 -0.364697,-0.214565 -0.546737,-0.309025 C 26.75046,42.111876 26.569127,41.991426 26.3482,41.78161 26.140666,41.58452 26.008969,41.403753 25.905849,41.173895 25.827589,40.999493 25.75792,40.757383 25.78596,40.757383 Z m -1.275374,0.956531 c -0.1976,0 -0.260385,0.294797 -0.07906,0.371036 0.08581,0.03608 0.19507,0.0076 0.23151,-0.06046 0.07132,-0.133266 -0.01551,-0.310575 -0.152445,-0.310575 z m -5.794479,1.363741 c -0.07398,0 -0.178283,0.09869 -0.178283,0.168465 0,0.02794 0.0313,0.08246 0.06976,0.120923 0.083,0.083 0.117955,0.08631 0.202055,0.02015 0.121343,-0.09545 0.05669,-0.309542 -0.09353,-0.309542 z m -1.119311,0.818554 c -0.079,0.0042 -0.143385,0.04768 -0.179834,0.123507 -0.03814,0.07933 -0.02346,0.151913 0.04444,0.224793 0.07487,0.08046 0.242326,0.0755 0.309026,-0.0093 0.0979,-0.12446 0.03771,-0.306527 -0.110588,-0.334347 -0.02185,-0.0041 -0.04291,-0.0057 -0.06304,-0.0047 z m 4.831746,0.170016 c 0.978284,0.01214 1.938742,0.21453 2.726965,0.589111 l 0.241329,0.114722 0.0155,0.258382 c 0.0088,0.14203 0.01602,0.326314 0.01602,0.409794 0,0.10624 -0.009,0.151379 -0.02997,0.150379 -0.01645,-7.8e-4 -0.115896,-0.05619 -0.221175,-0.12299 -0.647356,-0.41071 -1.208424,-0.612663 -1.950269,-0.702283 -0.619223,-0.07481 -1.185775,-0.02308 -1.78232,0.162781 -0.233782,0.07294 -0.248726,0.07485 -0.657841,0.06925 -0.37782,-0.005 -0.629169,0.0075 -1.136365,0.05788 l -0.167432,0.01654 0.07183,-0.07751 c 0.111896,-0.12131 0.511226,-0.453172 0.666626,-0.553972 0.176228,-0.11431 0.432908,-0.193354 0.876432,-0.269234 0.437761,-0.0749 0.885994,-0.108354 1.330668,-0.102836 z m 7.231083,0.427364 c -0.0065,-3.8e-5 -0.01328,-5.8e-5 -0.02015,5.17e-4 -0.06858,0.0058 -0.09146,0.02258 -0.12454,0.08888 -0.04688,0.09391 -0.04292,0.105084 0.134359,0.379822 0.138956,0.215364 0.330544,0.603644 0.392224,0.794784 0.25762,0.798285 0.285877,1.565525 0.08475,2.2965 -0.08788,0.319369 -0.09121,0.350876 -0.04651,0.419096 0.03046,0.04656 0.0591,0.05943 0.130224,0.05943 0.123154,0 0.155637,-0.04186 0.227377,-0.29869 0.157959,-0.565599 0.200794,-1.22601 0.112654,-1.734778 -0.120758,-0.696917 -0.262111,-1.106161 -0.567407,-1.645894 -0.16119,-0.285 -0.225011,-0.359104 -0.322978,-0.359668 z m -10.135298,0.04909 c 0.0045,-3.47e-4 0.0078,4.9e-5 0.0093,0.0016 0.0085,0.0085 -0.129204,0.160841 -0.305924,0.338481 -0.316282,0.317931 -0.323443,0.323311 -0.475423,0.359151 -0.08493,0.02004 -0.224519,0.05839 -0.310059,0.08475 -0.08554,0.02636 -0.158547,0.04798 -0.161747,0.04806 -0.06238,0.0019 0.264105,-0.272668 0.556555,-0.468188 0.230154,-0.153887 0.619673,-0.358603 0.687297,-0.363802 z m 6.30039,0.473356 c 0.05919,0 0.536836,0.387079 0.784965,0.636137 0.59794,0.600205 0.952665,1.257559 1.133264,2.10013 0.053,0.24733 0.06205,0.348368 0.0615,0.684713 -8.26e-4,0.525629 -0.06525,0.835494 -0.293522,1.4118 -0.197116,0.497603 -0.357067,0.725185 -0.788582,1.121378 -0.239866,0.220222 -0.288871,0.260218 -0.288871,0.233578 0,-0.0049 0.05797,-0.126055 0.129191,-0.269234 0.306795,-0.616882 0.44335,-1.209224 0.4439,-1.923397 5.58e-4,-0.722127 -0.105723,-1.228058 -0.380338,-1.806092 C 26.427,46.785746 26.113506,46.320579 25.88569,46.105894 l -0.07441,-0.07028 v -0.510047 c 0,-0.280447 0.0058,-0.509529 0.01344,-0.509529 z m -3.040641,0.08527 c 0.691324,0.0087 1.490489,0.242555 2.081527,0.620634 0.534571,0.341961 1.08311,0.961338 1.387512,1.565796 0.236386,0.469433 0.359336,0.970581 0.387056,1.580265 0.03644,0.801881 -0.23502,1.719217 -0.699182,2.36368 -0.660103,0.916493 -1.692023,1.543727 -2.761588,1.678967 v 5.17e-4 c -0.217268,0.02738 -0.716566,0.02574 -0.941028,-0.0031 -0.38451,-0.04941 -0.897757,-0.216411 -1.260388,-0.41031 -0.975439,-0.52157 -1.726478,-1.48416 -1.992644,-2.553333 -0.07298,-0.293096 -0.136425,-0.766898 -0.136425,-1.018026 0,-0.499921 0.140058,-1.111353 0.357084,-1.558044 0.639813,-1.316875 1.82228,-2.12811 3.289205,-2.25671 0.09345,-0.0082 0.19011,-0.01158 0.288871,-0.01033 z m -2.420007,0.235644 c 0.06977,-10e-4 0.111621,0.003 0.111621,0.01344 0,0.01214 -0.02734,0.04147 -0.06098,0.06511 -0.258364,0.181563 -0.561113,0.431044 -0.754993,0.622184 l -0.22996,0.226343 -0.284221,0.0088 c -0.156493,0.0049 -0.357147,0.02417 -0.445967,0.04237 -0.09004,0.0186 -0.161747,0.02305 -0.161747,0.01085 0,-0.03468 0.188541,-0.352672 0.290421,-0.489892 0.05088,-0.0685 0.0925,-0.134995 0.0925,-0.147795 0,-0.0128 0.03476,-0.05986 0.07752,-0.104903 0.07143,-0.0752 0.100198,-0.08587 0.35295,-0.131775 0.342214,-0.06218 0.803539,-0.111598 1.012858,-0.114722 z m -1.842265,0.307475 c 0.0041,-3.66e-4 0.0066,-7.9e-5 0.0078,10e-4 0.0051,0.0051 -0.0326,0.0728 -0.08372,0.150378 -0.133821,0.203066 -0.278244,0.480552 -0.325044,0.624251 -0.03767,0.11566 -0.05148,0.129977 -0.200505,0.211357 -0.233572,0.127574 -0.488221,0.325622 -0.74414,0.578259 -0.123952,0.12237 -0.229178,0.222726 -0.233578,0.222726 -0.08024,0 0.376213,-0.835182 0.657324,-1.203028 0.144904,-0.189583 0.208731,-0.252145 0.336931,-0.328145 0.147273,-0.0873 0.523835,-0.251347 0.584977,-0.256832 z m -2.367298,0.358118 c -0.0089,4.7e-5 -0.01791,0.0011 -0.02687,0.0026 -0.17342,0.02815 -0.232272,0.225333 -0.100253,0.336413 0.142796,0.120148 0.333313,0.04142 0.333313,-0.137976 0,-0.107177 -0.100602,-0.201573 -0.206189,-0.201021 z m 2.992066,0.613916 c 0.03784,8.21e-4 0.06098,0.0044 0.06098,0.01137 0,0.0048 -0.04933,0.08256 -0.110071,0.173116 -0.285161,0.425233 -0.514595,1.035592 -0.572575,1.522904 -0.01914,0.16088 -0.03896,0.182723 -0.09198,0.101803 -0.214079,-0.326727 -0.273042,-1.078712 -0.120922,-1.546159 0.04151,-0.127576 0.07254,-0.146081 0.355533,-0.213941 0.122972,-0.02947 0.365521,-0.05156 0.479041,-0.04909 z m -3.582727,0.412378 c -0.09363,0.0058 -0.178743,0.07603 -0.198954,0.181384 -0.01232,0.06422 -0.0029,0.08852 0.05788,0.149345 0.113046,0.11306 0.264157,0.09543 0.335897,-0.03927 0.0565,-0.106086 0.02397,-0.209547 -0.08423,-0.267167 -0.03583,-0.01908 -0.07395,-0.02655 -0.110587,-0.02429 z m 2.319238,0.115238 -0.01034,0.332796 c -0.0083,0.25913 -0.0014,0.374479 0.03101,0.520899 0.07774,0.350787 0.258073,0.739886 0.454752,0.981335 0.07542,0.09259 0.108306,0.157221 0.117306,0.22996 0.07228,0.587498 0.119379,0.808106 0.258899,1.21388 0.254282,0.739593 0.764127,1.465116 1.370459,1.950785 0.517901,0.414848 1.188174,0.729818 1.78232,0.837158 0.125016,0.02258 0.242916,0.04986 0.262516,0.06046 0.04129,0.02218 0.0062,0.03252 -0.238745,0.07028 -0.380084,0.05856 -1.059967,0.0077 -1.583883,-0.118339 -0.901197,-0.216814 -1.658871,-0.672065 -2.235522,-1.343071 -0.459178,-0.534303 -0.737249,-1.071606 -0.912089,-1.762683 -0.0606,-0.239522 -0.06486,-0.291003 -0.06511,-0.771012 -2e-4,-0.406798 0.0087,-0.556742 0.04289,-0.715202 0.127504,-0.591352 0.388284,-1.160006 0.646472,-1.41025 z m -0.884184,0.777214 c 0.01329,0.004 0.0049,0.04564 -0.02945,0.127641 -0.08659,0.206973 -0.173967,0.666463 -0.212907,1.117761 -0.01758,0.203704 0.03827,0.763362 0.10387,1.037146 0.166305,0.694161 0.512971,1.363623 0.973067,1.879988 0.623115,0.699314 1.180788,1.070327 2.047937,1.363225 0.897095,0.303021 2.152355,0.333655 3.046842,0.07441 0.29719,-0.08614 0.452648,-0.141448 0.801502,-0.286288 1.042083,-0.432621 1.307523,-0.583159 2.20865,-1.251086 0.351468,-0.260534 0.398942,-0.290411 0.398942,-0.250631 0,0.05453 -0.63464,0.614616 -1.057299,0.93276 -1.029147,0.774621 -2.022135,1.19892 -3.093352,1.3224 -0.362765,0.04174 -0.82881,0.05601 -1.028877,0.03101 -1.035387,-0.12938 -1.701999,-0.350492 -2.378667,-0.7891 -0.367151,-0.237983 -0.914947,-0.717349 -1.234033,-1.07952 -0.465911,-0.528854 -0.803053,-1.219723 -0.949813,-1.947168 -0.04714,-0.233222 -0.05459,-0.345179 -0.05478,-0.797884 -3.24e-4,-0.729532 0.0347,-0.917305 0.22686,-1.204578 0.126314,-0.18885 0.209364,-0.286762 0.23151,-0.280086 z m -1.974556,0.228926 c -0.0808,0.0071 -0.19482,0.122126 -0.19482,0.199471 0,0.07407 0.102869,0.200541 0.174149,0.213941 0.171436,0.03223 0.305609,-0.137392 0.241329,-0.304891 -0.01938,-0.05052 -0.133287,-0.108521 -0.212907,-0.108521 -0.0025,0 -0.0051,-2.29e-4 -0.0078,0 z m 1.131197,1.183907 0.01757,0.09612 c 0.0096,0.05264 0.01785,0.168525 0.0186,0.257865 0.0035,0.410134 0.114026,1.06976 0.264066,1.575098 0.197174,0.664085 0.385308,1.05725 0.810803,1.693953 0.379172,0.56737 0.894731,1.070189 1.405083,1.370459 0.136849,0.0805 0.24908,0.158866 0.24908,0.174666 0,0.01678 -0.06888,0.04013 -0.166398,0.05633 -0.368958,0.06093 -0.679646,0.01534 -1.018026,-0.149345 -0.824561,-0.401282 -1.448255,-1.39876 -1.715141,-2.742468 -0.0482,-0.242734 -0.05499,-0.34698 -0.05529,-0.885218 -3.6e-4,-0.635399 0.0252,-0.855653 0.149861,-1.303796 z m -1.37666,0.0078 c -0.05205,7.57e-4 -0.102962,0.02187 -0.13901,0.0677 -0.08564,0.108874 -0.04647,0.268694 0.07855,0.320394 0.12384,0.05122 0.278536,-0.05186 0.278536,-0.185519 0,-0.121757 -0.1115,-0.204122 -0.218074,-0.202571 z m 2.682523,3.249931 c 0,-0.01199 0.116303,0.09063 0.258383,0.227893 0.547237,0.528709 1.245576,0.973197 1.876888,1.194759 0.08882,0.03118 0.161254,0.06742 0.16123,0.08062 -2e-5,0.01328 -0.05121,0.05899 -0.113688,0.101286 -0.06248,0.04228 -0.151344,0.09135 -0.197404,0.109554 -0.08043,0.03172 -0.09029,0.02979 -0.251147,-0.05943 C 18.59849,53.915386 18.123364,53.495178 17.685676,52.912249 17.56229,52.747919 17.4614,52.603855 17.4614,52.591855 Z" />
      <path
         style="fill:#ffffff;fill-opacity:1;stroke:none;stroke-width:0.024;stroke-dasharray:none"
         d="m 21.751202,51.260847 c -0.02884,-0.012 -0.0719,-0.0516 -0.0957,-0.08792 -0.04072,-0.06216 -0.04366,-0.18392 -0.05006,-2.0768 -0.0038,-1.105925 -0.0013,-2.033147 0.0054,-2.060503 0.0068,-0.02734 0.03886,-0.07848 0.07144,-0.11364 0.08552,-0.09228 0.228724,-0.08852 0.384192,0.01 0.0642,0.04072 0.52657,0.367208 1.027506,0.72555 0.500928,0.358344 1.07227,0.761953 1.269622,0.896907 0.479758,0.328012 0.569104,0.426674 0.52946,0.584634 -0.02202,0.0877 -0.10674,0.15836 -0.548322,0.457294 -0.417436,0.282598 -0.820702,0.559314 -1.081674,0.742226 -0.242914,0.17024 -0.871382,0.617532 -1.001356,0.712642 -0.29377,0.214952 -0.396512,0.25713 -0.510516,0.209516 z"
         id="path1472-9" />
    </g>
  </g>
</svg>
