<?xml version="1.0" encoding="UTF-8" standalone="no"?>
<!-- Created with Inkscape (http://www.inkscape.org/) -->

<svg
   width="19.925537mm"
   height="16.621996mm"
   viewBox="0 0 19.925537 16.621997"
   version="1.1"
   id="svg9485"
   xml:space="preserve"
   inkscape:version="1.2.2 (732a01da63, 2022-12-09)"
   sodipodi:docname="search.svg"
   xmlns:inkscape="http://www.inkscape.org/namespaces/inkscape"
   xmlns:sodipodi="http://sodipodi.sourceforge.net/DTD/sodipodi-0.dtd"
   xmlns="http://www.w3.org/2000/svg"
   xmlns:svg="http://www.w3.org/2000/svg"><sodipodi:namedview
     id="namedview9487"
     pagecolor="#ffffff"
     bordercolor="#000000"
     borderopacity="0.25"
     inkscape:showpageshadow="2"
     inkscape:pageopacity="0.0"
     inkscape:pagecheckerboard="0"
     inkscape:deskcolor="#d1d1d1"
     inkscape:document-units="mm"
     showgrid="false"
     inkscape:zoom="8.3553674"
     inkscape:cx="43.744336"
     inkscape:cy="39.974305"
     inkscape:window-width="1920"
     inkscape:window-height="1009"
     inkscape:window-x="-8"
     inkscape:window-y="-8"
     inkscape:window-maximized="1"
     inkscape:current-layer="layer1" /><defs
     id="defs9482"><rect
       x="-22.500507"
       y="39.73494"
       width="112.7419"
       height="29.442154"
       id="rect9975" /></defs><g
     inkscape:label="Layer 1"
     inkscape:groupmode="layer"
     id="layer1"
     transform="translate(-13.895052,-27.978334)"><path
       id="path9643"
       style="fill:#000000;stroke-width:0.0222536"
       d="m 24.850571,27.978502 c -0.786329,0.0089 -1.585802,0.277243 -2.268199,0.861238 -1.603134,1.371962 -1.62366,3.968603 -0.04233,5.356935 0.176266,0.154754 0.188372,0.106672 -0.104195,0.42134 -0.136262,0.146554 -0.348337,0.376573 -0.471158,0.511207 -0.830241,0.910127 -1.074974,1.172002 -1.199221,1.222014 a 1.0551286,1.0551286 0 0 0 -0.482554,-0.117545 1.0551286,1.0551286 0 0 0 -1.055302,1.054976 1.0551286,1.0551286 0 0 0 1.055302,1.055302 1.0551286,1.0551286 0 0 0 1.055301,-1.055302 1.0551286,1.0551286 0 0 0 -0.124057,-0.494927 c 0.05138,-0.06585 0.144275,-0.163157 0.310306,-0.340588 0.143164,-0.152994 0.379783,-0.408099 0.52586,-0.567212 0.27297,-0.297333 0.909577,-0.97964 1.055954,-1.131495 0.08229,-0.08537 0.08254,-0.08526 0.268954,0.0085 2.38395,1.198627 5.217898,-0.684018 5.109796,-3.394483 -0.08075,-2.02465 -1.774791,-3.372234 -3.558265,-3.389926 -0.02534,-2.51e-4 -0.05083,-2.87e-4 -0.07619,0 z m 0.124709,0.556468 c 3.449566,0.01089 4.049588,5.020879 0.612471,5.95508 -0.19583,0.05322 -0.924222,0.09114 -1.101538,0.0573 -3.567676,-0.680725 -3.289775,-5.855636 0.32268,-6.008806 0.05619,-0.0024 0.111631,-0.0038 0.166387,-0.0036 z m -0.02735,0.660011 c -1.068171,-0.0067 -2.142681,0.634477 -2.408537,1.913284 -0.131189,0.631037 0.145814,1.712792 0.462041,1.804205 0.102061,0.0295 0.103456,0.02933 0.207088,-0.02084 0.176621,-0.0855 0.202098,-0.213454 0.08661,-0.435016 -0.941673,-1.806618 1.18221,-3.544894 2.815549,-2.304342 0.666956,0.506567 0.862648,1.474913 0.454226,2.247687 -0.139472,0.263895 -0.116684,0.427993 0.07001,0.505997 0.437074,0.182622 0.855837,-0.996576 0.65936,-1.856628 -0.281627,-1.232783 -1.311041,-1.847846 -2.346345,-1.854348 z m -0.112987,0.970317 c -0.272534,0.0023 -0.471158,0.08978 -0.471158,0.268629 0,0.177219 0.08647,0.233105 0.361753,0.234114 0.393265,0.0014 0.65704,0.07469 0.951107,0.264395 0.340351,0.219559 0.578088,-0.179162 0.248114,-0.41613 -0.324455,-0.233007 -0.760895,-0.353851 -1.089816,-0.351008 z m -4.552027,6.496245 a 0.64833196,0.64833196 0 0 1 0.648615,0.648289 0.64833196,0.64833196 0 0 1 -0.648615,0.648289 0.64833196,0.64833196 0 0 1 -0.648289,-0.648289 0.64833196,0.64833196 0 0 1 0.648289,-0.648289 z" /><text
       xml:space="preserve"
       transform="matrix(0.4108358,0,0,0.4108358,10.10445,22.355031)"
       id="text9973"
       style="font-size:16px;font-family:Comfortaa;-inkscape-font-specification:Comfortaa;text-align:center;white-space:pre;shape-inside:url(#rect9975);display:inline;fill:#000000;stroke-width:0.498898"><tspan
         x="8.9609375"
         y="54.146446"
         id="tspan10935">Search</tspan></text></g></svg>
