<?xml version="1.0" encoding="UTF-8" standalone="no"?>
<!-- Created with Inkscape (http://www.inkscape.org/) -->

<svg
   width="17.318144mm"
   height="4.101891mm"
   viewBox="0 0 17.318144 4.101891"
   version="1.1"
   id="svg33348"
   sodipodi:docname="l2text.svg"
   inkscape:version="1.2.2 (732a01da63, 2022-12-09)"
   xmlns:inkscape="http://www.inkscape.org/namespaces/inkscape"
   xmlns:sodipodi="http://sodipodi.sourceforge.net/DTD/sodipodi-0.dtd"
   xmlns="http://www.w3.org/2000/svg"
   xmlns:svg="http://www.w3.org/2000/svg">
  <sodipodi:namedview
     id="namedview33350"
     pagecolor="#ffffff"
     bordercolor="#000000"
     borderopacity="0.25"
     inkscape:showpageshadow="2"
     inkscape:pageopacity="0.0"
     inkscape:pagecheckerboard="0"
     inkscape:deskcolor="#d1d1d1"
     inkscape:document-units="mm"
     showgrid="false"
     inkscape:zoom="4.1776837"
     inkscape:cx="25.133545"
     inkscape:cy="61.876394"
     inkscape:window-width="1350"
     inkscape:window-height="1032"
     inkscape:window-x="386"
     inkscape:window-y="1"
     inkscape:window-maximized="0"
     inkscape:current-layer="layer1" />
  <defs
     id="defs33345">
    <rect
       x="-9.5746841"
       y="-3.5905063"
       width="90.959496"
       height="25.372911"
       id="rect36035" />
    <rect
       x="422.75"
       y="730"
       width="109.5"
       height="29"
       id="rect25186" />
  </defs>
  <g
     inkscape:label="Layer 1"
     inkscape:groupmode="layer"
     id="layer1"
     transform="translate(-78.727023,-78.414718)">
    <g
       aria-label="Classicus"
       transform="matrix(0.17896557,0,0,0.17896557,1.841985,-52.235372)"
       id="text25184"
       style="font-size:24px;font-family:Alba;-inkscape-font-specification:Alba;text-align:center;white-space:pre;shape-inside:url(#rect25186);display:inline;fill:#2b1100">
      <path
         d="m 442.95199,749.78119 q 0,1.368 -0.936,2.256 -0.912,0.912 -2.256,0.912 -4.272,0 -7.224,-2.952 -2.928,-2.928 -2.928,-7.2 0,-0.6 0.072,-1.2 -0.072,-0.6 -0.072,-1.2 0,-4.272 2.928,-7.2 2.952,-2.952 7.224,-2.952 1.368,0 2.28,0.912 0.912,0.888 0.912,2.256 0,0.624 -0.216,1.2 0.216,0.576 0.216,1.2 0,1.368 -0.912,2.28 -0.912,0.912 -2.256,0.912 -1.32,0 -2.304,0.72 -0.96,0.696 -1.344,1.872 0.384,1.176 1.344,1.896 0.984,0.696 2.304,0.696 1.344,0 2.256,0.912 0.912,0.912 0.912,2.28 0,0.648 -0.216,1.2 0.216,0.576 0.216,1.2 z m -1.56,-2.4 q 0,-0.72 -0.456,-1.176 -0.456,-0.456 -1.176,-0.456 -2.28,0 -3.816,-1.536 -1.536,-1.536 -1.536,-3.816 0,-2.28 1.536,-3.816 1.536,-1.536 3.816,-1.536 0.72,0 1.176,-0.456 0.456,-0.456 0.456,-1.176 0,-0.72 -0.456,-1.152 -0.456,-0.456 -1.176,-0.456 -3.624,0 -6.12,2.496 -2.472,2.472 -2.472,6.096 0,3.624 2.472,6.12 2.496,2.472 6.12,2.472 0.72,0 1.176,-0.432 0.456,-0.456 0.456,-1.176 z"
         style="font-family:'Alba Super';-inkscape-font-specification:'Alba Super';fill:#2b1100"
         id="path36802" />
      <path
         d="m 448.56798,749.73319 q 0,1.368 -0.936,2.256 -0.912,0.912 -2.256,0.912 -1.368,0 -2.28,-0.912 -0.888,-0.888 -0.888,-2.256 v -16.272 q 0,-1.368 0.888,-2.256 0.912,-0.912 2.28,-0.912 1.464,0 2.328,0.864 0.864,0.84 0.864,2.304 z m -1.56,-2.4 v -13.872 q 0,-1.608 -1.632,-1.608 -0.72,0 -1.176,0.456 -0.432,0.432 -0.432,1.152 v 13.872 q 0,0.72 0.432,1.176 0.456,0.432 1.176,0.432 0.72,0 1.176,-0.432 0.456,-0.456 0.456,-1.176 z"
         style="font-family:'Alba Super';-inkscape-font-specification:'Alba Super';fill:#2b1100"
         id="path36804" />
      <path
         d="m 463.136,749.73319 q 0,1.368 -0.936,2.256 -0.912,0.912 -2.256,0.912 -1.344,0 -2.232,-0.864 -0.912,0.912 -2.28,0.912 -3.264,0 -5.472,-2.232 -2.208,-2.208 -2.208,-5.472 0,-0.6 0.096,-1.2 -0.096,-0.6 -0.096,-1.2 0,-3.264 2.208,-5.472 2.208,-2.208 5.472,-2.208 3.264,0 5.472,2.232 2.232,2.208 2.232,5.448 z m -1.56,-2.4 v -4.488 q 0,-2.616 -1.776,-4.368 -1.752,-1.752 -4.368,-1.752 -2.616,0 -4.368,1.752 -1.752,1.752 -1.752,4.368 0,2.616 1.752,4.392 1.752,1.752 4.368,1.752 0.72,0 1.176,-0.456 0.456,-0.456 0.456,-1.176 0,-0.72 -0.456,-1.152 -0.456,-0.456 -1.176,-0.456 -1.2,0 -2.04,-0.84 -0.84,-0.864 -0.84,-2.064 0,-1.2 0.84,-2.04 0.84,-0.84 2.04,-0.84 1.2,0 2.04,0.84 0.864,0.84 0.864,2.04 v 4.488 q 0,0.72 0.432,1.176 0.456,0.432 1.176,0.432 0.72,0 1.176,-0.432 0.456,-0.456 0.456,-1.176 z m -5.16,-3 q -0.408,-0.408 -0.984,-0.408 -0.312,0 -0.576,0.12 0.24,0.12 0.744,0.168 0.6,0.048 0.816,0.12 z"
         style="font-family:'Alba Super';-inkscape-font-specification:'Alba Super';fill:#2b1100"
         id="path36806" />
      <path
         d="m 474.91998,740.73319 q 0,1.296 -0.864,2.184 -0.84,0.888 -2.136,0.984 0,-0.024 -0.048,-0.096 -0.048,-0.072 -0.048,-0.096 -0.024,0.6 -0.024,1.512 v 0.456 q 0,1.8 -0.264,2.76 -0.384,1.416 -1.56,2.616 -1.824,1.824 -4.44,1.824 -1.368,0 -2.28,-0.912 -0.888,-0.888 -0.888,-2.256 0,-0.624 0.216,-1.2 -0.216,-0.576 -0.216,-1.2 0,-1.344 0.864,-2.256 0.888,-0.912 2.232,-0.936 v -0.288 q 0,-0.264 0.024,-0.552 -0.024,-0.312 -0.024,-0.528 v -1.32 q 0,-2.64 1.8,-4.44 1.824,-1.824 4.464,-1.824 1.368,0 2.28,0.912 0.912,0.888 0.912,2.256 0,0.648 -0.216,1.2 0.216,0.552 0.216,1.2 z m -1.56,-2.4 q 0,-0.72 -0.456,-1.152 -0.456,-0.456 -1.176,-0.456 -1.992,0 -3.36,1.368 -1.344,1.344 -1.344,3.336 v 1.32 q 0,0.168 -0.024,0.984 0,0 0,0.48 0,0.624 -0.432,1.056 -0.408,0.408 -1.032,0.408 -0.72,0 -1.176,0.456 -0.432,0.456 -0.432,1.176 0,0.72 0.432,1.176 0.456,0.432 1.176,0.432 1.968,0 3.312,-1.368 1.368,-1.368 1.392,-3.336 l 0.024,-2.784 q 0,-0.36 0.048,-0.528 0.072,-0.192 0.384,-0.504 0.312,-0.312 1.08,-0.432 0.792,-0.144 1.176,-0.528 0.408,-0.408 0.408,-1.104 z"
         style="font-family:'Alba Super';-inkscape-font-specification:'Alba Super';fill:#2b1100"
         id="path36808" />
      <path
         d="m 486.48799,740.73319 q 0,1.296 -0.864,2.184 -0.84,0.888 -2.136,0.984 0,-0.024 -0.048,-0.096 -0.048,-0.072 -0.048,-0.096 -0.024,0.6 -0.024,1.512 v 0.456 q 0,1.8 -0.264,2.76 -0.384,1.416 -1.56,2.616 -1.824,1.824 -4.44,1.824 -1.368,0 -2.28,-0.912 -0.888,-0.888 -0.888,-2.256 0,-0.624 0.216,-1.2 -0.216,-0.576 -0.216,-1.2 0,-1.344 0.864,-2.256 0.888,-0.912 2.232,-0.936 v -0.288 q 0,-0.264 0.024,-0.552 -0.024,-0.312 -0.024,-0.528 v -1.32 q 0,-2.64 1.8,-4.44 1.824,-1.824 4.464,-1.824 1.368,0 2.28,0.912 0.912,0.888 0.912,2.256 0,0.648 -0.216,1.2 0.216,0.552 0.216,1.2 z m -1.56,-2.4 q 0,-0.72 -0.456,-1.152 -0.456,-0.456 -1.176,-0.456 -1.992,0 -3.36,1.368 -1.344,1.344 -1.344,3.336 v 1.32 q 0,0.168 -0.024,0.984 0,0 0,0.48 0,0.624 -0.432,1.056 -0.408,0.408 -1.032,0.408 -0.72,0 -1.176,0.456 -0.432,0.456 -0.432,1.176 0,0.72 0.432,1.176 0.456,0.432 1.176,0.432 1.968,0 3.312,-1.368 1.368,-1.368 1.392,-3.336 l 0.024,-2.784 q 0,-0.36 0.048,-0.528 0.072,-0.192 0.384,-0.504 0.312,-0.312 1.08,-0.432 0.792,-0.144 1.176,-0.528 0.408,-0.408 0.408,-1.104 z"
         style="font-family:'Alba Super';-inkscape-font-specification:'Alba Super';fill:#2b1100"
         id="path36810" />
      <path
         d="m 492.224,735.98119 q 0,0.912 -0.408,1.68 0.048,0.312 0.048,0.672 v 11.4 q 0,1.368 -0.936,2.256 -0.912,0.912 -2.256,0.912 -1.368,0 -2.28,-0.912 -0.888,-0.888 -0.888,-2.256 v -11.4 q 0,-0.336 0.048,-0.648 -0.432,-0.792 -0.432,-1.704 0,-0.624 0.216,-1.2 -0.216,-0.576 -0.216,-1.2 0,-1.464 1.032,-2.496 1.056,-1.056 2.52,-1.056 1.464,0 2.496,1.056 1.056,1.032 1.056,2.496 0,0.624 -0.216,1.2 0.216,0.576 0.216,1.2 z m -1.56,-2.4 q 0,-0.816 -0.6,-1.392 -0.576,-0.6 -1.392,-0.6 -0.816,0 -1.416,0.6 -0.576,0.576 -0.576,1.392 0,0.816 0.576,1.416 0.6,0.576 1.416,0.576 0.816,0 1.392,-0.576 0.6,-0.6 0.6,-1.416 z m -0.36,13.752 v -9 q 0,-1.608 -1.632,-1.608 -0.72,0 -1.176,0.456 -0.432,0.432 -0.432,1.152 v 9 q 0,0.72 0.432,1.176 0.456,0.432 1.176,0.432 0.72,0 1.176,-0.432 0.456,-0.456 0.456,-1.176 z"
         style="font-family:'Alba Super';-inkscape-font-specification:'Alba Super';fill:#2b1100"
         id="path36812" />
      <path
         d="m 501.94401,749.73319 q 0,1.368 -0.936,2.256 -0.912,0.912 -2.256,0.912 -3.24,0 -5.472,-2.232 -2.208,-2.208 -2.208,-5.448 0,-0.6 0.096,-1.2 -0.096,-0.6 -0.096,-1.2 0,-3.264 2.208,-5.472 2.208,-2.232 5.472,-2.232 1.368,0 2.28,0.912 0.912,0.912 0.912,2.28 0,0.624 -0.216,1.2 0.216,0.576 0.216,1.2 0,1.368 -0.912,2.28 -0.912,0.888 -2.28,0.888 -0.312,0 -0.576,0.144 0.264,0.12 0.576,0.12 1.368,0 2.28,0.912 0.912,0.912 0.912,2.28 0,0.648 -0.216,1.2 0.216,0.576 0.216,1.2 z m -1.56,-2.4 q 0,-0.72 -0.456,-1.176 -0.456,-0.456 -1.176,-0.456 -1.2,0 -2.04,-0.84 -0.84,-0.84 -0.84,-2.04 0,-1.2 0.84,-2.04 0.84,-0.864 2.04,-0.864 0.72,0 1.176,-0.432 0.456,-0.456 0.456,-1.176 0,-0.72 -0.456,-1.176 -0.456,-0.456 -1.176,-0.456 -2.616,0 -4.368,1.776 -1.752,1.752 -1.752,4.368 0,2.592 1.752,4.368 1.776,1.752 4.368,1.752 0.72,0 1.176,-0.432 0.456,-0.456 0.456,-1.176 z"
         style="font-family:'Alba Super';-inkscape-font-specification:'Alba Super';fill:#2b1100"
         id="path36814" />
      <path
         d="m 514.59202,746.15719 q 0,2.832 -1.944,4.776 -1.944,1.968 -4.776,1.968 -2.856,0 -4.8,-1.944 -1.944,-1.944 -1.944,-4.8 v -7.776 q 0,-1.368 0.888,-2.28 0.912,-0.912 2.28,-0.912 1.368,0 2.28,0.912 0.912,0.912 0.912,2.28 v 5.376 q 0,0.384 0.384,0.384 0.36,0 0.36,-0.384 v -5.424 q 0,-1.368 0.912,-2.256 0.912,-0.912 2.28,-0.912 1.368,0 2.256,0.912 0.912,0.888 0.912,2.256 z m -1.56,-2.4 v -5.424 q 0,-0.72 -0.456,-1.152 -0.432,-0.456 -1.152,-0.456 -0.72,0 -1.176,0.456 -0.456,0.432 -0.456,1.152 v 5.424 q 0,0.816 -0.552,1.392 -0.552,0.552 -1.368,0.552 -0.816,0 -1.392,-0.552 -0.552,-0.576 -0.552,-1.392 v -5.376 q 0,-0.72 -0.456,-1.176 -0.456,-0.456 -1.176,-0.456 -0.72,0 -1.176,0.456 -0.432,0.456 -0.432,1.176 v 5.376 q 0,2.232 1.464,3.72 1.488,1.464 3.72,1.464 2.208,0 3.672,-1.488 1.488,-1.488 1.488,-3.696 z"
         style="font-family:'Alba Super';-inkscape-font-specification:'Alba Super';fill:#2b1100"
         id="path36816" />
      <path
         d="m 526.37601,740.73319 q 0,1.296 -0.864,2.184 -0.84,0.888 -2.136,0.984 0,-0.024 -0.048,-0.096 -0.048,-0.072 -0.048,-0.096 -0.024,0.6 -0.024,1.512 v 0.456 q 0,1.8 -0.264,2.76 -0.384,1.416 -1.56,2.616 -1.824,1.824 -4.44,1.824 -1.368,0 -2.28,-0.912 -0.888,-0.888 -0.888,-2.256 0,-0.624 0.216,-1.2 -0.216,-0.576 -0.216,-1.2 0,-1.344 0.864,-2.256 0.888,-0.912 2.232,-0.936 v -0.288 q 0,-0.264 0.024,-0.552 -0.024,-0.312 -0.024,-0.528 v -1.32 q 0,-2.64 1.8,-4.44 1.824,-1.824 4.464,-1.824 1.368,0 2.28,0.912 0.912,0.888 0.912,2.256 0,0.648 -0.216,1.2 0.216,0.552 0.216,1.2 z m -1.56,-2.4 q 0,-0.72 -0.456,-1.152 -0.456,-0.456 -1.176,-0.456 -1.992,0 -3.36,1.368 -1.344,1.344 -1.344,3.336 v 1.32 q 0,0.168 -0.024,0.984 0,0 0,0.48 0,0.624 -0.432,1.056 -0.408,0.408 -1.032,0.408 -0.72,0 -1.176,0.456 -0.432,0.456 -0.432,1.176 0,0.72 0.432,1.176 0.456,0.432 1.176,0.432 1.968,0 3.312,-1.368 1.368,-1.368 1.392,-3.336 l 0.024,-2.784 q 0,-0.36 0.048,-0.528 0.072,-0.192 0.384,-0.504 0.312,-0.312 1.08,-0.432 0.792,-0.144 1.176,-0.528 0.408,-0.408 0.408,-1.104 z"
         style="font-family:'Alba Super';-inkscape-font-specification:'Alba Super';fill:#2b1100"
         id="path36818" />
    </g>
    <text
       xml:space="preserve"
       transform="matrix(0.26458333,0,0,0.26458333,78.954665,78.414718)"
       id="text36033"
       style="font-style:normal;font-variant:normal;font-weight:normal;font-stretch:normal;font-size:24px;font-family:'Alba Super';-inkscape-font-specification:'Alba Super';text-align:center;white-space:pre;shape-inside:url(#rect36035);display:inline;fill:#de8787" />
  </g>
</svg>
