<?xml version="1.0" encoding="UTF-8" standalone="no"?>
<!-- Created with Inkscape (http://www.inkscape.org/) -->

<svg
   width="17.554386mm"
   height="5.0382385mm"
   viewBox="0 0 17.554386 5.0382385"
   version="1.1"
   id="svg33348"
   sodipodi:docname="libstext.svg"
   inkscape:version="1.2.2 (732a01da63, 2022-12-09)"
   xmlns:inkscape="http://www.inkscape.org/namespaces/inkscape"
   xmlns:sodipodi="http://sodipodi.sourceforge.net/DTD/sodipodi-0.dtd"
   xmlns="http://www.w3.org/2000/svg"
   xmlns:svg="http://www.w3.org/2000/svg">
  <sodipodi:namedview
     id="namedview33350"
     pagecolor="#ffffff"
     bordercolor="#000000"
     borderopacity="0.25"
     inkscape:showpageshadow="2"
     inkscape:pageopacity="0.0"
     inkscape:pagecheckerboard="0"
     inkscape:deskcolor="#d1d1d1"
     inkscape:document-units="mm"
     showgrid="false"
     inkscape:zoom="4.1776837"
     inkscape:cx="25.612279"
     inkscape:cy="61.876394"
     inkscape:window-width="1350"
     inkscape:window-height="1032"
     inkscape:window-x="386"
     inkscape:window-y="1"
     inkscape:window-maximized="0"
     inkscape:current-layer="layer1" />
  <defs
     id="defs33345">
    <rect
       x="-9.5746841"
       y="-3.5905063"
       width="90.959496"
       height="25.372911"
       id="rect36035" />
    <rect
       x="422.75"
       y="730"
       width="109.5"
       height="29"
       id="rect25186" />
  </defs>
  <g
     inkscape:label="Layer 1"
     inkscape:groupmode="layer"
     id="layer1"
     transform="translate(-78.602459,-78.414718)">
    <g
       aria-label="Openlibs"
       transform="matrix(0.17896557,0,0,0.17896557,1.841985,-52.235372)"
       id="text25184"
       style="font-size:24px;font-family:Alba;-inkscape-font-specification:Alba;text-align:center;white-space:pre;shape-inside:url(#rect25186);display:inline">
      <path
         d="m 449.21596,742.79719 q 0,4.248 -2.952,7.2 -2.952,2.952 -7.2,2.952 -4.272,0 -7.224,-2.952 -2.928,-2.928 -2.928,-7.2 0,-0.6 0.072,-1.2 -0.072,-0.6 -0.072,-1.2 0,-4.272 2.928,-7.2 2.952,-2.952 7.224,-2.952 4.272,0 7.2,2.952 2.952,2.928 2.952,7.2 0,0.624 -0.072,1.224 0.072,0.576 0.072,1.176 z m -1.56,-2.4 q 0,-3.624 -2.496,-6.096 -2.472,-2.496 -6.096,-2.496 -3.624,0 -6.12,2.496 -2.472,2.472 -2.472,6.096 0,3.624 2.472,6.12 2.496,2.472 6.12,2.472 3.624,0 6.096,-2.472 2.496,-2.496 2.496,-6.12 z m -3.24,0 q 0,2.28 -1.536,3.816 -1.536,1.536 -3.816,1.536 -2.256,0 -3.816,-1.536 -1.536,-1.536 -1.536,-3.816 0,-2.304 1.536,-3.816 1.536,-1.536 3.816,-1.536 2.28,0 3.816,1.536 1.536,1.536 1.536,3.816 z m -1.728,1.176 q -0.264,-0.816 -0.912,-1.488 -1.104,-1.08 -2.712,-1.08 -1.296,0 -2.28,0.72 -0.984,0.696 -1.32,1.872 0.36,1.152 1.32,1.872 0.984,0.72 2.28,0.72 1.296,0 2.28,-0.72 0.984,-0.72 1.344,-1.896 z"
         style="font-family:'Alba Super';-inkscape-font-specification:'Alba Super'"
         id="path39949" />
      <path
         d="m 463.75998,745.24519 q 0,3.24 -2.232,5.472 -2.232,2.232 -5.472,2.232 -0.696,0 -1.32,-0.264 v 1.944 q 0,1.368 -0.912,2.28 -0.912,0.912 -2.28,0.912 -1.368,0 -2.28,-0.912 -0.888,-0.912 -0.888,-2.28 v -11.784 q 0,-3.264 2.208,-5.472 2.208,-2.208 5.472,-2.208 3.264,0 5.472,2.208 2.232,2.208 2.232,5.472 0,0.624 -0.096,1.224 0.096,0.576 0.096,1.176 z m -7.104,-1.2 q -0.288,-0.12 -0.6,-0.12 -0.576,0 -0.96,0.408 0.552,-0.024 1.56,-0.288 z m 5.544,-1.2 q 0,-2.616 -1.776,-4.368 -1.752,-1.752 -4.368,-1.752 -2.616,0 -4.368,1.752 -1.752,1.752 -1.752,4.368 v 9.384 q 0,0.72 0.432,1.176 0.456,0.456 1.176,0.456 0.72,0 1.176,-0.456 0.456,-0.456 0.456,-1.176 v -9.384 q 0,-1.2 0.84,-2.04 0.84,-0.84 2.04,-0.84 1.2,0 2.04,0.84 0.864,0.84 0.864,2.04 0,1.2 -0.864,2.064 -0.84,0.84 -2.04,0.84 -0.72,0 -1.176,0.456 -0.432,0.432 -0.432,1.152 0,0.72 0.432,1.176 0.456,0.456 1.176,0.456 2.616,0 4.368,-1.752 1.776,-1.776 1.776,-4.392 z"
         style="font-family:'Alba Super';-inkscape-font-specification:'Alba Super'"
         id="path39951" />
      <path
         d="m 477.00799,742.10119 q 0,1.512 -1.224,2.496 -0.192,0.192 -0.672,0.696 0.72,0.864 0.72,2.064 0,0.624 -0.216,1.2 0.216,0.576 0.216,1.2 0,1.368 -0.912,2.28 -0.888,0.912 -2.256,0.912 h -2.136 q -3.24,0 -5.472,-2.232 -2.208,-2.208 -2.208,-5.472 0,-0.6 0.096,-1.2 -0.096,-0.6 -0.096,-1.2 0,-3.264 2.208,-5.472 2.208,-2.208 5.472,-2.208 2.136,0 4.152,1.176 2.328,1.344 2.328,3.36 0,0.648 -0.24,1.2 0.24,0.576 0.24,1.2 z m -1.56,-2.4 q 0,-0.6 -0.48,-1.104 -1.824,-1.872 -4.44,-1.872 -2.616,0 -4.368,1.752 -1.752,1.752 -1.752,4.368 0,2.616 1.752,4.392 1.752,1.752 4.368,1.752 h 2.136 q 0.72,0 1.152,-0.456 0.456,-0.456 0.456,-1.176 0,-0.72 -0.456,-1.152 -0.432,-0.456 -1.152,-0.456 h -2.136 q -1.2,0 -2.04,-0.84 -0.84,-0.864 -0.84,-2.064 0,-1.2 0.84,-2.04 0.84,-0.84 2.04,-0.84 0.312,0 0.624,0.048 l -1.728,1.704 q -0.528,0.528 -0.528,1.128 0,0.672 0.48,1.176 0.504,0.504 1.176,0.504 0.6,0 1.128,-0.504 l 3.072,-3 q 0.696,-0.528 0.696,-1.32 z"
         style="font-family:'Alba Super';-inkscape-font-specification:'Alba Super'"
         id="path39953" />
      <path
         d="m 493.328,755.01319 q 0,1.368 -0.936,2.256 -0.912,0.912 -2.256,0.912 -2.904,0 -4.872,-1.92 -1.968,-1.92 -1.968,-4.824 v -1.128 l -0.024,-6.024 q 0,-0.36 -0.36,-0.36 -0.384,0 -0.384,0.36 v 5.448 q 0,1.368 -0.912,2.256 -0.912,0.912 -2.28,0.912 -1.368,0 -2.28,-0.912 -0.888,-0.888 -0.888,-2.256 v -7.848 q 0,-2.832 1.944,-4.776 1.968,-1.944 4.8,-1.944 2.832,0 4.776,1.944 1.968,1.944 1.968,4.776 v 7.152 q 0,0.384 0.384,0.384 1.416,0 2.352,0.888 0.936,0.912 0.936,2.304 0,0.648 -0.216,1.2 0.216,0.552 0.216,1.2 z m -1.56,-2.4 q 0,-0.72 -0.456,-1.176 -0.456,-0.456 -1.176,-0.456 h -0.096 q -0.816,0 -1.392,-0.576 -0.552,-0.552 -0.552,-1.368 v -7.152 q 0,-2.208 -1.488,-3.672 -1.488,-1.488 -3.696,-1.488 -2.208,0 -3.696,1.488 -1.488,1.464 -1.488,3.672 v 5.448 q 0,0.72 0.432,1.176 0.456,0.432 1.176,0.432 0.72,0 1.176,-0.432 0.456,-0.456 0.456,-1.176 v -5.448 q 0,-0.816 0.552,-1.368 0.576,-0.552 1.392,-0.552 0.792,0 1.344,0.576 0.576,0.552 0.576,1.344 l 0.024,7.152 q 0,2.232 1.464,3.696 1.488,1.488 3.72,1.488 h 0.096 q 0.72,0 1.176,-0.456 0.456,-0.432 0.456,-1.152 z"
         style="font-family:'Alba Super';-inkscape-font-specification:'Alba Super'"
         id="path39955" />
      <path
         d="m 495.17601,749.73319 q 0,1.368 -0.936,2.256 -0.912,0.912 -2.256,0.912 -1.368,0 -2.28,-0.912 -0.888,-0.888 -0.888,-2.256 v -16.272 q 0,-1.368 0.888,-2.256 0.912,-0.912 2.28,-0.912 1.464,0 2.328,0.864 0.864,0.84 0.864,2.304 z m -1.56,-2.4 v -13.872 q 0,-1.608 -1.632,-1.608 -0.72,0 -1.176,0.456 -0.432,0.432 -0.432,1.152 v 13.872 q 0,0.72 0.432,1.176 0.456,0.432 1.176,0.432 0.72,0 1.176,-0.432 0.456,-0.456 0.456,-1.176 z"
         style="font-family:'Alba Super';-inkscape-font-specification:'Alba Super'"
         id="path39957" />
      <path
         d="m 501.08003,735.98119 q 0,0.912 -0.408,1.68 0.048,0.312 0.048,0.672 v 11.4 q 0,1.368 -0.936,2.256 -0.912,0.912 -2.256,0.912 -1.368,0 -2.28,-0.912 -0.888,-0.888 -0.888,-2.256 v -11.4 q 0,-0.336 0.048,-0.648 -0.432,-0.792 -0.432,-1.704 0,-0.624 0.216,-1.2 -0.216,-0.576 -0.216,-1.2 0,-1.464 1.032,-2.496 1.056,-1.056 2.52,-1.056 1.464,0 2.496,1.056 1.056,1.032 1.056,2.496 0,0.624 -0.216,1.2 0.216,0.576 0.216,1.2 z m -1.56,-2.4 q 0,-0.816 -0.6,-1.392 -0.576,-0.6 -1.392,-0.6 -0.816,0 -1.416,0.6 -0.576,0.576 -0.576,1.392 0,0.816 0.576,1.416 0.6,0.576 1.416,0.576 0.816,0 1.392,-0.576 0.6,-0.6 0.6,-1.416 z m -0.36,13.752 v -9 q 0,-1.608 -1.632,-1.608 -0.72,0 -1.176,0.456 -0.432,0.432 -0.432,1.152 v 9 q 0,0.72 0.432,1.176 0.456,0.432 1.176,0.432 0.72,0 1.176,-0.432 0.456,-0.456 0.456,-1.176 z"
         style="font-family:'Alba Super';-inkscape-font-specification:'Alba Super'"
         id="path39959" />
      <path
         d="m 515.31204,745.22119 q 0,3.216 -2.256,5.448 -2.232,2.232 -5.448,2.232 -3.24,0 -5.472,-2.232 -2.208,-2.208 -2.208,-5.448 v -11.808 q 0,-1.344 0.912,-2.256 0.912,-0.912 2.256,-0.912 1.368,0 2.28,0.912 0.912,0.888 0.912,2.256 v 1.968 q 0.624,-0.264 1.32,-0.264 3.264,0 5.472,2.232 2.232,2.208 2.232,5.472 0,0.624 -0.096,1.2 0.096,0.6 0.096,1.2 z m -1.56,-2.4 q 0,-2.616 -1.776,-4.368 -1.752,-1.776 -4.368,-1.776 -0.72,0 -1.176,0.456 -0.432,0.456 -0.432,1.176 0,0.72 0.432,1.176 0.456,0.432 1.176,0.432 1.2,0 2.04,0.864 0.864,0.84 0.864,2.04 0,1.2 -0.864,2.04 -0.84,0.84 -2.04,0.84 -1.2,0 -2.04,-0.84 -0.84,-0.84 -0.84,-2.04 v -9.408 q 0,-0.72 -0.456,-1.152 -0.456,-0.456 -1.176,-0.456 -0.696,0 -1.152,0.456 -0.456,0.456 -0.456,1.152 v 9.408 q 0,2.592 1.752,4.368 1.776,1.752 4.368,1.752 2.592,0 4.368,-1.752 1.776,-1.776 1.776,-4.368 z m -5.544,1.2 q -0.264,-0.12 -0.768,-0.168 -0.576,-0.048 -0.792,-0.12 0.384,0.408 0.96,0.408 0.312,0 0.6,-0.12 z"
         style="font-family:'Alba Super';-inkscape-font-specification:'Alba Super'"
         id="path39961" />
      <path
         d="m 527.00003,740.73319 q 0,1.296 -0.864,2.184 -0.84,0.888 -2.136,0.984 0,-0.024 -0.048,-0.096 -0.048,-0.072 -0.048,-0.096 -0.024,0.6 -0.024,1.512 v 0.456 q 0,1.8 -0.264,2.76 -0.384,1.416 -1.56,2.616 -1.824,1.824 -4.44,1.824 -1.368,0 -2.28,-0.912 -0.888,-0.888 -0.888,-2.256 0,-0.624 0.216,-1.2 -0.216,-0.576 -0.216,-1.2 0,-1.344 0.864,-2.256 0.888,-0.912 2.232,-0.936 v -0.288 q 0,-0.264 0.024,-0.552 -0.024,-0.312 -0.024,-0.528 v -1.32 q 0,-2.64 1.8,-4.44 1.824,-1.824 4.464,-1.824 1.368,0 2.28,0.912 0.912,0.888 0.912,2.256 0,0.648 -0.216,1.2 0.216,0.552 0.216,1.2 z m -1.56,-2.4 q 0,-0.72 -0.456,-1.152 -0.456,-0.456 -1.176,-0.456 -1.992,0 -3.36,1.368 -1.344,1.344 -1.344,3.336 v 1.32 q 0,0.168 -0.024,0.984 0,0 0,0.48 0,0.624 -0.432,1.056 -0.408,0.408 -1.032,0.408 -0.72,0 -1.176,0.456 -0.432,0.456 -0.432,1.176 0,0.72 0.432,1.176 0.456,0.432 1.176,0.432 1.968,0 3.312,-1.368 1.368,-1.368 1.392,-3.336 l 0.024,-2.784 q 0,-0.36 0.048,-0.528 0.072,-0.192 0.384,-0.504 0.312,-0.312 1.08,-0.432 0.792,-0.144 1.176,-0.528 0.408,-0.408 0.408,-1.104 z"
         style="font-family:'Alba Super';-inkscape-font-specification:'Alba Super'"
         id="path39963" />
    </g>
    <text
       xml:space="preserve"
       transform="matrix(0.26458333,0,0,0.26458333,78.954665,78.414718)"
       id="text36033"
       style="font-style:normal;font-variant:normal;font-weight:normal;font-stretch:normal;font-size:24px;font-family:'Alba Super';-inkscape-font-specification:'Alba Super';text-align:center;white-space:pre;shape-inside:url(#rect36035);display:inline;fill:#de8787" />
  </g>
</svg>
