<?xml version="1.0" encoding="UTF-8" standalone="no"?>
<!-- Created with Inkscape (http://www.inkscape.org/) -->

<svg
   width="116.27251"
   height="85.319763"
   viewBox="0 0 30.763769 22.574179"
   version="1.1"
   id="svg1563"
   xml:space="preserve"
   inkscape:version="1.2.2 (732a01da63, 2022-12-09)"
   sodipodi:docname="logomobile.svg"
   xmlns:inkscape="http://www.inkscape.org/namespaces/inkscape"
   xmlns:sodipodi="http://sodipodi.sourceforge.net/DTD/sodipodi-0.dtd"
   xmlns="http://www.w3.org/2000/svg"
   xmlns:svg="http://www.w3.org/2000/svg"><sodipodi:namedview
     id="namedview1565"
     pagecolor="#ffffff"
     bordercolor="#000000"
     borderopacity="0.25"
     inkscape:showpageshadow="2"
     inkscape:pageopacity="0.0"
     inkscape:pagecheckerboard="0"
     inkscape:deskcolor="#d1d1d1"
     inkscape:document-units="mm"
     showgrid="false"
     inkscape:zoom="2.9540685"
     inkscape:cx="-26.912037"
     inkscape:cy="41.976007"
     inkscape:window-width="1920"
     inkscape:window-height="1009"
     inkscape:window-x="-8"
     inkscape:window-y="-8"
     inkscape:window-maximized="1"
     inkscape:current-layer="layer1" /><defs
     id="defs1560" /><g
     inkscape:label="Layer 1"
     inkscape:groupmode="layer"
     id="layer1"
     transform="translate(-75.613082,-77.644824)"><path
       style="fill:#d45500;stroke-width:0.0382418"
       d="m 83.624573,100.20252 c -0.628595,-0.0308 -1.512087,-0.18149 -1.732465,-0.295448 -0.237389,-0.122758 -0.30101,-0.501997 -0.117064,-0.697801 0.146742,-0.156197 0.263979,-0.161456 1.046447,-0.04693 0.399629,0.05849 0.823859,0.107134 0.942734,0.108096 0.20076,0.0016 0.221459,-0.0067 0.290993,-0.116486 l 0.07486,-0.118229 -0.184573,-0.172648 c -0.245727,-0.229847 -0.370893,-0.453479 -0.440408,-0.786873 -0.182465,-0.875108 0.419647,-1.637165 1.433693,-1.814546 0.353022,-0.06175 0.514529,-0.05963 2.463316,0.03242 l 1.024109,0.04836 0.02328,0.09279 c 0.01282,0.05103 0.01353,0.258494 0.0016,0.461023 -0.02392,0.40644 -0.115359,0.719863 -0.294551,1.009537 -0.141205,0.228268 -0.104867,0.20977 0.426136,-0.216928 0.401645,-0.322753 1.070037,-1.027401 1.363804,-1.437783 0.34764,-0.485642 0.918725,-1.453386 0.857465,-1.453034 -0.0155,8.1e-5 -0.105603,0.05268 -0.200253,0.116857 -0.855977,0.580431 -1.831949,0.772059 -3.480016,0.683287 -1.014992,-0.05467 -2.147358,-0.04541 -2.581332,0.02111 -1.630127,0.249885 -2.881896,0.967398 -3.657159,2.096281 -0.204292,0.297472 -0.530336,0.917537 -0.530336,1.008578 0,0.0184 -0.05288,0.09761 -0.117509,0.176012 -0.09859,0.119607 -0.141245,0.142563 -0.264918,0.142563 -0.30186,0 -0.38885,-0.313339 -0.215125,-0.774882 0.676582,-1.79751 2.418247,-3.046501 4.654747,-3.338021 0.356902,-0.04652 0.830319,-0.0557 2.428364,-0.04707 l 1.985031,0.01072 0.344179,-0.107279 c 0.669757,-0.208766 1.046788,-0.434497 1.517583,-0.908582 0.242886,-0.24458 0.327263,-0.364533 0.48655,-0.691671 0.304636,-0.625662 0.364798,-0.9323 0.362761,-1.848965 -0.0019,-0.837518 -0.06931,-1.33495 -0.285725,-2.107108 -0.435646,-1.554357 -1.524088,-3.097834 -2.91419,-4.132499 -0.440827,-0.328108 -0.69446,-0.482678 -1.289408,-0.785797 -0.241879,-0.123233 -0.486492,-0.267372 -0.543581,-0.320309 -0.200501,-0.185916 -0.174465,-0.508679 0.05417,-0.671481 0.198225,-0.141147 0.440365,-0.0897 1.072968,0.227968 0.990429,0.497357 1.763071,1.060239 2.468721,1.798509 1.672966,1.7503 2.541866,4.033882 2.438703,6.40924 -0.06011,1.384065 -0.337051,2.479393 -0.938443,3.711606 -0.427508,0.875934 -0.969438,1.631338 -1.672589,2.331435 -1.439488,1.433237 -3.170792,2.218668 -5.270069,2.390838 -0.443187,0.0363 -0.535193,0.0375 -1.032531,0.0131 z"
       id="path1710" /><path
       style="fill:#d45500;stroke-width:0.0382418"
       d="m 88.709206,93.237656 c -0.283959,-0.137189 -0.520724,-0.395858 -0.631964,-0.690435 -0.2067,-0.54736 0.05586,-1.2074 0.592841,-1.490284 0.170404,-0.08978 0.23722,-0.102014 0.556935,-0.102014 0.319712,0 0.386528,0.01224 0.556932,0.102014 0.23172,0.122074 0.454261,0.358403 0.565381,0.600417 0.06139,0.133712 0.08106,0.251282 0.08076,0.482701 -6.46e-4,0.378067 -0.103921,0.636325 -0.343166,0.856852 -0.266487,0.24564 -0.450163,0.321149 -0.821673,0.337791 -0.296872,0.0133 -0.345083,0.0049 -0.556051,-0.09704 z"
       id="path1720" /><path
       style="fill:#000000;stroke-width:0.0382418"
       d="M 83.435531,94.215733 C 83.382236,94.139646 83.376,93.472519 83.376,87.848451 v -6.28229 h -0.253858 c -0.242345,0 -0.261264,0.0068 -0.417228,0.150592 -0.272924,0.251573 -0.604962,0.243977 -0.805099,-0.01843 -0.140186,-0.183792 -0.155459,-0.37869 -0.04632,-0.591078 0.176759,-0.343976 0.576532,-0.401261 0.862547,-0.123598 0.134859,0.130926 0.158968,0.139598 0.392263,0.141108 l 0.248574,0.0016 v -0.40154 -0.401539 l -0.241377,-0.01143 c -0.22343,-0.01059 -0.251468,-0.0026 -0.377107,0.107727 -0.225975,0.19841 -0.449192,0.243541 -0.661506,0.133748 -0.35117,-0.181597 -0.363183,-0.735434 -0.02082,-0.959763 0.207751,-0.136124 0.576392,-0.04279 0.701826,0.177691 0.06102,0.107262 0.07472,0.111788 0.338938,0.112017 l 0.275347,2.33e-4 0.01147,-0.219894 0.01147,-0.219891 0.144651,0.0045 c 0.141812,0.0044 0.142938,0.0035 0.05736,-0.05366 -0.403418,-0.268703 -0.573833,-0.697608 -0.436877,-1.099551 0.08657,-0.254072 0.212048,-0.403063 0.450155,-0.534509 0.619913,-0.342223 1.417639,0.11781 1.417639,0.817525 0,0.120389 -0.02537,0.279634 -0.0564,0.353878 -0.0747,0.178781 -0.28496,0.414452 -0.428557,0.480357 l -0.115437,0.05298 0.125851,-0.0237 c 0.177727,-0.03345 0.237446,0.0308 0.237446,0.255469 v 0.186527 h 0.284237 c 0.248526,0 0.287223,-0.0094 0.307981,-0.07481 0.04624,-0.145711 0.241823,-0.269374 0.426029,-0.269374 0.282622,0 0.49975,0.164478 0.563008,0.426488 0.120986,0.501112 -0.575795,0.844368 -0.940358,0.463251 -0.09486,-0.09917 -0.118132,-0.10498 -0.372343,-0.09303 l -0.271159,0.01275 0.01088,0.388791 0.01085,0.388791 0.270417,0.01111 c 0.257374,0.01056 0.27255,0.0064 0.314715,-0.08613 0.05833,-0.128027 0.262962,-0.249701 0.420244,-0.249882 0.206257,-2.26e-4 0.410123,0.128553 0.501151,0.316588 0.100796,0.20822 0.100593,0.267762 -0.0016,0.478937 -0.06348,0.131123 -0.120564,0.186688 -0.251147,0.244451 -0.240778,0.106507 -0.434416,0.06719 -0.622231,-0.126338 -0.139287,-0.143523 -0.153743,-0.14894 -0.397591,-0.14894 h -0.253045 v 6.193393 c 0,4.457567 -0.01191,6.219511 -0.04246,6.286581 -0.0816,0.179102 -0.319951,0.206048 -0.425422,0.0481 -0.01546,-0.02315 -0.02834,-2.679339 -0.02867,-5.902652 -6.45e-4,-5.809193 -0.0013,-5.861249 -0.07707,-5.937062 -0.04207,-0.04207 -0.102298,-0.07648 -0.133845,-0.07648 -0.03154,0 -0.09178,0.03441 -0.133847,0.07648 -0.07582,0.07582 -0.07648,0.127475 -0.07648,5.948519 0,6.528186 0.01747,6.097692 -0.247386,6.097692 -0.09171,0 -0.148457,-0.02534 -0.190229,-0.08499 z"
       id="path1718" /><path
       style="fill:#000000;stroke-width:0.0382418"
       d="m 86.694368,94.386993 -0.333739,-0.01275 -0.173697,-0.243412 c -0.200127,-0.28045 -0.354545,-0.604943 -0.493493,-1.037006 -0.218303,-0.678819 -0.214132,-0.600611 -0.214132,-4.015638 0,-3.639948 -0.05953,-3.257549 0.465488,-2.990423 0.644871,0.328116 1.231781,1.053845 1.38791,1.716181 0.07919,0.335947 0.07266,0.86254 -0.01585,1.276744 -0.04045,0.189296 -0.100477,0.46797 -0.133402,0.619273 -0.08411,0.386509 -0.03504,0.607423 0.171877,0.773705 0.167321,0.134461 0.193054,0.250711 0.08387,0.378867 -0.08083,0.09488 -0.130458,0.104341 -0.353739,0.06746 -0.210225,-0.03472 -0.326969,0.0062 -0.488399,0.171351 -0.487689,0.49882 -0.314518,1.824601 0.330175,2.527784 0.311299,0.339544 0.678806,0.478944 0.938176,0.355866 0.252906,-0.120011 0.492027,0.0409 0.404173,0.271976 -0.02292,0.06025 -0.06209,0.122542 -0.08706,0.138422 -0.04351,0.02763 -0.783909,0.02847 -1.488164,0.0016 z"
       id="path1716" /><path
       style="fill:#000000;stroke-width:0.0382418"
       d="m 78.691361,98.164682 c -0.09536,-0.03941 -0.778297,-0.731305 -1.081702,-1.095897 -0.766138,-0.920645 -1.407157,-2.205938 -1.725615,-3.459987 -0.554814,-2.1848 -0.250849,-4.49117 0.849713,-6.447314 0.71871,-1.277439 1.709045,-2.339879 2.959556,-3.175047 0.587487,-0.392358 1.216179,-0.705113 1.465581,-0.72908 0.355974,-0.03422 0.564509,0.14843 0.522982,0.458035 -0.03204,0.238853 -0.115498,0.320057 -0.565535,0.550259 -1.255601,0.642251 -2.24081,1.504659 -3.067699,2.685326 -0.402624,0.574882 -0.651321,1.031789 -0.883992,1.624078 -0.318304,0.810271 -0.49931,1.675901 -0.544393,2.603455 -0.0743,1.528698 0.40984,3.251858 1.291411,4.596399 0.249399,0.380375 0.722611,0.971091 0.944699,1.179276 l 0.117739,0.110371 0.02324,-0.110371 c 0.116523,-0.553297 0.414326,-1.278142 0.799129,-1.945058 0.187605,-0.325146 0.221314,-0.511414 0.117409,-0.648787 -0.05939,-0.07852 -0.07221,-0.2027 -0.03181,-0.30799 0.04138,-0.107828 0.193914,-0.140879 0.371664,-0.08053 0.453181,0.153857 0.964561,-0.203681 1.30721,-0.913957 0.426728,-0.88456 0.362139,-1.800018 -0.147196,-2.086282 -0.12602,-0.07083 -0.181813,-0.07894 -0.389888,-0.05665 -0.214688,0.02302 -0.252002,0.01682 -0.322054,-0.05323 -0.124289,-0.124288 -0.101079,-0.249284 0.07214,-0.388481 0.120996,-0.09724 0.159949,-0.160907 0.194117,-0.317297 0.03815,-0.174601 0.02977,-0.251215 -0.07784,-0.711922 -0.154078,-0.659637 -0.186884,-1.182069 -0.09903,-1.57697 0.124896,-0.561381 0.439057,-1.058633 0.913731,-1.446255 0.237335,-0.193806 0.797009,-0.495033 0.919763,-0.495033 0.06118,0 0.0644,0.20371 0.05103,3.221883 -0.01255,2.832356 -0.02193,3.254208 -0.07759,3.489252 -0.151717,0.640612 -0.396775,1.231574 -0.70126,1.6911 -0.191566,0.289111 -0.51227,0.609695 -1.006596,1.006221 -0.829168,0.665124 -1.394369,1.378596 -1.763949,2.226699 -0.294149,0.675004 -0.286913,0.664957 -0.434962,0.603785 z"
       id="path1714" /><text
       xml:space="preserve"
       style="font-style:normal;font-variant:normal;font-weight:normal;font-stretch:normal;font-size:3.87951px;line-height:0;font-family:BPreplay;-inkscape-font-specification:BPreplay;text-align:center;text-anchor:middle;fill:#000000;stroke-width:0.223818"
       x="98.464592"
       y="82.427856"
       id="text278"><tspan
         sodipodi:role="line"
         id="tspan276"
         style="stroke-width:0.223818"
         x="98.464592"
         y="82.427856">Classicus</tspan></text></g></svg>
