<?xml version="1.0" encoding="UTF-8" standalone="no"?>
<!-- Created with Inkscape (http://www.inkscape.org/) -->

<svg
   width="22.000021mm"
   height="28.423985mm"
   viewBox="0 0 22.000021 28.423985"
   version="1.1"
   id="svg33146"
   sodipodi:docname="logo2.svg"
   inkscape:version="1.2.2 (732a01da63, 2022-12-09)"
   xmlns:inkscape="http://www.inkscape.org/namespaces/inkscape"
   xmlns:sodipodi="http://sodipodi.sourceforge.net/DTD/sodipodi-0.dtd"
   xmlns="http://www.w3.org/2000/svg"
   xmlns:svg="http://www.w3.org/2000/svg">
  <sodipodi:namedview
     id="namedview33148"
     pagecolor="#ffffff"
     bordercolor="#000000"
     borderopacity="0.25"
     inkscape:showpageshadow="2"
     inkscape:pageopacity="0.0"
     inkscape:pagecheckerboard="0"
     inkscape:deskcolor="#d1d1d1"
     inkscape:document-units="mm"
     showgrid="false"
     inkscape:zoom="2.9540685"
     inkscape:cx="-84.629048"
     inkscape:cy="77.181691"
     inkscape:window-width="1920"
     inkscape:window-height="1009"
     inkscape:window-x="-8"
     inkscape:window-y="-8"
     inkscape:window-maximized="1"
     inkscape:current-layer="layer1" />
  <defs
     id="defs33143">
    <rect
       x="422.75"
       y="730"
       width="109.5"
       height="29"
       id="rect25186" />
  </defs>
  <g
     inkscape:label="Layer 1"
     inkscape:groupmode="layer"
     id="layer1"
     transform="translate(-43.321085,-42.645709)">
    <path
       style="fill:#d45500;fill-opacity:1;stroke-width:0.0474583"
       d="m 54.248433,71.049228 c -0.780096,-0.03822 -1.876512,-0.22523 -2.150004,-0.366655 -0.294603,-0.152345 -0.373555,-0.622984 -0.145272,-0.865973 0.182105,-0.193845 0.3276,-0.200373 1.298649,-0.0582 0.495943,0.0726 1.022415,0.132949 1.169933,0.13414 0.249144,0.0025 0.274833,-0.0087 0.36112,-0.144552 l 0.09295,-0.146724 -0.229052,-0.21426 c -0.304952,-0.285232 -0.460276,-0.562771 -0.546551,-0.976509 -0.226434,-1.086016 0.520788,-2.031737 1.779229,-2.251866 0.4381,-0.07669 0.638522,-0.07396 3.05698,0.04021 l 1.270926,0.06006 0.02892,0.115165 c 0.01588,0.06329 0.01675,0.3208 0.0025,0.572141 -0.02966,0.504394 -0.143162,0.89335 -0.365538,1.252832 -0.175242,0.283284 -0.130144,0.260326 0.528842,-0.269199 0.498438,-0.400547 1.327913,-1.275021 1.692483,-1.784305 0.431423,-0.602681 1.140136,-1.803652 1.064125,-1.803217 -0.01924,9.9e-5 -0.131063,0.0654 -0.248524,0.145011 -1.062276,0.720329 -2.273459,0.958131 -4.31871,0.847967 -1.25962,-0.06788 -2.664885,-0.05634 -3.203456,0.02618 -2.022987,0.310115 -3.57644,1.200548 -4.538554,2.601494 -0.253525,0.369174 -0.658143,1.138672 -0.658143,1.251653 0,0.02283 -0.06565,0.121122 -0.14583,0.218429 -0.122363,0.148437 -0.175292,0.17693 -0.328767,0.17693 -0.37461,0 -0.482565,-0.388856 -0.266965,-0.961642 0.839639,-2.230719 3.001048,-3.780722 5.776556,-4.1425 0.442927,-0.05771 1.030431,-0.06912 3.013619,-0.05845 l 2.463433,0.01328 0.427129,-0.133135 c 0.831163,-0.259072 1.299071,-0.539204 1.883324,-1.127552 0.301428,-0.303525 0.406132,-0.452384 0.603811,-0.858366 0.37806,-0.776447 0.452719,-1.156989 0.450187,-2.294569 -0.0025,-1.039366 -0.086,-1.65668 -0.35458,-2.614934 C 63.172559,55.503143 61.8218,53.587677 60.096679,52.303659 59.549606,51.896472 59.23485,51.70465 58.496514,51.328477 58.19634,51.175548 57.892778,50.996669 57.821929,50.93097 c -0.248822,-0.230715 -0.216518,-0.631274 0.06726,-0.83331 0.245992,-0.175168 0.546489,-0.111318 1.331561,0.282912 1.229117,0.617226 2.187979,1.315763 3.063695,2.23196 2.076151,2.172131 3.154461,5.006066 3.026439,7.9539 -0.07458,1.717625 -0.418281,3.076935 -1.164609,4.606114 -0.530542,1.087046 -1.20308,2.024501 -2.075693,2.893329 -1.786414,1.778658 -3.934966,2.753381 -6.540184,2.967045 -0.550001,0.04505 -0.664173,0.04654 -1.281374,0.01626 z"
       id="path1710" />
    <path
       style="fill:#ff7f2a;stroke-width:0.0474583"
       d="m 53.028785,63.209142 c -0.06614,-0.09444 -0.07384,-0.922328 -0.07384,-7.901827 v -7.796354 h -0.315041 c -0.300758,0 -0.324237,0.0087 -0.517785,0.186883 -0.338695,0.3122 -0.750758,0.30278 -0.999133,-0.02284 -0.173964,-0.228084 -0.192926,-0.469956 -0.05746,-0.733533 0.21936,-0.426868 0.715476,-0.497966 1.070429,-0.153388 0.167362,0.162485 0.197282,0.173244 0.486796,0.175118 l 0.308489,0.0025 v -0.498313 -0.498313 l -0.299554,-0.01415 c -0.277277,-0.01315 -0.312075,-0.0037 -0.467995,0.133694 -0.28043,0.246228 -0.557447,0.302234 -0.820925,0.165984 -0.435804,-0.225366 -0.45072,-0.912685 -0.02581,-1.191067 0.257819,-0.168938 0.715303,-0.05311 0.870962,0.220514 0.0757,0.133111 0.0927,0.13872 0.420627,0.139005 l 0.34171,2.98e-4 0.01427,-0.272897 0.01427,-0.272884 0.179511,0.0062 c 0.175987,0.005 0.177389,0.005 0.07123,-0.06664 -0.500647,-0.333458 -0.712139,-0.865738 -0.542171,-1.364548 0.107471,-0.315302 0.263155,-0.500199 0.558651,-0.663329 0.769312,-0.424697 1.759286,0.146203 1.759286,1.014559 0,0.149404 -0.03152,0.347022 -0.06999,0.439154 -0.0927,0.221879 -0.353637,0.514347 -0.531833,0.596129 l -0.143262,0.06577 0.156181,-0.02941 c 0.220564,-0.04157 0.294676,0.03822 0.294676,0.317039 v 0.231485 h 0.352731 c 0.308427,0 0.356454,-0.01117 0.382217,-0.09283 0.05734,-0.180827 0.3001,-0.334302 0.528693,-0.334302 0.350746,0 0.620193,0.20412 0.698699,0.529276 0.150149,0.62188 -0.714559,1.047868 -1.166992,0.574896 -0.117771,-0.123108 -0.1466,-0.130281 -0.462076,-0.115414 l -0.336511,0.01576 0.01353,0.48249 0.0134,0.482491 0.335593,0.01377 c 0.319397,0.01316 0.338236,0.0074 0.390556,-0.106851 0.07235,-0.158873 0.326348,-0.309879 0.521533,-0.310102 0.25597,-2.73e-4 0.508961,0.159544 0.62193,0.39289 0.125093,0.258402 0.124832,0.332291 -0.0025,0.594367 -0.0788,0.16272 -0.149616,0.231683 -0.311679,0.303364 -0.298809,0.132179 -0.539105,0.0834 -0.772191,-0.156789 -0.172859,-0.178109 -0.190792,-0.184835 -0.493411,-0.184835 h -0.314024 v 7.686028 c 0,5.531867 -0.01477,7.718444 -0.05274,7.801678 -0.101266,0.222276 -0.397072,0.255709 -0.527961,0.05969 -0.01924,-0.02867 -0.03512,-3.325062 -0.03562,-7.325218 -7.94e-4,-7.209235 -0.0012,-7.273841 -0.09568,-7.367922 -0.05225,-0.05225 -0.126943,-0.09494 -0.166097,-0.09494 -0.03909,0 -0.113924,0.04269 -0.166108,0.09494 -0.09407,0.09407 -0.09494,0.158203 -0.09494,7.382144 0,8.101516 0.02172,7.567264 -0.307,7.567264 -0.1138,0 -0.184239,-0.0314 -0.236076,-0.105486 z"
       id="path25105" />
    <path
       style="fill:#ff7f2a;stroke-width:0.0474583"
       d="m 56.971756,63.691495 -0.41416,-0.01588 -0.215563,-0.302073 c -0.248362,-0.34804 -0.439998,-0.750734 -0.612436,-1.286935 -0.270911,-0.842419 -0.265736,-0.74536 -0.265736,-4.98343 0,-4.517184 -0.07384,-4.042623 0.577675,-3.711126 0.800287,0.407198 1.528645,1.307833 1.722403,2.129788 0.09829,0.416916 0.09022,1.070416 -0.01973,1.584453 -0.05026,0.23491 -0.124696,0.580753 -0.16555,0.768517 -0.104368,0.479661 -0.04344,0.753812 0.213304,0.960178 0.207645,0.166866 0.239576,0.311133 0.104121,0.470168 -0.100274,0.117771 -0.161902,0.129486 -0.438993,0.08377 -0.260897,-0.04306 -0.405772,0.0074 -0.606107,0.212647 -0.605226,0.619038 -0.390321,2.264338 0.409742,3.137 0.386325,0.421371 0.842407,0.594367 1.164286,0.441624 0.313851,-0.148933 0.610612,0.05076 0.501577,0.337529 -0.02842,0.07483 -0.07707,0.152072 -0.108091,0.171779 -0.05398,0.03425 -0.972836,0.03537 -1.846814,0.0025 z"
       id="path1716-7" />
    <path
       style="fill:#ff7f2a;stroke-width:0.0474583"
       d="m 60.804749,62.652042 c -0.352395,-0.170253 -0.646216,-0.491252 -0.784265,-0.856827 -0.256516,-0.679277 0.06937,-1.49839 0.735717,-1.849458 0.211468,-0.111442 0.294391,-0.126595 0.691153,-0.126595 0.396774,0 0.479686,0.01514 0.691166,0.126595 0.287565,0.151502 0.563739,0.444789 0.701639,0.745125 0.0762,0.165934 0.100646,0.311839 0.100273,0.599033 -8.06e-4,0.469187 -0.128965,0.789689 -0.425875,1.063355 -0.330716,0.304841 -0.558651,0.398549 -1.019697,0.419212 -0.368417,0.01651 -0.428246,0.0062 -0.690061,-0.120378 z"
       id="path1720" />
    <path
       style="fill:#000000;stroke-width:0.0474583"
       d="m 53.603395,63.373314 c -0.06614,-0.09444 -0.07384,-0.922327 -0.07384,-7.901827 v -7.796354 h -0.315042 c -0.300757,0 -0.324237,0.0087 -0.517784,0.186883 -0.338696,0.3122 -0.750759,0.302781 -0.999134,-0.02283 -0.173964,-0.228084 -0.192926,-0.469956 -0.05746,-0.733533 0.21936,-0.426869 0.715476,-0.497966 1.070429,-0.153389 0.167362,0.162485 0.197282,0.173245 0.486796,0.175119 l 0.308489,0.0025 v -0.498314 -0.498313 l -0.299553,-0.01415 c -0.277278,-0.01315 -0.312076,-0.0037 -0.467996,0.133693 -0.28043,0.246228 -0.557447,0.302235 -0.820925,0.165985 -0.435803,-0.225367 -0.45072,-0.912685 -0.02581,-1.191067 0.257819,-0.168938 0.715303,-0.05311 0.870963,0.220514 0.0757,0.13311 0.0927,0.138719 0.420626,0.139005 l 0.341711,2.98e-4 0.01427,-0.272897 0.01427,-0.272885 0.179511,0.0062 c 0.175987,0.005 0.177389,0.005 0.07123,-0.06664 -0.500646,-0.333458 -0.712139,-0.865737 -0.54217,-1.364547 0.107471,-0.315302 0.263155,-0.500199 0.55865,-0.66333 0.769312,-0.424696 1.759286,0.146203 1.759286,1.014559 0,0.149405 -0.03152,0.347023 -0.06999,0.439155 -0.0927,0.221879 -0.353637,0.514347 -0.531833,0.596129 l -0.143262,0.06577 0.156181,-0.02941 c 0.220564,-0.04157 0.294677,0.03822 0.294677,0.31704 v 0.231485 h 0.35273 c 0.308427,0 0.356454,-0.01117 0.382218,-0.09283 0.05733,-0.180826 0.300099,-0.334301 0.528693,-0.334301 0.350745,0 0.620192,0.20412 0.698698,0.529276 0.150149,0.62188 -0.714559,1.047867 -1.166992,0.574895 -0.117771,-0.123107 -0.1466,-0.13028 -0.462076,-0.115413 l -0.336511,0.01576 0.01353,0.48249 0.0134,0.48249 0.335593,0.01378 c 0.319397,0.01315 0.338236,0.0074 0.390557,-0.106851 0.07235,-0.158873 0.326347,-0.309879 0.521532,-0.310102 0.25597,-2.73e-4 0.508961,0.159543 0.62193,0.392889 0.125093,0.258403 0.124832,0.332292 -0.0025,0.594367 -0.0788,0.162721 -0.149616,0.231684 -0.311679,0.303364 -0.298809,0.13218 -0.539105,0.0834 -0.77219,-0.156788 -0.17286,-0.178109 -0.190792,-0.184836 -0.493412,-0.184836 h -0.314023 v 7.686029 c 0,5.531867 -0.01477,7.718443 -0.05274,7.801677 -0.101266,0.222277 -0.397072,0.25571 -0.527961,0.05969 -0.01924,-0.02867 -0.03512,-3.325062 -0.03562,-7.325219 -7.94e-4,-7.209234 -0.0012,-7.273841 -0.09568,-7.367921 -0.05225,-0.05225 -0.126943,-0.09494 -0.166096,-0.09494 -0.03909,0 -0.113925,0.04269 -0.166109,0.09494 -0.09407,0.09407 -0.09494,0.158203 -0.09494,7.382143 0,8.101517 0.02172,7.567264 -0.307,7.567264 -0.1138,0 -0.184239,-0.0314 -0.236076,-0.105485 z"
       id="path1718" />
    <path
       style="fill:#000000;stroke-width:0.0474583"
       d="m 57.401343,63.750021 -0.414161,-0.01588 -0.215563,-0.302073 c -0.248362,-0.34804 -0.439998,-0.750733 -0.612436,-1.286934 -0.270911,-0.842419 -0.265736,-0.74536 -0.265736,-4.98343 0,-4.517184 -0.07384,-4.042624 0.577675,-3.711126 0.800287,0.407198 1.528646,1.307833 1.722404,2.129788 0.09829,0.416915 0.09022,1.070416 -0.01973,1.584453 -0.05026,0.23491 -0.124696,0.580753 -0.16555,0.768517 -0.104369,0.479661 -0.04343,0.753811 0.213304,0.960178 0.207645,0.166866 0.239576,0.311133 0.10412,0.470167 -0.100273,0.117772 -0.161902,0.129487 -0.438993,0.08377 -0.260897,-0.04306 -0.405772,0.0074 -0.606107,0.212646 -0.605226,0.619039 -0.390321,2.264338 0.409743,3.137001 0.386324,0.421371 0.842406,0.594367 1.164286,0.441624 0.31385,-0.148933 0.610611,0.05076 0.501577,0.337528 -0.02842,0.07483 -0.07707,0.152073 -0.108092,0.17178 -0.05398,0.03425 -0.972836,0.03537 -1.846814,0.0025 z"
       id="path1716" />
    <path
       style="fill:#ff6600;stroke-width:0.0474583"
       d="m 47.141246,68.109809 c -0.118392,-0.0489 -0.965874,-0.90756 -1.342407,-1.360018 -0.950772,-1.142519 -1.746281,-2.737583 -2.141491,-4.293853 -0.688522,-2.711348 -0.311306,-5.573564 1.054494,-8.001157 0.891923,-1.585309 2.12094,-2.903802 3.672829,-3.940253 0.729078,-0.486908 1.509286,-0.875045 1.818792,-0.904792 0.441761,-0.04244 0.70056,0.184215 0.649021,0.56843 -0.03971,0.296414 -0.143336,0.397196 -0.701825,0.682876 -1.558206,0.797035 -2.780857,1.86729 -3.807032,3.332496 -0.499665,0.713441 -0.808291,1.280456 -1.097036,2.015491 -0.395024,1.005549 -0.619646,2.0798 -0.675603,3.230907 -0.09221,1.897125 0.508614,4.035575 1.602647,5.704156 0.309506,0.472041 0.896762,1.205128 1.172377,1.46348 l 0.146116,0.13697 0.02879,-0.13697 c 0.144602,-0.686636 0.514186,-1.586178 0.991725,-2.413829 0.232825,-0.403501 0.274647,-0.634663 0.145706,-0.80514 -0.07372,-0.09742 -0.0896,-0.251551 -0.03946,-0.382217 0.05138,-0.133817 0.240643,-0.174833 0.461232,-0.0999 0.562399,0.190929 1.197024,-0.252768 1.622254,-1.134229 0.529574,-1.097743 0.449418,-2.233834 -0.182663,-2.589084 -0.156392,-0.08786 -0.22564,-0.09792 -0.483856,-0.07024 -0.266431,0.02854 -0.312733,0.02085 -0.399665,-0.06602 -0.154245,-0.154245 -0.125441,-0.30937 0.08948,-0.482106 0.150149,-0.120626 0.198486,-0.19969 0.240892,-0.393771 0.04741,-0.216679 0.03698,-0.311753 -0.09655,-0.883496 -0.191214,-0.818617 -0.231919,-1.466955 -0.122859,-1.957028 0.155001,-0.696675 0.544876,-1.313765 1.133943,-1.794816 0.294541,-0.240507 0.989094,-0.614335 1.14144,-0.614335 0.07595,0 0.07992,0.252806 0.06329,3.99837 -0.01564,3.514973 -0.02718,4.038491 -0.0963,4.330189 -0.188285,0.795 -0.492406,1.528385 -0.870267,2.098664 -0.23774,0.358787 -0.63573,0.756628 -1.249196,1.248724 -1.029004,0.825417 -1.73042,1.710837 -2.189071,2.763346 -0.365042,0.837679 -0.356057,0.825206 -0.539787,0.749294 z"
       id="path1714" />
    <path
       style="fill:#000000;stroke-width:0.0474583"
       d="m 47.721701,67.678758 c -0.118391,-0.0489 -0.965874,-0.90756 -1.342407,-1.360018 -0.950771,-1.142518 -1.74628,-2.737582 -2.141491,-4.293852 -0.688522,-2.711348 -0.311306,-5.573565 1.054495,-8.001157 0.891922,-1.58531 2.120939,-2.903803 3.672829,-3.940253 0.729078,-0.486909 1.509285,-0.875046 1.818792,-0.904792 0.44176,-0.04244 0.70056,0.184214 0.649021,0.56843 -0.03971,0.296414 -0.143336,0.397196 -0.701826,0.682875 -1.558206,0.797036 -2.780857,1.867291 -3.807031,3.332496 -0.499666,0.713441 -0.808292,1.280456 -1.097036,2.015491 -0.395025,1.00555 -0.619647,2.079801 -0.675604,3.230907 -0.09221,1.897125 0.508614,4.035575 1.602647,5.704156 0.309506,0.472041 0.896763,1.205128 1.172377,1.46348 l 0.146116,0.13697 0.02879,-0.13697 c 0.144601,-0.686635 0.514185,-1.586178 0.991724,-2.413829 0.232825,-0.4035 0.274647,-0.634662 0.145706,-0.805139 -0.07371,-0.09742 -0.0896,-0.251552 -0.03946,-0.382218 0.05138,-0.133817 0.240644,-0.174832 0.461232,-0.0999 0.562399,0.190928 1.197024,-0.252768 1.622255,-1.134229 0.529574,-1.097744 0.449417,-2.233834 -0.182664,-2.589085 -0.156391,-0.08786 -0.225639,-0.09792 -0.483855,-0.07024 -0.266432,0.02854 -0.312734,0.02085 -0.399666,-0.06602 -0.154245,-0.154244 -0.125441,-0.30937 0.08948,-0.482106 0.15015,-0.120625 0.198487,-0.19969 0.240892,-0.39377 0.04741,-0.21668 0.03698,-0.311753 -0.09655,-0.883497 -0.191214,-0.818616 -0.231919,-1.466955 -0.12286,-1.957028 0.155002,-0.696675 0.544876,-1.313765 1.133944,-1.794816 0.29454,-0.240506 0.989093,-0.614334 1.141439,-0.614334 0.07595,0 0.07992,0.252805 0.06329,3.998369 -0.01564,3.514973 -0.02718,4.038491 -0.0963,4.33019 -0.188285,0.795 -0.492406,1.528384 -0.870267,2.098663 -0.237739,0.358787 -0.63573,0.756629 -1.249196,1.248724 -1.029004,0.825418 -1.73042,1.710838 -2.189071,2.763346 -0.365041,0.837679 -0.356056,0.825207 -0.539787,0.749294 z"
       id="path1714-9" />
  </g>
</svg>
