<?xml version="1.0" encoding="UTF-8" standalone="no"?>
<!-- Created with Inkscape (http://www.inkscape.org/) -->

<svg
   width="22.40233mm"
   height="19.527721mm"
   viewBox="0 0 22.402331 19.527722"
   version="1.1"
   id="svg32799"
   inkscape:version="1.2.2 (732a01da63, 2022-12-09)"
   sodipodi:docname="olibs2.svg"
   xmlns:inkscape="http://www.inkscape.org/namespaces/inkscape"
   xmlns:sodipodi="http://sodipodi.sourceforge.net/DTD/sodipodi-0.dtd"
   xmlns="http://www.w3.org/2000/svg"
   xmlns:svg="http://www.w3.org/2000/svg">
  <sodipodi:namedview
     id="namedview32801"
     pagecolor="#ffffff"
     bordercolor="#000000"
     borderopacity="0.25"
     inkscape:showpageshadow="2"
     inkscape:pageopacity="0.0"
     inkscape:pagecheckerboard="0"
     inkscape:deskcolor="#d1d1d1"
     inkscape:document-units="mm"
     showgrid="false"
     inkscape:zoom="2.0888418"
     inkscape:cx="-39.734938"
     inkscape:cy="122.55595"
     inkscape:window-width="1920"
     inkscape:window-height="1009"
     inkscape:window-x="-8"
     inkscape:window-y="-8"
     inkscape:window-maximized="1"
     inkscape:current-layer="layer1" />
  <defs
     id="defs32796">
    <rect
       x="422.75"
       y="730"
       width="109.5"
       height="29"
       id="rect25186-6-3" />
    <inkscape:path-effect
       effect="perspective-envelope"
       up_left_point="91.273572,91.7128"
       up_right_point="93.886342,91.54744"
       down_left_point="89.156912,93.20107"
       down_right_point="103.24597,102.79222"
       id="path-effect31883"
       is_visible="true"
       lpeversion="1"
       deform_type="perspective"
       horizontal_mirror="false"
       vertical_mirror="false"
       overflow_perspective="false" />
    <inkscape:path-effect
       effect="perspective-envelope"
       up_left_point="86.560682,93.77985"
       up_right_point="88.925402,94.19327"
       down_left_point="83.435292,95.20198"
       down_right_point="91.670452,108.46422"
       id="path-effect31883-6"
       is_visible="true"
       lpeversion="1"
       deform_type="perspective"
       horizontal_mirror="false"
       vertical_mirror="false"
       overflow_perspective="false" />
    <inkscape:path-effect
       effect="perspective-envelope"
       up_left_point="88.415402,94.03067"
       up_right_point="89.327462,93.00169"
       down_left_point="91.689442,108.85744"
       down_right_point="103.40588,102.84722"
       id="path-effect31951"
       is_visible="true"
       lpeversion="1"
       deform_type="perspective"
       horizontal_mirror="false"
       vertical_mirror="false"
       overflow_perspective="false" />
  </defs>
  <g
     inkscape:label="Layer 1"
     inkscape:groupmode="layer"
     id="layer1"
     transform="translate(-82.596226,-91.068588)">
    <path
       style="fill:#000000;fill-opacity:1;stroke-width:0.0382418"
       d="m 96.076232,110.57982 c -0.6286,-0.0308 -1.51209,-0.18149 -1.73247,-0.29545 -0.23739,-0.12276 -0.30101,-0.502 -0.11706,-0.6978 0.14674,-0.1562 0.26398,-0.16146 1.04645,-0.0469 0.39963,0.0585 0.82386,0.10713 0.94273,0.10809 0.20076,0.002 0.22146,-0.007 0.29099,-0.11648 l 0.0749,-0.11823 -0.18457,-0.17265 c -0.24573,-0.22984 -0.37089,-0.45348 -0.44041,-0.78687 -0.18246,-0.87511 0.41965,-1.63717 1.4337,-1.81455 0.35302,-0.0618 0.51452,-0.0596 2.46331,0.0324 l 1.024108,0.0484 0.0233,0.0928 c 0.0128,0.051 0.0135,0.2585 0.002,0.46103 -0.0239,0.40644 -0.11536,0.71986 -0.29455,1.00953 -0.14121,0.22827 -0.10487,0.20977 0.42614,-0.21692 0.40164,-0.32276 1.07003,-1.02741 1.3638,-1.43779 0.34764,-0.48564 0.91872,-1.45338 0.85747,-1.45303 -0.0155,8e-5 -0.10561,0.0527 -0.20026,0.11685 -0.85598,0.58044 -1.83195,0.77206 -3.480008,0.68329 -1.015,-0.0547 -2.14736,-0.0454 -2.58134,0.0211 -1.63012,0.24989 -2.88189,0.9674 -3.65716,2.09628 -0.20429,0.29748 -0.53033,0.91754 -0.53033,1.00858 0,0.0184 -0.0529,0.0976 -0.11751,0.17601 -0.0986,0.11961 -0.14125,0.14257 -0.26492,0.14257 -0.30186,0 -0.38885,-0.31334 -0.21512,-0.77489 0.67658,-1.79751 2.41824,-3.0465 4.65474,-3.33802 0.35691,-0.0465 0.83032,-0.0557 2.42837,-0.0471 l 1.985028,0.0107 0.34418,-0.10728 c 0.66975,-0.20876 1.04679,-0.43449 1.51758,-0.90858 0.24289,-0.24458 0.32726,-0.36453 0.48655,-0.69167 0.30464,-0.62566 0.3648,-0.9323 0.36276,-1.84896 -0.002,-0.83752 -0.0693,-1.33495 -0.28572,-2.10711 -0.43565,-1.55436 -1.52409,-3.09784 -2.91419,-4.1325 -0.44083,-0.32811 -0.69446,-0.48268 -1.289408,-0.7858 -0.24188,-0.12323 -0.48649,-0.26737 -0.54358,-0.32031 -0.2005,-0.18591 -0.17447,-0.50868 0.0542,-0.67148 0.19822,-0.14115 0.44036,-0.0897 1.072968,0.22797 0.99042,0.49736 1.76307,1.06024 2.46872,1.79851 1.67296,1.7503 2.54186,4.03388 2.4387,6.40924 -0.0601,1.38406 -0.33705,2.47939 -0.93844,3.7116 -0.42751,0.87594 -0.96944,1.63134 -1.67259,2.33144 -1.43949,1.43324 -3.170788,2.21867 -5.270068,2.39084 -0.44319,0.0363 -0.53519,0.0375 -1.03253,0.0131 z"
       id="path1710-7" />
    <path
       style="fill:#ff8080;stroke:none;stroke-width:0.0253398"
       d="m 88.422242,94.33514 c -1.49742,-0.40681 -3.00377,0.0949 -4.38378,0.67571 -0.56775,0.23895 -1.31423,0.5345 -1.42963,1.22478 -0.0752,0.44995 0.2011,0.80803 0.42921,1.16562 0.43088,0.67548 0.85901,1.35272 1.29146,2.02717 1.64652,2.56786 3.25546,5.16118 4.86237,7.75398 0.32386,0.52256 0.64649,1.0461 0.96641,1.57106 0.30129,0.49438 0.5931,0.98256 1.20338,1.11386 0.80834,0.1739 1.47878,-0.32336 2.15388,-0.69392 1.32952,-0.7298 2.66792,-1.44427 4.00368,-2.16253 1.54494,-0.83074 3.090468,-1.66021 4.637178,-2.48758 0.56338,-0.30134 1.37621,-0.6586 1.171,-1.44594 -0.11535,-0.4425 -0.48911,-0.78547 -0.78438,-1.11494 -0.52794,-0.58903 -1.05361,-1.18018 -1.57634,-1.77379 -1.676308,-1.90352 -3.364798,-3.79655 -5.039398,-5.70144 -0.48528,-0.55203 -0.97744,-1.09774 -1.46573,-1.64709 -0.26774,-0.30121 -0.52797,-0.68202 -0.89571,-0.86711 -0.5742,-0.28902 -1.23767,-0.16643 -1.82409,0.005 -0.89122,0.25961 -1.7924,0.57942 -2.50858,1.19151 -0.36984,0.31607 -0.68382,0.6894 -0.81093,1.16626 m 11.782988,6.94308 c -0.14387,-0.009 -0.296798,-0.0146 -0.429928,-0.0758 -0.28857,-0.13262 -0.49867,-0.47491 -0.69968,-0.70974 -0.30608,-0.35752 -0.61984,-0.7083 -0.92769,-1.06427 -1.29007,-1.49172 -2.56628,-2.99544 -3.85874,-4.48513 -0.36715,-0.42319 -0.73632,-0.84467 -1.10446,-1.26699 -0.16273,-0.18671 -0.33515,-0.46647 -0.56067,-0.58053 -0.11339,-0.0574 -0.23429,-0.0276 -0.35017,0.005 -0.19554,0.0551 -0.38942,0.11853 -0.58281,0.18066 -0.95336,0.30622 -1.9052,0.80089 -2.28058,1.78856 h -0.0507 c -0.0899,-0.17647 -0.18759,-0.35432 -0.19061,-0.55747 -0.005,-0.33783 0.21646,-0.60814 0.44571,-0.83222 0.47867,-0.4679 1.09739,-0.75989 1.72141,-0.98148 0.24886,-0.0884 0.50367,-0.1617 0.76018,-0.22442 0.15481,-0.0379 0.30986,-0.0735 0.45268,0.0195 0.13473,0.0877 0.23863,0.22641 0.3431,0.34627 0.1554,0.1783 0.31325,0.35443 0.46939,0.5321 0.55436,0.63078 1.10028,1.26891 1.65378,1.90048 1.13378,1.29377 2.25187,2.60131 3.37728,3.90233 0.60301,0.69711 1.25257,1.37098 1.812498,2.10319 m -7.095138,-8.86892 c 0.27107,0.20449 0.48453,0.48098 0.7077,0.73485 0.36167,0.41143 0.71995,0.8258 1.078,1.24038 1.06232,1.23012 2.13475,2.452 3.20465,3.67554 0.56654,0.6479 1.13299,1.29706 1.69236,1.95115 0.293288,0.34298 0.652628,0.6751 0.843208,1.08961 -0.30122,-0.23307 -0.54063,-0.5483 -0.787358,-0.8362 -0.35691,-0.41649 -0.71927,-0.82839 -1.07993,-1.24165 -1.18371,-1.35634 -2.37418,-2.70963 -3.54189,-4.07971 -0.47902,-0.56206 -0.97008,-1.11378 -1.45308,-1.67242 -0.22596,-0.26135 -0.54179,-0.53236 -0.66366,-0.86155 m 0.35476,2.3566 c -0.85234,0.25226 -1.70615,0.64106 -2.25893,1.36842 -0.16015,0.21072 -0.27345,0.44165 -0.3764,0.6841 h -0.0253 c -0.0534,-0.22221 -0.027,-0.41385 0.0253,-0.6335 l -0.22806,0.27874 c -0.0984,-0.27537 -0.10462,-0.50477 -0.0253,-0.78553 0.0837,0.0404 0.16706,0.0833 0.25474,0.11456 0.12349,0.044 0.58522,0.0616 0.46187,-0.19846 -0.10612,-0.22373 -0.52035,-0.1415 -0.45723,-0.49861 0.0409,-0.23151 0.26753,-0.32184 0.4436,-0.43209 0.0726,-0.0455 0.17335,-0.12813 0.1201,-0.22452 -0.11684,-0.21151 -0.47408,-0.0573 -0.62018,0.026 -0.18161,0.10351 -0.34574,0.25742 -0.42723,0.45305 -0.0443,0.10635 -0.0574,0.22225 -0.0998,0.32931 -0.0721,0.18209 -0.17479,0.34331 -0.23333,0.53214 -0.17393,-0.37212 -0.0592,-0.77471 0.18643,-1.08774 0.34497,-0.43959 0.89398,-0.70639 1.40998,-0.89083 0.21136,-0.0755 0.50502,-0.21892 0.73303,-0.19355 0.16919,0.0188 0.29014,0.17941 0.39532,0.2974 0.24773,0.27791 0.50766,0.55602 0.72145,0.86113 m -1.63867,-0.76436 c -0.2927,0.0675 0.0443,0.44248 -0.0752,0.62739 -0.12636,0.19553 -0.36572,0.13261 -0.5092,0.2793 -0.0779,0.0797 -0.0541,0.18964 0.0362,0.24714 0.10427,0.0663 0.24516,0.0618 0.36233,0.0429 0.30849,-0.05 0.63225,-0.25775 0.6921,-0.58451 0.0504,-0.27491 -0.18031,-0.68733 -0.50631,-0.61217 m -2.92248,1.44854 c -1.40121,-0.2853 -2.68992,0.13619 -3.97835,0.65883 0.40632,0.56781 0.77715,1.16456 1.16006,1.74844 0.61492,0.93767 1.23949,1.86861 1.84481,2.81272 0.44824,0.69909 0.87729,1.41142 1.33672,2.10319 0.27628,0.41598 0.53141,0.84511 0.79845,1.26699 0.1595,0.25198 0.44168,0.55902 0.48422,0.86155 0.0235,0.16724 -0.0428,0.35203 -0.10019,0.5068 l -1.23526,-2.00185 -2.66063,-4.15572 -2.36303,-3.64892 c 0.97654,-0.44782 2.00645,-0.81241 3.09123,-0.83418 0.63764,-0.0128 1.24785,0.12632 1.62197,0.68215 m 5.14397,0 c -1.13097,0.30004 -2.29632,1.00682 -2.61,2.20456 -0.4195,-0.96383 0.63742,-1.80927 1.39369,-2.17682 0.1954,-0.095 0.39974,-0.17593 0.60815,-0.23746 0.10425,-0.0307 0.21934,-0.0643 0.32732,-0.0321 0.12439,0.0372 0.20502,0.14366 0.28084,0.24175 m -4.02903,-0.12671 0.0253,0.0253 -0.0253,-0.0253 m 4.5865,0.81088 c -1.05198,0.31083 -2.28067,1.00528 -2.55932,2.15387 h -0.0507 c -0.0324,-0.23262 -0.0525,-0.45302 0.004,-0.68417 0.16111,-0.65559 0.81181,-1.14756 1.38943,-1.43089 0.20414,-0.10013 0.41869,-0.18753 0.63345,-0.26223 0.10741,-0.0373 0.23157,-0.0805 0.34309,-0.0345 0.11335,0.0467 0.17918,0.15822 0.23977,0.25793 m -5.14398,0.0507 c -0.80785,-0.1505 -1.64581,-0.0592 -2.43261,0.16324 -0.36279,0.10257 -0.70549,0.25676 -1.06427,0.36889 l -0.20272,-0.38009 c 0.80872,-0.35428 1.62853,-0.50972 2.50864,-0.50664 0.41955,0.002 0.8838,0.0363 1.19096,0.3546 m -5.70144,-0.22806 4.95387,7.72862 1.00206,1.57107 0.32415,0.5068 0.13082,0.32931 -0.15197,0.40553 0.0507,-0.60815 -0.2534,0.32942 c -0.0183,-0.13365 0.0164,-0.24366 0.0383,-0.37421 0.0219,-0.1302 -0.0363,-0.15696 -0.13267,-0.0714 -0.0183,0.0163 -0.0348,0.0348 -0.0517,0.0524 l -0.082,0.0891 c 0.0189,-0.13873 0.0625,-0.27975 0.0695,-0.41927 0.008,-0.16392 -0.11122,-0.0629 -0.1626,0.013 -0.022,0.0325 -0.0399,0.0681 -0.0589,0.10223 h -0.0253 c 2e-5,-0.1225 0.14129,-0.70609 -0.11565,-0.41161 -0.0303,0.0348 -0.0583,0.0715 -0.0871,0.10754 l 0.076,-0.6335 -0.22806,0.30408 h -0.0507 l 0.076,-0.63349 -0.27873,0.30408 0.0517,-0.37458 -0.0275,-0.13598 -0.25221,0.18113 0.12669,-0.58281 -0.25339,0.27874 h -0.0504 c -0.0499,-0.16965 0.0721,-0.31478 0.0873,-0.48133 0.005,-0.0565 -0.0223,-0.11444 -0.0874,-0.0839 -0.1113,0.0523 -0.11011,0.20148 -0.22794,0.23581 0.0145,-0.13415 0.0544,-0.26419 0.0683,-0.39768 0.0121,-0.11703 -0.0487,-0.14281 -0.13603,-0.0704 -0.0169,0.0141 -0.0321,0.0307 -0.0474,0.0464 l -0.0875,0.0923 0.0616,-0.37477 -0.0231,-0.13788 -0.24121,0.1579 0.10135,-0.58283 -0.30407,0.27875 0.10135,-0.60815 -0.30407,0.27872 0.10368,-0.43026 -0.0776,-0.0931 -0.22885,0.21929 c 0.022,-0.12029 0.0667,-0.24473 0.0726,-0.3669 0.006,-0.13569 -0.0958,-0.0713 -0.15188,-0.009 -0.0268,0.03 -0.0493,0.0644 -0.0728,0.0968 h -0.0253 l 0.076,-0.58281 -0.22806,0.27873 h -0.0507 l -0.0253,-0.0253 0.12671,-0.55748 -0.27874,0.27874 0.10136,-0.55747 -0.27874,0.27873 c 0.008,-0.10462 0.1474,-0.64333 -0.081,-0.37556 -0.0259,0.0303 -0.048,0.0644 -0.0711,0.0968 h -0.0253 l 0.10136,-0.55748 -0.30408,0.27873 0.15204,-0.50679 -0.27873,0.22806 h -0.0253 c 0.0154,-0.11479 0.0548,-0.2271 0.0665,-0.34166 0.0102,-0.0996 -0.0508,-0.0986 -0.11412,-0.0423 -0.0171,0.0152 -0.0314,0.0336 -0.046,0.051 -0.0208,0.0249 -0.0396,0.0535 -0.0585,0.0796 h -0.0253 c 0.016,-0.13065 0.16344,-0.6283 -0.0975,-0.36479 -0.0275,0.0277 -0.0535,0.0574 -0.0798,0.0861 l 0.0633,-0.34589 -0.0276,-0.10764 -0.23848,0.17479 c 0.0255,-0.1155 0.0635,-0.23026 0.0827,-0.34682 0.0169,-0.10225 -0.0246,-0.13555 -0.10716,-0.0671 -0.0178,0.0148 -0.0332,0.0323 -0.0492,0.0487 -0.027,0.0279 -0.0524,0.0576 -0.0784,0.0865 0.0165,-0.13197 0.16444,-0.58608 -0.0991,-0.36649 l -0.10365,0.0878 c 0.0222,-0.0746 0.18638,-0.51787 -0.0251,-0.3672 -0.0175,0.0125 -0.0334,0.0277 -0.0495,0.0419 -0.0263,0.0233 -0.0517,0.0479 -0.0774,0.0719 0.018,-0.10297 0.15128,-0.55931 -0.0793,-0.33524 -0.0261,0.0253 -0.0491,0.0544 -0.0728,0.0818 l 0.1267,-0.50678 -0.30408,0.2534 0.15204,-0.50681 -0.32942,0.22806 c 0.0223,-0.0851 0.18087,-0.51075 -0.0368,-0.3672 -0.019,0.0126 -0.0365,0.0277 -0.0543,0.0419 l -0.0864,0.0719 0.1267,-0.5068 -0.2534,0.27874 h -0.0253 l 0.1267,-0.53214 -0.30407,0.2534 c 0.0263,-0.0921 0.17107,-0.56763 -0.0595,-0.33443 -0.0246,0.0249 -0.0455,0.0538 -0.0672,0.081 0.002,-0.0914 0.14339,-0.56112 -0.0685,-0.35166 -0.0214,0.0212 -0.0403,0.0499 -0.0583,0.0729 0.005,-0.17302 0.0783,-0.289 0.20272,-0.40543 m 6.8164,0.0253 0.0253,0.0253 -0.0253,-0.0253 m 0.1267,0.0507 0.0253,0.0253 -0.0253,-0.0253 m -0.15204,0.0253 0.0253,0.0253 -0.0253,-0.0253 m 0.30408,0.0253 0.0253,0.0253 -0.0253,-0.0253 m -0.20272,0.0253 -0.0253,0.10136 h 0.0253 v -0.10136 m -0.076,0.1267 v 0.076 h 0.0507 v -0.076 h -0.0507 m 4.61184,0.55747 c -1.14049,0.36837 -2.27131,1.07093 -2.58466,2.30592 -0.34766,-0.9775 0.58824,-1.82755 1.36835,-2.23334 0.20303,-0.10562 0.41527,-0.19616 0.63349,-0.26536 0.10443,-0.0331 0.21853,-0.0671 0.32681,-0.0309 0.11297,0.0379 0.18617,0.13306 0.25601,0.22362 m -5.0933,0.20272 c -1.22439,-0.2889 -2.46786,0.0318 -3.59824,0.5068 l -0.20272,-0.35476 c 0.79729,-0.415 1.79577,-0.63648 2.69445,-0.57078 0.40404,0.0296 0.82491,0.10222 1.10651,0.41874 m 1.34301,0.17738 0.0253,0.0253 -0.0253,-0.0253 m 4.3331,0.32942 c -0.82073,0.25722 -1.58176,0.68455 -2.09499,1.39368 -0.22562,0.31173 -0.40769,0.67599 -0.43898,1.06427 -0.509,-0.96684 0.49447,-1.96459 1.26699,-2.38949 0.20973,-0.11537 0.43308,-0.21247 0.65877,-0.29212 0.1005,-0.0355 0.21494,-0.0768 0.32164,-0.0441 0.12954,0.0397 0.21227,0.16311 0.28657,0.26774 m -9.22367,-0.25339 0.0253,0.0253 -0.0253,-0.0253 m -0.0507,0.076 0.0253,0.0253 -0.0253,-0.0253 m 4.28243,0.55748 c -0.86589,-0.25271 -1.84806,-0.18969 -2.71136,0.0433 -0.35551,0.0959 -0.68851,0.25197 -1.03893,0.36217 l 0.0253,-0.10135 -0.2534,-0.2534 c 0.8354,-0.42591 1.84872,-0.66035 2.78738,-0.56234 0.444,0.0464 0.89074,0.15868 1.19096,0.51166 m 1.29233,-0.20272 0.0253,0.0253 -0.0253,-0.0253 m 4.30777,0.53214 c -0.24983,0.0721 -0.49476,0.16313 -0.73486,0.2628 -0.28971,0.12026 -0.64175,0.26112 -0.87285,0.47866 -0.15751,0.14832 -0.0951,0.37529 0.13922,0.36707 0.15508,-0.005 0.29885,-0.1081 0.42955,-0.18123 0.29093,-0.16272 0.59934,-0.29023 0.91223,-0.40406 0.12944,-0.047 0.28558,-0.12176 0.42637,-0.0898 0.1316,0.0298 0.21085,0.14714 0.28315,0.25076 -0.7836,0.30055 -1.5622,0.5334 -2.1742,1.14531 -0.16575,0.16569 -0.31698,0.35207 -0.43896,0.55243 -0.0934,0.15344 -0.15825,0.31834 -0.27558,0.45614 -0.0367,-0.32222 0.0138,-0.58497 0.1267,-0.88689 l -0.30408,0.53214 c -0.46885,-0.75521 0.25061,-1.71697 0.83621,-2.16088 0.13588,-0.103 0.28031,-0.19478 0.43079,-0.27489 0.19523,-0.10394 0.39993,-0.19174 0.60815,-0.26621 0.11081,-0.0396 0.23467,-0.0835 0.35083,-0.0389 0.11904,0.0456 0.19103,0.15558 0.25733,0.25767 m -4.94126,0.53214 c -0.75479,-0.2499 -1.59286,-0.23128 -2.3566,-0.0289 -0.22578,0.0598 -0.51308,0.11636 -0.69548,0.27093 -0.10961,0.0929 -0.14114,0.24754 0,0.32942 0.1282,0.0743 0.2866,0.0192 0.41674,-0.0196 0.25123,-0.0751 0.50148,-0.14423 0.7602,-0.18888 0.84615,-0.14604 1.97059,-0.10425 2.58465,0.57466 -0.88438,-0.24228 -1.7563,-0.3276 -2.66067,-0.12673 -0.31434,0.0698 -0.61497,0.18048 -0.91221,0.30276 -0.11738,0.0483 -0.27651,0.14142 -0.40209,0.0705 -0.10802,-0.061 -0.17651,-0.19756 -0.24275,-0.29742 -0.13291,-0.20039 -0.26947,-0.40019 -0.39112,-0.60768 -0.0582,-0.0994 -0.14728,-0.24556 -0.0443,-0.34611 0.0701,-0.0684 0.17976,-0.0996 0.26955,-0.13235 0.19903,-0.0725 0.40221,-0.13668 0.60795,-0.18751 0.68031,-0.16811 1.4395,-0.20573 2.12854,-0.0696 0.35435,0.07 0.68999,0.18229 0.93756,0.4566 m 1.267,-0.2534 0.0253,0.0253 -0.0253,-0.0253 m 5.47338,1.84981 c -1.23265,0.25783 -2.51983,1.03892 -2.88873,2.30591 h -0.0253 c -0.11106,-0.39274 -0.0766,-0.79572 0.1585,-1.14004 0.10607,-0.15527 0.42306,-0.35946 0.42247,-0.55813 -6.6e-4,-0.27387 -0.34341,-0.19714 -0.4787,-0.0966 -0.32491,0.24141 -0.5521,0.60764 -0.68508,0.98394 -0.27256,-0.89429 0.59348,-1.65236 1.29232,-2.02913 0.13965,-0.0753 0.28396,-0.14175 0.43077,-0.20178 0.18256,-0.0746 0.36889,-0.14134 0.55749,-0.19902 0.10305,-0.0315 0.21865,-0.0721 0.32748,-0.0487 0.14619,0.0314 0.24894,0.16732 0.34068,0.27476 0.19359,0.22666 0.40844,0.44344 0.54814,0.70888 m -5.01727,-0.81088 0.0253,0.0253 -0.0253,-0.0253 m -0.0253,0.12671 0.0253,0.0253 -0.0253,-0.0253 m -4.96659,0.0507 0.0253,0.0253 -0.0253,-0.0253 m 8.89388,0.10934 c -0.14046,0.0165 -0.27522,0.0853 -0.40506,0.13737 -0.17097,0.0686 -0.37389,0.12634 -0.51468,0.24995 -0.18065,0.1586 -0.0737,0.39413 0.16108,0.38874 0.13276,-0.002 0.25936,-0.0718 0.37894,-0.12255 0.1996,-0.0847 0.47334,-0.14448 0.63275,-0.29756 0.1954,-0.18765 -0.0534,-0.37934 -0.25303,-0.35595 m -3.85127,1.25901 c -0.86576,-0.19479 -1.69607,-0.22771 -2.55932,0.0211 -0.49437,0.14245 -0.94258,0.37524 -1.41902,0.56173 l -0.20272,-0.3801 c 0.30088,-0.13881 0.59744,-0.27451 0.91223,-0.37977 0.19998,-0.0669 0.40209,-0.12827 0.6081,-0.17381 0.203,-0.0449 0.52134,-0.0341 0.68468,-0.176 0.11459,-0.0995 0.0638,-0.24786 -0.0606,-0.30971 -0.13431,-0.0667 -0.30403,-0.0383 -0.44667,-0.0209 -0.43354,0.0529 -0.85849,0.186 -1.26699,0.33692 -0.19233,0.0711 -0.39869,0.2051 -0.60309,0.23052 -0.19846,0.0246 -0.29426,-0.19345 -0.35982,-0.34342 0.27362,-0.12005 0.54853,-0.23831 0.83621,-0.32095 1.26577,-0.36359 3.09675,-0.28124 3.87699,0.95445 m 0.78552,-1.14028 0.0253,0.0253 -0.0253,-0.0253 m -0.076,0.076 v 0.0507 l 0.0507,-0.0507 h -0.0507 m -0.0422,0.0929 0.008,0.0169 -0.008,-0.0169 m 0.16894,0.008 -0.0253,0.10136 h 0.0253 v -0.10136 m 0.17738,0.0253 0.0253,0.0253 -0.0253,-0.0253 m -0.397,0.0676 0.008,0.0169 -0.008,-0.0169 m 0.1436,0.008 v 0.076 h 0.0253 l -0.0253,-0.076 m -0.16894,0.0676 0.008,0.0169 -0.008,-0.0169 m 0.11826,0.0338 v 0.0507 h 0.0507 v -0.0507 h -0.0507 m -0.10136,0.0507 0.0253,0.0253 -0.0253,-0.0253 m 0.076,0.0253 v 0.17737 -0.17737 m -5.06795,0.17737 0.0253,0.0253 -0.0253,-0.0253 m -0.0507,0.0507 0.0253,0.0253 -0.0253,-0.0253 m -0.0507,0.0253 0.0253,0.0253 -0.0253,-0.0253 m 0.10135,0.0253 0.0253,0.0253 -0.0253,-0.0253 m 10.21193,0.60815 c -1.32998,0.17298 -2.63751,0.93673 -3.04077,2.28057 -0.0597,-0.11326 -0.10708,-0.2283 -0.12991,-0.35504 -0.18856,-1.04687 0.89261,-1.80815 1.72631,-2.15893 0.20691,-0.0871 0.41931,-0.16271 0.6334,-0.23009 0.0987,-0.031 0.21239,-0.0723 0.31649,-0.044 0.20895,0.0566 0.37894,0.34022 0.49448,0.50753 m -10.23726,-0.53213 0.0253,0.0253 -0.0253,-0.0253 m 4.02903,0.0507 0.0253,0.0253 -0.0253,-0.0253 m -0.0845,0.0845 0.0169,0.008 -0.0169,-0.008 m 1.32611,0.0169 0.0253,0.0253 -0.0253,-0.0253 m 0.10135,1.41902 c -0.29994,-0.0578 -0.65399,-0.17071 -0.96057,-0.10475 -0.1788,0.0385 -0.30339,0.22334 -0.13321,0.36287 0.19659,0.16113 0.57465,0.10683 0.81506,0.16802 0.4726,0.12031 0.86798,0.3801 1.16562,0.76483 -1.06026,-0.23269 -2.14988,-0.21486 -3.16747,0.19365 -0.35308,0.14175 -0.6638,0.34634 -0.98826,0.54121 l 0.12671,-0.17738 -0.17738,0.076 0.20272,-0.15205 v -0.0253 l -0.27874,0.076 0.17738,-0.1267 v -0.0253 l -0.2534,0.0507 v -0.0253 l 0.17738,-0.12671 -0.0253,-0.0253 c -0.0464,0.0332 -0.0896,0.0719 -0.15166,0.0643 -0.0635,-0.008 -0.12185,-0.0674 -0.0827,-0.13059 0.0365,-0.0589 0.12629,-0.0924 0.18366,-0.1264 0.17258,-0.1024 0.34819,-0.19388 0.53213,-0.2742 0.10977,-0.048 0.26675,-0.10837 0.29042,-0.24276 0.0301,-0.17129 -0.16537,-0.29424 -0.31576,-0.26865 -0.26875,0.0457 -0.54645,0.23946 -0.78553,0.36365 -0.0783,0.0406 -0.25621,0.1635 -0.2534,0.007 l -0.20271,-0.22806 c 0.43546,-0.26146 0.90972,-0.48725 1.39368,-0.64326 0.15609,-0.0504 0.46879,-0.0924 0.49692,-0.29779 0.039,-0.28522 -0.39216,-0.23244 -0.5476,-0.19357 -0.58547,0.14652 -1.08688,0.47447 -1.64708,0.6785 l -0.20272,-0.3801 c 0.2311,-0.12193 0.46567,-0.23252 0.70951,-0.32675 1.21757,-0.47064 3.02859,-0.64404 3.90232,0.55481 m 0.53214,-0.83621 0.0253,0.0253 -0.0253,-0.0253 m -5.49873,0.0253 0.0253,0.0253 -0.0253,-0.0253 m 10.997458,0.40543 v 0.0253 c -1.519778,0.47795 -2.975138,1.70255 -3.142128,3.37019 h -0.0253 c -0.0566,-0.66067 0.0328,-1.28861 0.41263,-1.84981 0.13952,-0.20617 0.30524,-0.38874 0.49585,-0.54842 0.0688,-0.0577 0.18784,-0.14239 0.15069,-0.24856 -0.0454,-0.12949 -0.20449,-0.0905 -0.28902,-0.0323 -0.19789,0.13638 -0.36951,0.35886 -0.51131,0.5505 -0.4421,0.59747 -0.54605,1.281 -0.46157,2.00184 -0.60551,-0.97712 0.009,-2.26205 0.8869,-2.82236 0.73184,-0.46725 1.63956,-0.5649 2.483298,-0.44647 m -6.562998,0.12671 0.0253,0.0253 -0.0253,-0.0253 m 0.20271,0 0.0253,0.0253 -0.0253,-0.0253 m -0.0507,0.0253 0.0253,0.0253 -0.0253,-0.0253 m -4.18106,0.10136 0.0253,0.0253 -0.0253,-0.0253 m 4.43446,0.0507 0.0253,0.0253 -0.0253,-0.0253 m 7.677948,0.0507 -0.076,-0.0253 -0.78554,0.46246 -1.140278,0.61575 -1.1403,0.84858 -0.63349,0.5565 c 0.37805,-1.11446 1.45306,-1.85487 2.508628,-2.26549 0.36084,-0.14036 0.88403,-0.34341 1.267,-0.19246 m -11.960368,0 v 0.0253 h 0.076 l -0.076,-0.0253 m 2.41211,0.12016 c -0.31603,0.0433 -0.16524,0.45122 0.11685,0.40197 0.30736,-0.0537 0.15135,-0.43871 -0.11685,-0.40197 m 9.548258,0.18391 v 0.0253 c -0.61267,0.38356 -1.27553,0.75396 -1.951168,1.01359 0.302828,-0.28187 0.697828,-0.46671 1.064268,-0.65215 0.28697,-0.14522 0.57306,-0.30844 0.8869,-0.38679 m -5.726788,0.0507 0.0253,0.0253 -0.0253,-0.0253 m 0,0.12669 0.0507,0.0507 -0.0507,-0.0507 m -0.076,0.10137 0.0253,0.0253 -0.0253,-0.0253 m 0.076,0.0507 v 0.0507 l 0.0507,-0.0507 h -0.0507 m -0.0507,0.10137 0.0253,0.0253 -0.0253,-0.0253 m -5.70144,0.0253 0.0253,0.0253 -0.0253,-0.0253 m 4.00368,0 0.0253,0.0253 -0.0253,-0.0253 m 0.0676,0.0337 0.0169,0.008 -0.0169,-0.008 m 1.68086,-0.008 0.0253,0.0253 -0.0253,-0.0253 m 6.486978,0 c 0.12857,0.55676 -0.59699,0.76161 -0.98826,0.97261 -1.2121,0.65364 -2.425718,1.30892 -3.648918,1.94145 l -0.005,-0.38701 0.3092,-0.24759 0.70928,-0.37911 2.305918,-1.22487 1.31766,-0.67548 m -8.091818,0.0337 0.0169,0.008 -0.0169,-0.008 m 0.0845,0.0169 0.0253,0.0253 -0.0253,-0.0253 m 1.43592,0.008 0.0169,0.008 -0.0169,-0.008 m -5.64233,0.0169 0.0253,0.0253 -0.0253,-0.0253 m 4.10504,0.0253 0.0253,0.0253 -0.0253,-0.0253 m 0.0507,0.0253 0.0253,0.0253 -0.0253,-0.0253 m 1.54572,0.0253 0.0253,0.0253 -0.0253,-0.0253 m -1.39368,0.0253 v 0.0253 h 0.076 l -0.076,-0.0253 m 0.10135,0.0253 0.0253,0.0253 -0.0253,-0.0253 m -0.17737,0.0253 0.0253,0.0253 -0.0253,-0.0253 m 0.12669,0.0253 0.0253,0.0253 -0.0253,-0.0253 m 1.29234,0.0253 0.0253,0.0253 -0.0253,-0.0253 m -1.19097,0.0253 0.0253,0.0253 -0.0253,-0.0253 m 0.0507,0 0.0253,0.0253 -0.0253,-0.0253 m -3.47999,0.21116 0.0169,0.008 -0.0169,-0.008 m -0.34631,0.017 0.0253,0.0253 -0.0253,-0.0253 m 0.22805,0.0253 0.0253,0.0253 -0.0253,-0.0253 m -0.30408,0.0253 0.0253,0.0253 -0.0253,-0.0253 m 0.24496,0.009 0.0169,0.008 -0.0169,-0.008 m 0.31252,-0.009 0.0253,0.0253 -0.0253,-0.0253 m -0.53213,0.15204 0.17738,-0.1267 -0.17738,0.1267 m 0.47302,-0.11826 0.0169,0.008 -0.0169,-0.008 m -0.58282,0.0253 0.0169,0.008 -0.0169,-0.008 m 0.51523,-0.008 0.0253,0.0253 -0.0253,-0.0253 m 0.22806,0 0.0253,0.0253 -0.0253,-0.0253 m -0.91223,0.076 v 0.0253 l 0.1267,-0.076 -0.1267,0.0507 m 0.55747,-0.0253 v 0.0253 l 0.10136,-0.0253 h -0.10135 m 0.29564,0.008 0.0169,0.008 -0.0169,-0.008 m -0.37165,0.017 -0.0253,0.076 -0.12669,0.0253 v 0.0253 l 0.20271,-0.10137 -0.0507,-0.0253 m 0.25339,0.0253 0.0253,0.0253 -0.0253,-0.0253 m -0.0845,0.0592 0.0169,0.008 -0.0169,-0.008 m -0.0929,0.0169 -0.10136,0.076 v 0.0253 l 0.15203,-0.10137 h -0.0507 m 5.29601,1.11496 c -0.28505,-0.13097 -0.56242,-0.26949 -0.86155,-0.36726 -0.67721,-0.22134 -1.42047,-0.29371 -2.12854,-0.21584 -0.35836,0.0394 -0.72741,0.12031 -1.06268,0.25522 -0.0992,0.0399 -0.338,0.19976 -0.17111,0.31495 0.11987,0.0828 0.30574,-0.0185 0.42291,-0.0602 0.30211,-0.10769 0.61799,-0.17345 0.93758,-0.20044 1.21233,-0.10237 2.78007,0.095 3.47154,1.23648 -0.32863,-0.22527 -0.64335,-0.44727 -1.01359,-0.60106 -1.01929,-0.4234 -2.23983,-0.44672 -3.29416,-0.14188 -0.35083,0.10144 -0.68421,0.23607 -1.0136,0.39328 -0.21077,0.1006 -0.40852,0.23254 -0.6335,0.29898 0.0675,-0.42226 0.15161,-0.80778 0.44741,-1.13621 0.3411,-0.3787 0.83793,-0.56934 1.32638,-0.67161 0.8216,-0.172 1.69815,-0.1026 2.4833,0.19489 0.41506,0.15727 0.79167,0.3666 1.08961,0.7007 m -5.44805,-0.93757 0.0253,0.0253 -0.0253,-0.0253 m -0.60815,1.16563 0.0253,0.0253 -0.0253,-0.0253 m 0,0.076 0.0253,0.0253 -0.0253,-0.0253 m 0.98825,0.0507 0.0253,0.0253 -0.0253,-0.0253 m 0.1267,0.076 0.0253,0.0253 -0.0253,-0.0253 m -0.0253,0.12669 0.0253,0.0253 -0.0253,-0.0253 m 4.10504,0.32942 v 0.0253 c -0.51974,0.0691 -1.0382,0.0871 -1.54572,0.23359 -1.19231,0.34411 -2.26134,1.00573 -3.34485,1.59087 l 0.1267,-0.17738 -0.15204,0.0507 -0.076,0.076 0.32942,-0.30408 -0.076,-0.076 -0.10136,0.076 -0.2534,0.20271 c 0.23625,-0.47782 0.67495,-0.83448 1.11496,-1.11969 0.89634,-0.58099 1.97543,-0.86036 3.04077,-0.76767 0.32396,0.0282 0.62396,0.11062 0.93757,0.18959 m -4.33311,-0.10135 0.0253,0.0253 -0.0253,-0.0253 m 4.07971,0.0507 0.0253,0.0253 -0.0253,-0.0253 m -0.076,0.0507 0.0253,0.0253 -0.0253,-0.0253 m 0.20272,0 0.0253,0.0253 -0.0253,-0.0253 m 1.16563,0.70951 c -1.20568,0.73065 -2.48677,1.34686 -3.72495,2.0203 -0.48295,0.26266 -1.01749,0.69349 -1.57107,0.41232 v -0.0507 l 1.24165,-0.67173 2.61,-1.38599 0.73485,-0.3866 0.40463,-0.1447 0.30489,0.20708 m -3.09146,-0.0253 -0.86155,0.50331 -1.67242,0.8397 v -0.0253 l 0.0507,-0.076 0.076,-0.0507 0.7602,-0.4184 1.64708,-0.77256 m -1.8498,0.17738 0.0253,0.0253 -0.0253,-0.0253 m -0.30408,0.0253 0.0253,0.0253 -0.0253,-0.0253 m 0.17738,0.0253 0.0253,0.0253 -0.0253,-0.0253 m -0.2534,0.0253 0.0253,0.0253 -0.0253,-0.0253 m 0.50679,0 -0.0253,0.0507 h 0.0507 l -0.0253,-0.0507 m -0.55748,0.0253 0.0253,0.0253 -0.0253,-0.0253 m 0.22806,0 -0.0253,0.0507 0.0253,-0.0507 m -0.30407,0.0507 0.0253,0.0253 -0.0253,-0.0253 m 0.50679,0 0.0253,0.0253 -0.0253,-0.0253 m -0.32098,0.0422 0.008,0.0169 -0.008,-0.0169 m 0.19428,0.008 v 0.0507 h 0.0507 v -0.0507 h -0.0507 m -0.48146,0.0253 0.0253,0.0253 -0.0253,-0.0253 m 0.15204,0.0253 -0.0253,0.0507 h 0.0507 l -0.0253,-0.0507 m 0.53213,0 0.0253,0.0253 -0.0253,-0.0253 m -0.32941,0.076 0.076,-0.0507 -0.076,0.0507 m -0.32942,0.0253 0.076,-0.0507 -0.076,0.0507 m 0.55748,-0.0507 0.0253,0.0253 -0.0253,-0.0253 m -0.68418,0.0253 0.0253,0.0253 -0.0253,-0.0253 m 0.3801,0 -0.0507,0.076 0.0507,-0.076 m 0.17737,0.0253 v 0.0507 h 0.0507 v -0.0507 h -0.0507 m -0.65883,0.0507 0.0253,0.0253 -0.0253,-0.0253 m 0.076,0.10137 0.1267,-0.076 -0.1267,0.076 m 0.27874,-0.10137 -0.0253,0.0507 h 0.0507 l -0.0253,-0.0507 m 0.20273,0.0253 -0.0253,0.0507 h 0.0507 l -0.0253,-0.0507 m -0.6335,0.0507 0.0253,0.0253 -0.0253,-0.0253 m 0.30407,0 v 0.0507 h 0.0507 v -0.0507 h -0.0507 m 0.20272,0.0253 v 0.0507 l 0.0507,-0.0507 h -0.0507 m -0.30407,0.076 h 0.076 l -0.0253,-0.0507 -0.0507,0.0507 m 0.15203,0.0507 0.076,-0.076 -0.076,0.076 m -0.42233,-0.0338 0.008,0.0169 -0.008,-0.0169 m 0.29564,0.0338 0.076,0.0507 -0.076,-0.0507 m -0.10136,0.0507 -0.10136,0.1267 0.17738,-0.0507 z"
       id="path31395-1-3-2" />
    <path
       style="fill:#de8787;fill-opacity:1;stroke-width:0.264583"
       id="rect31879"
       width="8.4666662"
       height="6.9453125"
       x="87.370979"
       y="95.846909"
       ry="0"
       inkscape:path-effect="#path-effect31883"
       d="m 91.273572,91.7128 2.61277,-0.16536 9.359628,11.24478 -14.089058,-9.59115 z"
       sodipodi:type="rect" />
    <path
       style="fill:#f4d7d7;fill-opacity:1;stroke-width:0.264583"
       id="rect31879-8"
       width="8.4666662"
       height="6.9453125"
       x="82.410049"
       y="98.492737"
       ry="0"
       inkscape:path-effect="#path-effect31883-6"
       d="m 86.560682,93.77985 2.36472,0.41342 2.74505,14.27095 -8.23516,-13.26224 z"
       sodipodi:type="rect" />
    <path
       style="fill:#f4d7d7;fill-opacity:1;stroke-width:0.264583"
       id="rect31949"
       width="6.5247173"
       height="8.6294641"
       x="89.210526"
       y="95.059662"
       inkscape:path-effect="#path-effect31951"
       d="m 88.415402,94.03067 0.91206,-1.02898 14.078418,9.84553 -11.716438,6.01022 z"
       sodipodi:type="rect" />
    <path
       style="fill:#000000;stroke:none;stroke-width:0.0253398"
       d="m 88.676762,93.60412 c -1.49742,-0.40681 -3.00377,0.0949 -4.38378,0.67571 -0.56775,0.23895 -1.31423,0.5345 -1.42963,1.22478 -0.0752,0.44995 0.2011,0.80803 0.42921,1.16562 0.43088,0.67548 0.85901,1.35272 1.29146,2.02717 1.64652,2.56786 3.25546,5.16118 4.86237,7.75398 0.32386,0.52256 0.64649,1.0461 0.96641,1.57106 0.30129,0.49438 0.5931,0.98256 1.20338,1.11386 0.80834,0.1739 1.47878,-0.32336 2.15388,-0.69392 1.32952,-0.7298 2.66792,-1.44427 4.00368,-2.16253 1.54494,-0.83074 3.090468,-1.66021 4.637178,-2.48758 0.56338,-0.30134 1.37621,-0.6586 1.171,-1.44594 -0.11535,-0.4425 -0.48911,-0.78547 -0.78438,-1.11494 -0.52794,-0.58903 -1.05361,-1.18018 -1.57634,-1.77379 -1.676308,-1.90352 -3.364798,-3.79655 -5.039398,-5.70144 -0.48528,-0.55203 -0.97744,-1.09774 -1.46573,-1.64709 -0.26774,-0.30121 -0.52797,-0.68202 -0.89571,-0.86711 -0.5742,-0.28902 -1.23767,-0.16643 -1.82409,0.005 -0.89122,0.25961 -1.7924,0.57942 -2.50858,1.19151 -0.36984,0.31607 -0.68382,0.6894 -0.81093,1.16626 m 11.782988,6.94308 c -0.14387,-0.009 -0.2968,-0.0146 -0.42993,-0.0758 -0.288568,-0.13262 -0.498668,-0.47491 -0.699678,-0.70974 -0.30608,-0.35752 -0.61984,-0.7083 -0.92769,-1.06427 -1.29007,-1.49172 -2.56628,-2.99544 -3.85874,-4.48513 -0.36715,-0.42319 -0.73632,-0.84467 -1.10446,-1.26699 -0.16273,-0.18671 -0.33515,-0.46647 -0.56067,-0.58053 -0.11339,-0.0574 -0.23429,-0.0276 -0.35017,0.005 -0.19554,0.0551 -0.38942,0.11853 -0.58281,0.18066 -0.95336,0.30622 -1.9052,0.80089 -2.28058,1.78856 h -0.0507 c -0.0899,-0.17647 -0.18759,-0.35432 -0.19061,-0.55747 -0.005,-0.33783 0.21646,-0.60814 0.44571,-0.83222 0.47867,-0.4679 1.09739,-0.75989 1.72141,-0.98148 0.24886,-0.0884 0.50367,-0.1617 0.76018,-0.22442 0.15481,-0.0379 0.30986,-0.0735 0.45268,0.0195 0.13473,0.0877 0.23863,0.22641 0.3431,0.34627 0.1554,0.1783 0.31325,0.35443 0.46939,0.5321 0.55436,0.63078 1.10028,1.26891 1.65378,1.90048 1.13378,1.29377 2.25187,2.60131 3.37728,3.90233 0.60301,0.69711 1.25257,1.37098 1.812498,2.10319 m -7.095138,-8.86892 c 0.27107,0.20449 0.48453,0.48098 0.7077,0.73485 0.36167,0.41143 0.71995,0.8258 1.078,1.24038 1.06232,1.23012 2.13475,2.452 3.20465,3.67554 0.56654,0.6479 1.13299,1.29706 1.692358,1.95115 0.29329,0.34298 0.65263,0.6751 0.84321,1.08961 -0.30122,-0.23307 -0.54063,-0.5483 -0.78736,-0.8362 -0.356908,-0.41649 -0.719268,-0.82839 -1.079928,-1.24165 -1.18371,-1.35634 -2.37418,-2.70963 -3.54189,-4.07971 -0.47902,-0.56206 -0.97008,-1.11378 -1.45308,-1.67242 -0.22596,-0.26135 -0.54179,-0.53236 -0.66366,-0.86155 m 0.35476,2.3566 c -0.85234,0.25226 -1.70615,0.64106 -2.25893,1.36842 -0.16015,0.21072 -0.27345,0.44165 -0.3764,0.6841 h -0.0253 c -0.0534,-0.22221 -0.027,-0.41385 0.0253,-0.6335 l -0.22806,0.27874 c -0.0984,-0.27537 -0.10462,-0.50477 -0.0253,-0.78553 0.0837,0.0404 0.16706,0.0833 0.25474,0.11456 0.12349,0.044 0.58522,0.0616 0.46187,-0.19846 -0.10612,-0.22373 -0.52035,-0.1415 -0.45723,-0.49861 0.0409,-0.23151 0.26753,-0.32184 0.4436,-0.43209 0.0726,-0.0455 0.17335,-0.12813 0.1201,-0.22452 -0.11684,-0.21151 -0.47408,-0.0573 -0.62018,0.026 -0.18161,0.10351 -0.34574,0.25742 -0.42723,0.45305 -0.0443,0.10635 -0.0574,0.22225 -0.0998,0.32931 -0.0721,0.18209 -0.17479,0.34331 -0.23333,0.53214 -0.17393,-0.37212 -0.0592,-0.77471 0.18643,-1.08774 0.34497,-0.43959 0.89398,-0.70639 1.40998,-0.89083 0.21136,-0.0755 0.50502,-0.21892 0.73303,-0.19355 0.16919,0.0188 0.29014,0.17941 0.39532,0.2974 0.24773,0.27791 0.50766,0.55602 0.72145,0.86113 m -1.63867,-0.76436 c -0.2927,0.0675 0.0443,0.44248 -0.0752,0.62739 -0.12636,0.19553 -0.36572,0.13261 -0.5092,0.2793 -0.0779,0.0797 -0.0541,0.18964 0.0362,0.24714 0.10427,0.0663 0.24516,0.0618 0.36233,0.0429 0.30849,-0.05 0.63225,-0.25775 0.6921,-0.58451 0.0504,-0.27491 -0.18031,-0.68733 -0.50631,-0.61217 m -2.92248,1.44854 c -1.40121,-0.2853 -2.68992,0.13619 -3.97835,0.65883 0.40632,0.56781 0.77715,1.16456 1.16006,1.74844 0.61492,0.93767 1.23949,1.86861 1.84481,2.81272 0.44824,0.69909 0.87729,1.41142 1.33672,2.10319 0.27628,0.41598 0.53141,0.84511 0.79845,1.26699 0.1595,0.25198 0.44168,0.55902 0.48422,0.86155 0.0235,0.16724 -0.0428,0.35203 -0.10019,0.5068 l -1.23526,-2.00185 -2.66063,-4.15572 -2.36303,-3.64892 c 0.97654,-0.44782 2.00645,-0.81241 3.09123,-0.83418 0.63764,-0.0128 1.24785,0.12632 1.62197,0.68215 m 5.14397,0 c -1.13097,0.30004 -2.29632,1.00682 -2.61,2.20456 -0.4195,-0.96383 0.63742,-1.80927 1.39369,-2.17682 0.1954,-0.095 0.39974,-0.17593 0.60815,-0.23746 0.10425,-0.0307 0.21934,-0.0643 0.32732,-0.0321 0.12439,0.0372 0.20502,0.14366 0.28084,0.24175 m -4.02903,-0.12671 0.0253,0.0253 -0.0253,-0.0253 m 4.5865,0.81088 c -1.05198,0.31083 -2.28067,1.00528 -2.55932,2.15387 h -0.0507 c -0.0324,-0.23262 -0.0525,-0.45302 0.004,-0.68417 0.16111,-0.65559 0.81181,-1.14756 1.38943,-1.43089 0.20414,-0.10013 0.41869,-0.18753 0.63345,-0.26223 0.10741,-0.0373 0.23157,-0.0805 0.34309,-0.0345 0.11335,0.0467 0.17918,0.15822 0.23977,0.25793 m -5.14398,0.0507 c -0.80785,-0.1505 -1.64581,-0.0592 -2.43261,0.16324 -0.36279,0.10257 -0.70549,0.25676 -1.06427,0.36889 l -0.20272,-0.38009 c 0.80872,-0.35428 1.62853,-0.50972 2.50864,-0.50664 0.41955,0.002 0.8838,0.0363 1.19096,0.3546 m -5.70144,-0.22806 4.95387,7.72862 1.00206,1.57107 0.32415,0.5068 0.13082,0.32931 -0.15197,0.40553 0.0507,-0.60815 -0.2534,0.32942 c -0.0183,-0.13365 0.0164,-0.24366 0.0383,-0.37421 0.0219,-0.1302 -0.0363,-0.15696 -0.13267,-0.0714 -0.0183,0.0163 -0.0348,0.0348 -0.0517,0.0524 l -0.082,0.0891 c 0.0189,-0.13873 0.0625,-0.27975 0.0695,-0.41927 0.008,-0.16392 -0.11122,-0.0629 -0.1626,0.013 -0.022,0.0325 -0.0399,0.0681 -0.0589,0.10223 h -0.0253 c 2e-5,-0.1225 0.14129,-0.70609 -0.11565,-0.41161 -0.0303,0.0348 -0.0583,0.0715 -0.0871,0.10754 l 0.076,-0.6335 -0.22806,0.30408 h -0.0507 l 0.076,-0.63349 -0.27873,0.30408 0.0517,-0.37458 -0.0275,-0.13598 -0.25221,0.18113 0.12669,-0.58281 -0.25339,0.27874 h -0.0504 c -0.0499,-0.16965 0.0721,-0.31478 0.0873,-0.48133 0.005,-0.0565 -0.0223,-0.11444 -0.0874,-0.0839 -0.1113,0.0523 -0.11011,0.20148 -0.22794,0.23581 0.0145,-0.13415 0.0544,-0.26419 0.0683,-0.39768 0.0121,-0.11703 -0.0487,-0.14281 -0.13603,-0.0704 -0.0169,0.0141 -0.0321,0.0307 -0.0474,0.0464 l -0.0875,0.0923 0.0616,-0.37477 -0.0231,-0.13788 -0.24121,0.1579 0.10135,-0.58283 -0.30407,0.27875 0.10135,-0.60815 -0.30407,0.27872 0.10368,-0.43026 -0.0776,-0.0931 -0.22885,0.21929 c 0.022,-0.12029 0.0667,-0.24473 0.0726,-0.3669 0.006,-0.13569 -0.0958,-0.0713 -0.15188,-0.009 -0.0268,0.03 -0.0493,0.0644 -0.0728,0.0968 h -0.0253 l 0.076,-0.58281 -0.22806,0.27873 h -0.0507 l -0.0253,-0.0253 0.12671,-0.55748 -0.27874,0.27874 0.10136,-0.55747 -0.27874,0.27873 c 0.008,-0.10462 0.1474,-0.64333 -0.081,-0.37556 -0.0259,0.0303 -0.048,0.0644 -0.0711,0.0968 h -0.0253 l 0.10136,-0.55748 -0.30408,0.27873 0.15204,-0.50679 -0.27873,0.22806 h -0.0253 c 0.0154,-0.11479 0.0548,-0.2271 0.0665,-0.34166 0.0102,-0.0996 -0.0508,-0.0986 -0.11412,-0.0423 -0.0171,0.0152 -0.0314,0.0336 -0.046,0.051 -0.0208,0.0249 -0.0396,0.0535 -0.0585,0.0796 h -0.0253 c 0.016,-0.13065 0.16344,-0.6283 -0.0975,-0.36479 -0.0275,0.0277 -0.0535,0.0574 -0.0798,0.0861 l 0.0633,-0.34589 -0.0276,-0.10764 -0.23848,0.17479 c 0.0255,-0.1155 0.0635,-0.23026 0.0827,-0.34682 0.0169,-0.10225 -0.0246,-0.13555 -0.10716,-0.0671 -0.0178,0.0148 -0.0332,0.0323 -0.0492,0.0487 -0.027,0.0279 -0.0524,0.0576 -0.0784,0.0865 0.0165,-0.13197 0.16444,-0.58608 -0.0991,-0.36649 l -0.10365,0.0878 c 0.0222,-0.0746 0.18638,-0.51787 -0.0251,-0.3672 -0.0175,0.0125 -0.0334,0.0277 -0.0495,0.0419 -0.0263,0.0233 -0.0517,0.0479 -0.0774,0.0719 0.018,-0.10297 0.15128,-0.55931 -0.0793,-0.33524 -0.0261,0.0253 -0.0491,0.0544 -0.0728,0.0818 l 0.1267,-0.50678 -0.30408,0.2534 0.15204,-0.50681 -0.32942,0.22806 c 0.0223,-0.0851 0.18087,-0.51075 -0.0368,-0.3672 -0.019,0.0126 -0.0365,0.0277 -0.0543,0.0419 l -0.0864,0.0719 0.1267,-0.5068 -0.2534,0.27874 h -0.0253 l 0.1267,-0.53214 -0.30407,0.2534 c 0.0263,-0.0921 0.17107,-0.56763 -0.0595,-0.33443 -0.0246,0.0249 -0.0455,0.0538 -0.0672,0.081 0.002,-0.0914 0.14339,-0.56112 -0.0685,-0.35166 -0.0214,0.0212 -0.0403,0.0499 -0.0583,0.0729 0.005,-0.17302 0.0783,-0.289 0.20272,-0.40543 m 6.8164,0.0253 0.0253,0.0253 -0.0253,-0.0253 m 0.1267,0.0507 0.0253,0.0253 -0.0253,-0.0253 m -0.15204,0.0253 0.0253,0.0253 -0.0253,-0.0253 m 0.30408,0.0253 0.0253,0.0253 -0.0253,-0.0253 m -0.20272,0.0253 -0.0253,0.10136 h 0.0253 v -0.10136 m -0.076,0.1267 v 0.076 h 0.0507 v -0.076 h -0.0507 m 4.61184,0.55747 c -1.14049,0.36837 -2.27131,1.07093 -2.58466,2.30592 -0.34766,-0.9775 0.58824,-1.82755 1.36835,-2.23334 0.20303,-0.10562 0.41527,-0.19616 0.63349,-0.26536 0.10443,-0.0331 0.21853,-0.0671 0.32681,-0.0309 0.11297,0.0379 0.18617,0.13306 0.25601,0.22362 m -5.0933,0.20272 c -1.22439,-0.2889 -2.46786,0.0318 -3.59824,0.5068 l -0.20272,-0.35476 c 0.79729,-0.415 1.79577,-0.63648 2.69445,-0.57078 0.40404,0.0296 0.82491,0.10222 1.10651,0.41874 m 1.34301,0.17738 0.0253,0.0253 -0.0253,-0.0253 m 4.3331,0.32942 c -0.82073,0.25722 -1.58176,0.68455 -2.09499,1.39368 -0.22562,0.31173 -0.40769,0.67599 -0.43898,1.06427 -0.509,-0.96684 0.49447,-1.96459 1.26699,-2.38949 0.20973,-0.11537 0.43308,-0.21247 0.65877,-0.29212 0.1005,-0.0355 0.21494,-0.0768 0.32164,-0.0441 0.12954,0.0397 0.21227,0.16311 0.28657,0.26774 m -9.22367,-0.25339 0.0253,0.0253 -0.0253,-0.0253 m -0.0507,0.076 0.0253,0.0253 -0.0253,-0.0253 m 4.28243,0.55748 c -0.86589,-0.25271 -1.84806,-0.18969 -2.71136,0.0433 -0.35551,0.0959 -0.68851,0.25197 -1.03893,0.36217 l 0.0253,-0.10135 -0.2534,-0.2534 c 0.8354,-0.42591 1.84872,-0.66035 2.78738,-0.56234 0.444,0.0464 0.89074,0.15868 1.19096,0.51166 m 1.29233,-0.20272 0.0253,0.0253 -0.0253,-0.0253 m 4.30777,0.53214 c -0.24983,0.0721 -0.49476,0.16313 -0.73486,0.2628 -0.28971,0.12026 -0.64175,0.26112 -0.87285,0.47866 -0.15751,0.14832 -0.0951,0.37529 0.13922,0.36707 0.15508,-0.005 0.29885,-0.1081 0.42955,-0.18123 0.29093,-0.16272 0.59934,-0.29023 0.91223,-0.40406 0.12944,-0.047 0.28558,-0.12176 0.42637,-0.0898 0.1316,0.0298 0.21085,0.14714 0.28315,0.25076 -0.7836,0.30055 -1.5622,0.5334 -2.1742,1.14531 -0.16575,0.16569 -0.31698,0.35207 -0.43896,0.55243 -0.0934,0.15344 -0.15825,0.31834 -0.27558,0.45614 -0.0367,-0.32222 0.0138,-0.58497 0.1267,-0.88689 l -0.30408,0.53214 c -0.46885,-0.75521 0.25061,-1.71697 0.83621,-2.16088 0.13588,-0.103 0.28031,-0.19478 0.43079,-0.27489 0.19523,-0.10394 0.39993,-0.19174 0.60815,-0.26621 0.11081,-0.0396 0.23467,-0.0835 0.35083,-0.0389 0.11904,0.0456 0.19103,0.15558 0.25733,0.25767 m -4.94126,0.53214 c -0.75479,-0.2499 -1.59286,-0.23128 -2.3566,-0.0289 -0.22578,0.0598 -0.51308,0.11636 -0.69548,0.27093 -0.10961,0.0929 -0.14114,0.24754 0,0.32942 0.1282,0.0743 0.2866,0.0192 0.41674,-0.0196 0.25123,-0.0751 0.50148,-0.14423 0.7602,-0.18888 0.84615,-0.14604 1.97059,-0.10425 2.58465,0.57466 -0.88438,-0.24228 -1.7563,-0.3276 -2.66067,-0.12673 -0.31434,0.0698 -0.61497,0.18048 -0.91221,0.30276 -0.11738,0.0483 -0.27651,0.14142 -0.40209,0.0705 -0.10802,-0.061 -0.17651,-0.19756 -0.24275,-0.29742 -0.13291,-0.20039 -0.26947,-0.40019 -0.39112,-0.60768 -0.0582,-0.0994 -0.14728,-0.24556 -0.0443,-0.34611 0.0701,-0.0684 0.17976,-0.0996 0.26955,-0.13235 0.19903,-0.0725 0.40221,-0.13668 0.60795,-0.18751 0.68031,-0.16811 1.4395,-0.20573 2.12854,-0.0696 0.35435,0.07 0.68999,0.18229 0.93756,0.4566 m 1.267,-0.2534 0.0253,0.0253 -0.0253,-0.0253 m 5.47338,1.84981 c -1.23265,0.25783 -2.51983,1.03892 -2.88873,2.30591 h -0.0253 c -0.11106,-0.39274 -0.0766,-0.79572 0.1585,-1.14004 0.10607,-0.15527 0.42306,-0.35946 0.42247,-0.55813 -6.6e-4,-0.27387 -0.34341,-0.19714 -0.4787,-0.0966 -0.32491,0.24141 -0.5521,0.60764 -0.68508,0.98394 -0.27256,-0.89429 0.59348,-1.65236 1.29232,-2.02913 0.13965,-0.0753 0.28396,-0.14175 0.43077,-0.20178 0.18256,-0.0746 0.36889,-0.14134 0.55749,-0.19902 0.10305,-0.0315 0.21865,-0.0721 0.32748,-0.0487 0.14619,0.0314 0.24894,0.16732 0.34068,0.27476 0.19359,0.22666 0.40844,0.44344 0.54814,0.70888 m -5.01727,-0.81088 0.0253,0.0253 -0.0253,-0.0253 m -0.0253,0.12671 0.0253,0.0253 -0.0253,-0.0253 m -4.96659,0.0507 0.0253,0.0253 -0.0253,-0.0253 m 8.89388,0.10934 c -0.14046,0.0165 -0.27522,0.0853 -0.40506,0.13737 -0.17097,0.0686 -0.37389,0.12634 -0.51468,0.24995 -0.18065,0.1586 -0.0737,0.39413 0.16108,0.38874 0.13276,-0.002 0.25936,-0.0718 0.37894,-0.12255 0.1996,-0.0847 0.47334,-0.14448 0.63275,-0.29756 0.1954,-0.18765 -0.0534,-0.37934 -0.25303,-0.35595 m -3.85127,1.25901 c -0.86576,-0.19479 -1.69607,-0.22771 -2.55932,0.0211 -0.49437,0.14245 -0.94258,0.37524 -1.41902,0.56173 l -0.20272,-0.3801 c 0.30088,-0.13881 0.59744,-0.27451 0.91223,-0.37977 0.19998,-0.0669 0.40209,-0.12827 0.6081,-0.17381 0.203,-0.0449 0.52134,-0.0341 0.68468,-0.176 0.11459,-0.0995 0.0638,-0.24786 -0.0606,-0.30971 -0.13431,-0.0667 -0.30403,-0.0383 -0.44667,-0.0209 -0.43354,0.0529 -0.85849,0.186 -1.26699,0.33692 -0.19233,0.0711 -0.39869,0.2051 -0.60309,0.23052 -0.19846,0.0246 -0.29426,-0.19345 -0.35982,-0.34342 0.27362,-0.12005 0.54853,-0.23831 0.83621,-0.32095 1.26577,-0.36359 3.09675,-0.28124 3.87699,0.95445 m 0.78552,-1.14028 0.0253,0.0253 -0.0253,-0.0253 m -0.076,0.076 v 0.0507 l 0.0507,-0.0507 h -0.0507 m -0.0422,0.0929 0.008,0.0169 -0.008,-0.0169 m 0.16894,0.008 -0.0253,0.10136 h 0.0253 v -0.10136 m 0.17738,0.0253 0.0253,0.0253 -0.0253,-0.0253 m -0.397,0.0676 0.008,0.0169 -0.008,-0.0169 m 0.1436,0.008 v 0.076 h 0.0253 l -0.0253,-0.076 m -0.16894,0.0676 0.008,0.0169 -0.008,-0.0169 m 0.11826,0.0338 v 0.0507 h 0.0507 v -0.0507 h -0.0507 m -0.10136,0.0507 0.0253,0.0253 -0.0253,-0.0253 m 0.076,0.0253 v 0.17737 -0.17737 m -5.06795,0.17737 0.0253,0.0253 -0.0253,-0.0253 m -0.0507,0.0507 0.0253,0.0253 -0.0253,-0.0253 m -0.0507,0.0253 0.0253,0.0253 -0.0253,-0.0253 m 0.10135,0.0253 0.0253,0.0253 -0.0253,-0.0253 m 10.21193,0.60815 c -1.32998,0.17298 -2.63751,0.93673 -3.04077,2.28057 -0.0597,-0.11326 -0.10708,-0.2283 -0.12991,-0.35504 -0.18856,-1.04687 0.89261,-1.80815 1.72631,-2.15893 0.20691,-0.0871 0.41931,-0.16271 0.6334,-0.23009 0.0987,-0.031 0.21239,-0.0723 0.31649,-0.044 0.20895,0.0566 0.37894,0.34022 0.49448,0.50753 m -10.23726,-0.53213 0.0253,0.0253 -0.0253,-0.0253 m 4.02903,0.0507 0.0253,0.0253 -0.0253,-0.0253 m -0.0845,0.0845 0.0169,0.008 -0.0169,-0.008 m 1.32611,0.0169 0.0253,0.0253 -0.0253,-0.0253 m 0.10135,1.41902 c -0.29994,-0.0578 -0.65399,-0.17071 -0.96057,-0.10475 -0.1788,0.0385 -0.30339,0.22334 -0.13321,0.36287 0.19659,0.16113 0.57465,0.10683 0.81506,0.16802 0.4726,0.12031 0.86798,0.3801 1.16562,0.76483 -1.06026,-0.23269 -2.14988,-0.21486 -3.16747,0.19365 -0.35308,0.14175 -0.6638,0.34634 -0.98826,0.54121 l 0.12671,-0.17738 -0.17738,0.076 0.20272,-0.15205 v -0.0253 l -0.27874,0.076 0.17738,-0.1267 v -0.0253 l -0.2534,0.0507 v -0.0253 l 0.17738,-0.12671 -0.0253,-0.0253 c -0.0464,0.0332 -0.0896,0.0719 -0.15166,0.0643 -0.0635,-0.008 -0.12185,-0.0674 -0.0827,-0.13059 0.0365,-0.0589 0.12629,-0.0924 0.18366,-0.1264 0.17258,-0.1024 0.34819,-0.19388 0.53213,-0.2742 0.10977,-0.048 0.26675,-0.10837 0.29042,-0.24276 0.0301,-0.17129 -0.16537,-0.29424 -0.31576,-0.26865 -0.26875,0.0457 -0.54645,0.23946 -0.78553,0.36365 -0.0783,0.0406 -0.25621,0.1635 -0.2534,0.007 l -0.20271,-0.22806 c 0.43546,-0.26146 0.90972,-0.48725 1.39368,-0.64326 0.15609,-0.0504 0.46879,-0.0924 0.49692,-0.29779 0.039,-0.28522 -0.39216,-0.23244 -0.5476,-0.19357 -0.58547,0.14652 -1.08688,0.47447 -1.64708,0.6785 l -0.20272,-0.3801 c 0.2311,-0.12193 0.46567,-0.23252 0.70951,-0.32675 1.21757,-0.47064 3.02859,-0.64404 3.90232,0.55481 m 0.53214,-0.83621 0.0253,0.0253 -0.0253,-0.0253 m -5.49873,0.0253 0.0253,0.0253 -0.0253,-0.0253 m 10.997458,0.40543 v 0.0253 c -1.519778,0.47795 -2.975138,1.70255 -3.142128,3.37019 h -0.0253 c -0.0566,-0.66067 0.0328,-1.28861 0.41263,-1.84981 0.13952,-0.20617 0.30524,-0.38874 0.49585,-0.54842 0.0688,-0.0577 0.18784,-0.14239 0.15069,-0.24856 -0.0454,-0.12949 -0.20449,-0.0905 -0.28902,-0.0323 -0.19789,0.13638 -0.36951,0.35886 -0.51131,0.5505 -0.4421,0.59747 -0.54605,1.281 -0.46157,2.00184 -0.60551,-0.97712 0.009,-2.26205 0.8869,-2.82236 0.73184,-0.46725 1.63956,-0.5649 2.483298,-0.44647 m -6.562998,0.12671 0.0253,0.0253 -0.0253,-0.0253 m 0.20271,0 0.0253,0.0253 -0.0253,-0.0253 m -0.0507,0.0253 0.0253,0.0253 -0.0253,-0.0253 m -4.18106,0.10136 0.0253,0.0253 -0.0253,-0.0253 m 4.43446,0.0507 0.0253,0.0253 -0.0253,-0.0253 m 7.677948,0.0507 -0.076,-0.0253 -0.78554,0.46246 -1.140278,0.61575 -1.1403,0.84858 -0.63349,0.5565 c 0.37805,-1.11446 1.45306,-1.85487 2.508628,-2.26549 0.36084,-0.14036 0.88403,-0.34341 1.267,-0.19246 m -11.960368,0 v 0.0253 h 0.076 l -0.076,-0.0253 m 2.41211,0.12016 c -0.31603,0.0433 -0.16524,0.45122 0.11685,0.40197 0.30736,-0.0537 0.15135,-0.43871 -0.11685,-0.40197 m 9.548258,0.18391 v 0.0253 c -0.61267,0.38356 -1.27553,0.75396 -1.95117,1.01359 0.30283,-0.28187 0.69783,-0.46671 1.06427,-0.65215 0.28697,-0.14522 0.57306,-0.30844 0.8869,-0.38679 m -5.726788,0.0507 0.0253,0.0253 -0.0253,-0.0253 m 0,0.12669 0.0507,0.0507 -0.0507,-0.0507 m -0.076,0.10137 0.0253,0.0253 -0.0253,-0.0253 m 0.076,0.0507 v 0.0507 l 0.0507,-0.0507 h -0.0507 m -0.0507,0.10137 0.0253,0.0253 -0.0253,-0.0253 m -5.70144,0.0253 0.0253,0.0253 -0.0253,-0.0253 m 4.00368,0 0.0253,0.0253 -0.0253,-0.0253 m 0.0676,0.0337 0.0169,0.008 -0.0169,-0.008 m 1.68086,-0.008 0.0253,0.0253 -0.0253,-0.0253 m 6.486978,0 c 0.12857,0.55676 -0.59699,0.76161 -0.98826,0.97261 -1.2121,0.65364 -2.425718,1.30892 -3.648918,1.94145 l -0.005,-0.38701 0.3092,-0.24759 0.70928,-0.37911 2.305918,-1.22487 1.31766,-0.67548 m -8.091818,0.0337 0.0169,0.008 -0.0169,-0.008 m 0.0845,0.0169 0.0253,0.0253 -0.0253,-0.0253 m 1.43592,0.008 0.0169,0.008 -0.0169,-0.008 m -5.64233,0.0169 0.0253,0.0253 -0.0253,-0.0253 m 4.10504,0.0253 0.0253,0.0253 -0.0253,-0.0253 m 0.0507,0.0253 0.0253,0.0253 -0.0253,-0.0253 m 1.54572,0.0253 0.0253,0.0253 -0.0253,-0.0253 m -1.39368,0.0253 v 0.0253 h 0.076 l -0.076,-0.0253 m 0.10135,0.0253 0.0253,0.0253 -0.0253,-0.0253 m -0.17737,0.0253 0.0253,0.0253 -0.0253,-0.0253 m 0.12669,0.0253 0.0253,0.0253 -0.0253,-0.0253 m 1.29234,0.0253 0.0253,0.0253 -0.0253,-0.0253 m -1.19097,0.0253 0.0253,0.0253 -0.0253,-0.0253 m 0.0507,0 0.0253,0.0253 -0.0253,-0.0253 m -3.47999,0.21116 0.0169,0.008 -0.0169,-0.008 m -0.34631,0.017 0.0253,0.0253 -0.0253,-0.0253 m 0.22805,0.0253 0.0253,0.0253 -0.0253,-0.0253 m -0.30408,0.0253 0.0253,0.0253 -0.0253,-0.0253 m 0.24496,0.009 0.0169,0.008 -0.0169,-0.008 m 0.31252,-0.009 0.0253,0.0253 -0.0253,-0.0253 m -0.53213,0.15204 0.17738,-0.1267 -0.17738,0.1267 m 0.47302,-0.11826 0.0169,0.008 -0.0169,-0.008 m -0.58282,0.0253 0.0169,0.008 -0.0169,-0.008 m 0.51523,-0.008 0.0253,0.0253 -0.0253,-0.0253 m 0.22806,0 0.0253,0.0253 -0.0253,-0.0253 m -0.91223,0.076 v 0.0253 l 0.1267,-0.076 -0.1267,0.0507 m 0.55747,-0.0253 v 0.0253 l 0.10136,-0.0253 h -0.10135 m 0.29564,0.008 0.0169,0.008 -0.0169,-0.008 m -0.37165,0.017 -0.0253,0.076 -0.12669,0.0253 v 0.0253 l 0.20271,-0.10137 -0.0507,-0.0253 m 0.25339,0.0253 0.0253,0.0253 -0.0253,-0.0253 m -0.0845,0.0592 0.0169,0.008 -0.0169,-0.008 m -0.0929,0.0169 -0.10136,0.076 v 0.0253 l 0.15203,-0.10137 h -0.0507 m 5.29601,1.11496 c -0.28505,-0.13097 -0.56242,-0.26949 -0.86155,-0.36726 -0.67721,-0.22134 -1.42047,-0.29371 -2.12854,-0.21584 -0.35836,0.0394 -0.72741,0.12031 -1.06268,0.25522 -0.0992,0.0399 -0.338,0.19976 -0.17111,0.31495 0.11987,0.0828 0.30574,-0.0185 0.42291,-0.0602 0.30211,-0.10769 0.61799,-0.17345 0.93758,-0.20044 1.21233,-0.10237 2.78007,0.095 3.47154,1.23648 -0.32863,-0.22527 -0.64335,-0.44727 -1.01359,-0.60106 -1.01929,-0.4234 -2.23983,-0.44672 -3.29416,-0.14188 -0.35083,0.10144 -0.68421,0.23607 -1.0136,0.39328 -0.21077,0.1006 -0.40852,0.23254 -0.6335,0.29898 0.0675,-0.42226 0.15161,-0.80778 0.44741,-1.13621 0.3411,-0.3787 0.83793,-0.56934 1.32638,-0.67161 0.8216,-0.172 1.69815,-0.1026 2.4833,0.19489 0.41506,0.15727 0.79167,0.3666 1.08961,0.7007 m -5.44805,-0.93757 0.0253,0.0253 -0.0253,-0.0253 m -0.60815,1.16563 0.0253,0.0253 -0.0253,-0.0253 m 0,0.076 0.0253,0.0253 -0.0253,-0.0253 m 0.98825,0.0507 0.0253,0.0253 -0.0253,-0.0253 m 0.1267,0.076 0.0253,0.0253 -0.0253,-0.0253 m -0.0253,0.12669 0.0253,0.0253 -0.0253,-0.0253 m 4.10504,0.32942 v 0.0253 c -0.51974,0.0691 -1.0382,0.0871 -1.54572,0.23359 -1.19231,0.34411 -2.26134,1.00573 -3.34485,1.59087 l 0.1267,-0.17738 -0.15204,0.0507 -0.076,0.076 0.32942,-0.30408 -0.076,-0.076 -0.10136,0.076 -0.2534,0.20271 c 0.23625,-0.47782 0.67495,-0.83448 1.11496,-1.11969 0.89634,-0.58099 1.97543,-0.86036 3.04077,-0.76767 0.32396,0.0282 0.62396,0.11062 0.93757,0.18959 m -4.33311,-0.10135 0.0253,0.0253 -0.0253,-0.0253 m 4.07971,0.0507 0.0253,0.0253 -0.0253,-0.0253 m -0.076,0.0507 0.0253,0.0253 -0.0253,-0.0253 m 0.20272,0 0.0253,0.0253 -0.0253,-0.0253 m 1.16563,0.70951 c -1.20568,0.73065 -2.48677,1.34686 -3.72495,2.0203 -0.48295,0.26266 -1.01749,0.69349 -1.57107,0.41232 v -0.0507 l 1.24165,-0.67173 2.61,-1.38599 0.73485,-0.3866 0.40463,-0.1447 0.30489,0.20708 m -3.09146,-0.0253 -0.86155,0.50331 -1.67242,0.8397 v -0.0253 l 0.0507,-0.076 0.076,-0.0507 0.7602,-0.4184 1.64708,-0.77256 m -1.8498,0.17738 0.0253,0.0253 -0.0253,-0.0253 m -0.30408,0.0253 0.0253,0.0253 -0.0253,-0.0253 m 0.17738,0.0253 0.0253,0.0253 -0.0253,-0.0253 m -0.2534,0.0253 0.0253,0.0253 -0.0253,-0.0253 m 0.50679,0 -0.0253,0.0507 h 0.0507 l -0.0253,-0.0507 m -0.55748,0.0253 0.0253,0.0253 -0.0253,-0.0253 m 0.22806,0 -0.0253,0.0507 0.0253,-0.0507 m -0.30407,0.0507 0.0253,0.0253 -0.0253,-0.0253 m 0.50679,0 0.0253,0.0253 -0.0253,-0.0253 m -0.32098,0.0422 0.008,0.0169 -0.008,-0.0169 m 0.19428,0.008 v 0.0507 h 0.0507 v -0.0507 h -0.0507 m -0.48146,0.0253 0.0253,0.0253 -0.0253,-0.0253 m 0.15204,0.0253 -0.0253,0.0507 h 0.0507 l -0.0253,-0.0507 m 0.53213,0 0.0253,0.0253 -0.0253,-0.0253 m -0.32941,0.076 0.076,-0.0507 -0.076,0.0507 m -0.32942,0.0253 0.076,-0.0507 -0.076,0.0507 m 0.55748,-0.0507 0.0253,0.0253 -0.0253,-0.0253 m -0.68418,0.0253 0.0253,0.0253 -0.0253,-0.0253 m 0.3801,0 -0.0507,0.076 0.0507,-0.076 m 0.17737,0.0253 v 0.0507 h 0.0507 v -0.0507 h -0.0507 m -0.65883,0.0507 0.0253,0.0253 -0.0253,-0.0253 m 0.076,0.10137 0.1267,-0.076 -0.1267,0.076 m 0.27874,-0.10137 -0.0253,0.0507 h 0.0507 l -0.0253,-0.0507 m 0.20273,0.0253 -0.0253,0.0507 h 0.0507 l -0.0253,-0.0507 m -0.6335,0.0507 0.0253,0.0253 -0.0253,-0.0253 m 0.30407,0 v 0.0507 h 0.0507 v -0.0507 h -0.0507 m 0.20272,0.0253 v 0.0507 l 0.0507,-0.0507 h -0.0507 m -0.30407,0.076 h 0.076 l -0.0253,-0.0507 -0.0507,0.0507 m 0.15203,0.0507 0.076,-0.076 -0.076,0.076 m -0.42233,-0.0338 0.008,0.0169 -0.008,-0.0169 m 0.29564,0.0338 0.076,0.0507 -0.076,-0.0507 m -0.10136,0.0507 -0.10136,0.1267 0.17738,-0.0507 z"
       id="path31395-1-3" />
  </g>
</svg>
